<svg width="26" height="17" viewBox="0 0 26 17" fill="none" xmlns="http://www.w3.org/2000/svg">
<path fill-rule="evenodd" clip-rule="evenodd" d="M10.6966 7.37368C11.2362 7.10228 11.6441 6.80001 11.9236 6.47336C12.4209 5.88506 12.6663 5.10499 12.6663 4.13804C12.6663 3.19709 12.4209 2.39265 11.9301 1.71822C11.111 0.619625 9.7248 0.0573286 7.76489 0.0280762H0V15.878H7.23997C8.05579 15.878 8.81147 15.8081 9.51028 15.6651C10.2091 15.5205 10.8136 15.2556 11.3256 14.8688C11.7806 14.5324 12.1609 14.1147 12.4631 13.6223C12.9409 12.878 13.1798 12.0346 13.1798 11.0952C13.1798 10.1852 12.9702 9.40997 12.5542 8.77292C12.1332 8.13587 11.5157 7.66945 10.6966 7.37368ZM3.20314 2.78105H6.70043C7.46911 2.78105 8.10291 2.86393 8.60021 3.02807C9.1755 3.26697 9.46315 3.75288 9.46315 4.49394C9.46315 5.15862 9.24376 5.62341 8.80985 5.88506C8.37269 6.1467 7.80552 6.27834 7.10996 6.27834H3.20314V2.78105ZM8.73347 12.8488C8.34669 13.0356 7.80227 13.1283 7.10508 13.1283H3.20314V8.9013H7.15871C7.84777 8.90618 8.38406 8.99719 8.76759 9.16782C9.45015 9.4766 9.7898 10.0421 9.7898 10.8693C9.7898 11.8444 9.43878 12.501 8.73347 12.8488ZM23.5009 0.767578H16.6152V2.74049H23.5009V0.767578ZM24.9436 6.13049C25.4344 6.82767 25.7497 7.63536 25.8927 8.55356C25.9772 9.08986 26.0097 9.8683 25.9967 10.8808H17.3396C17.3917 12.0557 17.8012 12.8813 18.5845 13.3526C19.059 13.6467 19.6278 13.7946 20.299 13.7946C21.0043 13.7946 21.5796 13.6159 22.0217 13.2583C22.2654 13.0633 22.4783 12.7952 22.662 12.4523H25.8342C25.7497 13.1462 25.3646 13.8531 24.6836 14.5714C23.6192 15.709 22.1289 16.2794 20.2129 16.2794C18.63 16.2794 17.2356 15.8 16.0282 14.838C14.8158 13.8775 14.2129 12.3125 14.2129 10.1462C14.2129 8.11478 14.7589 6.55628 15.8494 5.47231C16.9431 4.3916 18.357 3.84718 20.0975 3.84718C21.1343 3.84555 22.0655 4.02919 22.8927 4.39647C23.7232 4.76213 24.4057 5.34068 24.9436 6.13049ZM18.2465 7.04382C17.8077 7.49073 17.5314 8.09528 17.4177 8.85746H22.7725C22.7156 8.04327 22.4377 7.42735 21.9453 7.00319C21.4464 6.58228 20.8337 6.37263 20.1007 6.37263C19.3061 6.37426 18.6853 6.59853 18.2465 7.04382Z" fill="#293541"/>
</svg>
