<svg width="26" height="27" viewBox="0 0 26 27" fill="none" xmlns="http://www.w3.org/2000/svg">
<path fill-rule="evenodd" clip-rule="evenodd" d="M25.9738 7.79788C25.9129 6.4164 25.6895 5.46664 25.3695 4.64367C25.0393 3.7701 24.5314 2.988 23.866 2.33783C23.2158 1.67754 22.4285 1.16447 21.5651 0.839489C20.7374 0.519465 19.7926 0.296064 18.4111 0.235154C17.0193 0.169086 16.5774 0.153809 13.0475 0.153809C9.51747 0.153809 9.07563 0.169086 7.68899 0.229995C6.30751 0.290905 5.35776 0.514505 4.53498 0.834331C3.66121 1.16447 2.87911 1.67239 2.22894 2.33783C1.56866 2.988 1.05578 3.77526 0.730603 4.63871C0.410579 5.46664 0.187177 6.41124 0.126267 7.79272C0.0601989 9.18452 0.0449219 9.62636 0.0449219 13.1563C0.0449219 16.6863 0.0601989 17.1282 0.121109 18.5148C0.182018 19.8963 0.405618 20.8461 0.725642 21.669C1.05578 22.5426 1.56866 23.3247 2.22894 23.9749C2.87911 24.6352 3.66637 25.1482 4.52982 25.4732C5.35776 25.7932 6.30235 26.0166 7.68403 26.0775C9.07047 26.1387 9.51251 26.1537 13.0425 26.1537C16.5725 26.1537 17.0143 26.1387 18.401 26.0775C19.7824 26.0166 20.7322 25.7932 21.555 25.4732C23.3023 24.7976 24.6838 23.4162 25.3594 21.669C25.6792 20.8411 25.9028 19.8963 25.9637 18.5148C26.0246 17.1282 26.0399 16.6863 26.0399 13.1563C26.0399 9.62636 26.0347 9.18452 25.9738 7.79788ZM23.6325 18.4132C23.5765 19.683 23.3632 20.3687 23.1855 20.8258C22.7486 21.9585 21.8496 22.8575 20.7169 23.2943C20.2598 23.4721 19.5692 23.6854 18.3043 23.7411C16.933 23.8023 16.5217 23.8173 13.0526 23.8173C9.58354 23.8173 9.16709 23.8023 7.80069 23.7411C6.53091 23.6854 5.84523 23.4721 5.38811 23.2943C4.82445 23.086 4.31138 22.7559 3.89493 22.3242C3.46321 21.9025 3.13306 21.3946 2.92474 20.831C2.74697 20.3739 2.53369 19.683 2.47794 18.4184C2.41683 17.047 2.40175 16.6355 2.40175 13.1665C2.40175 9.69739 2.41683 9.28094 2.47794 7.91474C2.53369 6.64496 2.74697 5.95928 2.92474 5.50216C3.13306 4.9383 3.46321 4.42543 3.90009 4.00878C4.3215 3.57705 4.82941 3.24691 5.39327 3.03879C5.85039 2.86102 6.54123 2.64773 7.80585 2.59178C9.17721 2.53088 9.5887 2.5156 13.0576 2.5156C16.5318 2.5156 16.9431 2.53088 18.3095 2.59178C19.5793 2.64773 20.265 2.86102 20.7221 3.03879C21.2857 3.24691 21.7988 3.57705 22.2153 4.00878C22.647 4.43039 22.9771 4.9383 23.1855 5.50216C23.3632 5.95928 23.5765 6.64992 23.6325 7.91474C23.6934 9.2861 23.7086 9.69739 23.7086 13.1665C23.7086 16.6355 23.6934 17.0419 23.6325 18.4132ZM13.0482 6.47729C9.36086 6.47729 6.36914 9.46882 6.36914 13.1563C6.36914 16.8439 9.36086 19.8354 13.0482 19.8354C16.7357 19.8354 19.7272 16.8439 19.7272 13.1563C19.7272 9.46882 16.7357 6.47729 13.0482 6.47729ZM13.0482 17.4889C10.656 17.4889 8.71565 15.5487 8.71565 13.1563C8.71565 10.764 10.656 8.82381 13.0482 8.82381C15.4405 8.82381 17.3807 10.764 17.3807 13.1563C17.3807 15.5487 15.4405 17.4889 13.0482 17.4889ZM19.9909 7.77255C20.8522 7.77255 21.5503 7.07437 21.5503 6.2133C21.5503 5.35203 20.8522 4.65405 19.9909 4.65405C19.1298 4.65405 18.4316 5.35203 18.4316 6.2133C18.4316 7.07437 19.1298 7.77255 19.9909 7.77255Z" fill="#293541"/>
</svg>
