<svg width="60" height="60" viewBox="0 0 60 60" fill="none" xmlns="http://www.w3.org/2000/svg">
<rect y="0.000244141" width="60" height="60" rx="12" fill="#F1360B"/>
<g clip-path="url(#clip0)">
<path d="M12.5009 33.4999C12.8874 33.4999 13.2007 33.1866 13.2007 32.7998V17.4C13.2007 17.0135 12.8874 16.7002 12.5009 16.7002C12.1142 16.7002 11.8008 17.0135 11.8008 17.4V32.7998C11.8008 33.1866 12.1142 33.4999 12.5009 33.4999Z" fill="white"/>
<path d="M12.5009 15.3003C12.8874 15.3003 13.2008 14.9869 13.2008 14.6001V13.2001C13.2008 12.8137 12.8874 12.5003 12.5009 12.5003C12.1142 12.5003 11.8008 12.8137 11.8008 13.2001V14.6001C11.8008 14.9869 12.1142 15.3003 12.5009 15.3003Z" fill="white"/>
<path d="M30.0011 23.0001C28.4547 23.0001 27.2012 24.2536 27.2012 25.8C27.2012 27.3464 28.4547 28.5999 30.0011 28.5999C31.5475 28.5999 32.801 27.3464 32.801 25.8C32.7994 24.2543 31.5468 23.0017 30.0011 23.0001ZM30.0011 27.2C29.2279 27.2 28.6011 26.5732 28.6011 25.8C28.6011 25.0268 29.2279 24.4001 30.0011 24.4001C30.7743 24.4001 31.401 25.0268 31.401 25.8C31.4004 26.5729 30.774 27.1993 30.0011 27.2Z" fill="white"/>
<path d="M37.7104 22.9976H37.7014L36.4149 22.9969C36.205 22.5195 35.9436 22.0664 35.6347 21.646L36.2816 20.5235C36.6565 19.8525 36.4242 19.0047 35.7596 18.6186L33.3427 17.225C33.0238 17.0363 32.6425 16.9834 32.2843 17.0783C31.9238 17.1728 31.6155 17.4067 31.4271 17.7284L30.7792 18.8461C30.2608 18.7878 29.7369 18.7881 29.2184 18.8474L28.5747 17.7316C28.1873 17.0629 27.3317 16.8338 26.662 17.2193L24.2377 18.6192C23.5689 19.0063 23.3395 19.8618 23.7247 20.5315L24.369 21.647C24.0589 22.0667 23.7967 22.5201 23.5878 22.9982L22.2946 23.0001C21.9222 23.0027 21.5659 23.153 21.3038 23.4176C21.0439 23.6782 20.8991 24.0319 20.902 24.4001L20.9004 27.1949C20.902 27.9677 21.5249 28.5951 22.2978 28.6022L23.5846 28.6031C23.6894 28.8419 23.8073 29.0745 23.9377 29.3004C24.0678 29.526 24.2104 29.7442 24.3645 29.9541L23.717 31.0772C23.3427 31.7485 23.5757 32.5954 24.2399 32.9812L26.6559 34.3741C26.9748 34.5631 27.3564 34.6163 27.715 34.5215C28.0754 34.4269 28.384 34.193 28.5724 33.8713L29.22 32.7533C29.7388 32.812 30.2624 32.8117 30.7811 32.7524L31.4246 33.8681C31.6098 34.1901 31.9161 34.4247 32.275 34.5195C32.3942 34.5516 32.5172 34.5679 32.6406 34.5679C32.8854 34.5679 33.1257 34.5032 33.3372 34.3805L35.7616 32.9805C36.4303 32.5931 36.6597 31.7379 36.2746 31.0682L35.6308 29.9528C35.9407 29.533 36.2028 29.0799 36.4114 28.6015L37.7047 28.5999C38.0773 28.5974 38.4336 28.4471 38.6954 28.1821C38.9553 27.9216 39.1001 27.5678 39.0976 27.2L39.0988 24.4052C39.0982 23.6355 38.4801 23.0088 37.7104 22.9976ZM35.9327 27.2022C35.635 27.2029 35.37 27.3919 35.2726 27.6733C35.0454 28.3186 34.7003 28.9162 34.2546 29.435C34.0614 29.6606 34.0316 29.9832 34.1799 30.2405L35.0618 31.768L32.6371 33.1683L31.7552 31.6405C31.63 31.4239 31.3989 31.2906 31.149 31.2906C31.1057 31.2906 31.0628 31.2944 31.0202 31.3024C30.3476 31.4284 29.6577 31.4287 28.9848 31.3031C28.6926 31.2464 28.3962 31.3816 28.2475 31.6395L27.3622 33.1657L24.934 31.768L25.8148 30.2412C25.9635 29.9836 25.933 29.6602 25.7392 29.435C25.2957 28.914 24.9509 28.3167 24.7218 27.672C24.6235 27.3916 24.3588 27.2035 24.0614 27.2035L22.301 27.1984L22.2978 24.4001L24.0666 24.3975C24.3645 24.3972 24.6295 24.2081 24.727 23.9265C24.9538 23.2811 25.2989 22.6839 25.7446 22.1651C25.9379 21.9395 25.968 21.6165 25.8196 21.3595L24.9375 19.832L27.3622 18.4318L28.2443 19.9596C28.392 20.2172 28.6871 20.3531 28.979 20.2976C29.6516 20.1707 30.3418 20.1704 31.0144 20.2967C31.307 20.3531 31.6027 20.2182 31.752 19.9605L32.6374 18.4337L35.065 19.832L34.1841 21.3589C34.0357 21.6162 34.0659 21.9395 34.2597 22.1651C34.7035 22.6858 35.0486 23.2834 35.278 23.9281C35.3764 24.2085 35.6411 24.3962 35.9384 24.3966L37.6989 24.3975L37.7014 27.2L35.9327 27.2022Z" fill="white"/>
<path d="M50.9987 16.5479C50.9224 14.2867 49.0643 12.4942 46.8014 12.5003H18.802V10.4002C18.801 9.62731 18.1749 9.00087 17.402 9.00023H13.2018C12.0871 8.99734 11.0171 9.4389 10.2289 10.2272C9.44063 11.0154 8.99908 12.0853 9.00197 13.2001V43.3022C9.08239 45.5638 10.8851 47.3848 13.1461 47.4879C13.1653 47.4895 13.1823 47.4995 13.2018 47.4995H13.685L14.721 49.7703C14.7732 49.8828 14.8357 49.9905 14.9068 50.0917C14.9293 50.1244 14.9543 50.1542 14.9783 50.1856C15.0305 50.2526 15.0866 50.3167 15.1468 50.3769C15.1763 50.4067 15.2045 50.4365 15.2359 50.4644C15.3221 50.5419 15.4144 50.6128 15.5124 50.6752C15.5339 50.689 15.5579 50.6986 15.5804 50.7114C15.6646 50.7605 15.7524 50.8034 15.8428 50.8399C15.8614 50.8476 15.8777 50.8592 15.8963 50.8662C15.9197 50.8749 15.9437 50.8781 15.9671 50.8858C16.0351 50.9082 16.104 50.9271 16.1738 50.9425C16.2171 50.9524 16.2594 50.9636 16.3026 50.9707C16.3917 50.9845 16.4811 50.9925 16.5711 50.9947C16.5917 50.9953 16.6122 51.0002 16.6327 51.0002C16.9329 50.9998 17.2296 50.9351 17.5026 50.8098L24.7603 47.4995H41.2016V49.5996C41.2022 50.3724 41.8286 50.9989 42.6015 50.9995H46.8014C49.12 50.997 50.9987 49.118 51.0013 46.7997V16.7001C51.0013 16.6918 50.9968 16.6851 50.9964 16.6767C50.9964 16.6338 51 16.5912 50.9987 16.5479ZM11.2161 11.2198C11.7436 10.6943 12.4575 10.3995 13.2018 10.4002H17.402V39.0997H13.2018C12.1684 39.1001 11.1716 39.4817 10.4019 40.1713V13.2001C10.401 12.4583 10.6935 11.7463 11.2161 11.2198ZM34.6238 41.1168L33.1415 37.867L37.6227 37.5716L37.7643 37.9468L34.6238 41.1168ZM31.7377 38.1625L32.3186 39.4365L27.8605 41.47C27.6292 41.5712 27.4702 41.7894 27.4449 42.0406C27.4196 42.2919 27.5317 42.5373 27.7381 42.6831C27.9445 42.8286 28.2133 42.8516 28.4414 42.7433L32.8996 40.7096L33.4805 41.9836L24.3387 46.1533L24.3258 46.1591L20.7431 47.7936L20.1619 46.5196L25.2573 44.1955C25.6028 44.0318 25.753 43.6207 25.5941 43.2727C25.4355 42.9247 25.0266 42.7687 24.6764 42.9221L19.5813 45.2459L19.0003 43.9722L31.7377 38.1625ZM16.922 49.5361C16.5705 49.6963 16.1555 49.5416 15.995 49.1901L14.8328 46.6423C14.6729 46.2905 14.8274 45.8755 15.1789 45.7147L17.7269 44.5525L18.5979 46.4626V46.4632L18.5985 46.4642L19.4694 48.3739L16.922 49.5361ZM27.8297 46.0995L34.6985 42.9667C34.7337 42.9459 34.767 42.9218 34.7975 42.8949C34.8356 42.8744 34.8718 42.85 34.9055 42.8225L38.7391 38.952C39.1809 38.5419 39.3098 37.8946 39.0592 37.3463L38.897 36.9913C38.6538 36.4501 38.0937 36.123 37.5029 36.1768L32.0383 36.5366C31.9626 36.543 31.8883 36.5619 31.8184 36.5927C31.8104 36.5959 31.8018 36.5949 31.7941 36.5985L14.5979 44.4413C13.9343 44.746 13.4777 45.3744 13.3925 46.0995H13.3701C11.7875 46.1194 10.4743 44.8806 10.4019 43.2996V43.1977C10.4529 41.6894 11.6929 40.4946 13.2018 40.4997H17.402C18.1749 40.4991 18.801 39.8726 18.802 39.0997V13.9002H46.8014C48.3103 13.8945 49.5503 15.0897 49.6 16.5979C49.6199 17.3327 49.3379 18.0434 48.8201 18.565C48.2468 19.1588 47.4579 19.4962 46.6325 19.5H42.6015C41.8286 19.5007 41.2022 20.1271 41.2016 20.9V46.0995H27.8297ZM46.8014 49.5996H42.6015V20.9H46.6325C47.73 20.8946 48.7871 20.4844 49.6013 19.7484V46.7997C49.5997 48.3454 48.3471 49.598 46.8014 49.5996Z" fill="white"/>
</g>
<defs>
<clipPath id="clip0">
<rect width="42" height="42" fill="white" transform="translate(9 9.00024)"/>
</clipPath>
</defs>
</svg>
