<svg width="60" height="60" viewBox="0 0 60 60" fill="none" xmlns="http://www.w3.org/2000/svg">
<rect y="0.000244141" width="60" height="60" rx="12" fill="#F1360B"/>
<g clip-path="url(#clip0)">
<path d="M36.7188 29.1799C37.1718 29.1799 37.5391 28.8127 37.5391 28.3596C37.5391 27.9066 37.1718 27.5393 36.7188 27.5393C36.2657 27.5393 35.8984 27.9066 35.8984 28.3596C35.8984 28.8127 36.2657 29.1799 36.7188 29.1799Z" fill="white"/>
<path d="M36.8603 31.8745C36.4125 31.8079 35.995 32.1176 35.9286 32.5658C35.7044 34.0796 34.4248 35.3352 32.5056 35.9245C30.4542 36.5544 27.6068 36.3433 25.8698 34.4517C25.5633 34.118 25.0444 34.096 24.7108 34.4024C24.3771 34.7088 24.355 35.2277 24.6614 35.5614C25.6669 36.6564 27.0327 37.4027 28.611 37.7196C29.1683 37.8315 29.7464 37.887 30.3284 37.887C31.2273 37.887 32.135 37.7546 32.9872 37.4929C35.526 36.7133 37.2324 34.9613 37.5515 32.8061C37.6179 32.358 37.3084 31.9408 36.8603 31.8745Z" fill="white"/>
<path d="M48.2633 24.6199C46.7723 22.8914 44.7145 21.7707 42.2375 21.3206C44.609 19.7202 46.6545 18.1275 48.113 16.7377C50.3368 14.6187 51.0825 13.1297 50.4599 12.0519C49.767 10.8514 47.767 10.8597 44.1654 12.0782C41.1223 13.1077 37.3313 14.8957 33.4909 17.1131C32.8275 17.496 32.1703 17.8881 31.5274 18.2832C31.0505 16.9365 31.365 15.3982 32.4172 14.0643C33.2053 13.0651 33.3812 11.7961 32.8765 10.7523C32.3474 9.65822 31.1861 9.0032 29.7682 9.00024H29.7297C24.7253 9.00024 19.8304 10.9748 15.9468 14.5602C12.0583 18.1501 9.67779 22.9023 9.24368 27.9414C8.72139 34.0101 10.6613 39.7797 14.7058 44.1873C18.6789 48.5171 24.3116 51.0002 30.1595 51.0002C33.3079 51.0002 36.2635 50.4242 38.944 49.288C41.3951 48.2491 43.5717 46.7656 45.4135 44.8787C47.1211 43.129 48.4675 41.1149 49.4152 38.8921C50.3171 36.777 50.8097 34.5356 50.8403 32.4102C50.8846 29.3195 49.9935 26.6256 48.2633 24.6199ZM31.6233 20.1555C32.4915 19.608 33.3957 19.0624 34.3111 18.5339C37.8619 16.4838 41.3978 14.7952 44.2675 13.7791C47.4265 12.6606 48.7199 12.7336 49.0215 12.8779C48.9954 13.0688 48.7583 13.9181 46.6853 15.8271C44.9543 17.4212 42.4265 19.2959 39.5676 21.1058C38.6639 21.6781 37.7233 22.2469 36.7721 22.7962C35.4609 23.553 34.1506 24.2607 32.8646 24.9086C32.608 24.1598 32.2791 23.4331 31.8789 22.7397C31.491 22.0678 31.041 21.437 30.5381 20.8533C30.894 20.6201 31.2562 20.3868 31.6233 20.1555ZM31.3783 25.6363C29.062 26.7348 26.9366 27.5723 25.2393 28.0581C25.1509 27.6337 24.9956 27.2236 24.7752 26.8415C24.5662 26.4793 24.3041 26.1555 24.0012 25.8763C25.2719 24.65 27.0603 23.2292 29.1662 21.7757C29.6551 22.3221 30.0886 22.9198 30.4581 23.5599C30.8403 24.2219 31.1479 24.9182 31.3783 25.6363ZM49.1998 32.3867C49.0828 40.5495 41.77 49.3596 30.1595 49.3596C24.7699 49.3596 19.5779 47.0701 15.9147 43.0782C12.1845 39.0132 10.396 33.6875 10.8783 28.0822C11.7068 18.465 20.1634 10.6409 29.7297 10.6409H29.7665C30.5513 10.6425 31.1465 10.9434 31.3994 11.4665C31.632 11.9474 31.5309 12.5387 31.129 13.0482C29.6505 14.9227 29.2797 17.228 30.1151 19.1717C29.6753 19.455 29.2431 19.7396 28.8254 20.0219C28.8235 20.0232 28.8215 20.0245 28.8196 20.0258C26.2111 21.786 24.0084 23.5368 22.5428 25.0101C21.4313 24.6302 20.21 24.741 19.172 25.3401C17.4677 26.3246 15.2299 30.9122 14.7987 31.8218C14.6832 32.0653 14.6947 32.35 14.8294 32.5834C14.9642 32.8168 15.205 32.9691 15.4735 32.9909C15.9269 33.0277 17.2144 33.1205 18.6474 33.1205C20.3863 33.1205 22.3393 32.9837 23.2737 32.444C24.2858 31.8598 24.9873 30.8836 25.2303 29.7615C27.2419 29.2334 29.8703 28.2004 32.7169 26.8135C34.3119 26.0372 35.9522 25.1637 37.5925 24.217C38.4245 23.7365 39.2471 23.2411 40.0466 22.7415C40.0514 22.7417 40.0561 22.7424 40.0609 22.7426C46.8982 22.9387 49.2648 27.853 49.1998 32.3867ZM23.6799 29.0462C23.6274 29.8712 23.169 30.6101 22.4533 31.0233C21.6776 31.4714 19.0125 31.5318 16.8244 31.4317C17.8313 29.4872 19.2159 27.2095 19.9925 26.761C20.7257 26.3377 21.6121 26.3192 22.3642 26.7115C22.7775 26.9268 23.1198 27.2551 23.354 27.6613C23.5978 28.0837 23.7104 28.5626 23.6799 29.0462Z" fill="white"/>
<path d="M23.5957 14.0731C21.7864 14.0731 20.3145 15.545 20.3145 17.3543C20.3145 19.1636 21.7864 20.6356 23.5957 20.6356C25.405 20.6356 26.877 19.1636 26.877 17.3543C26.877 15.545 25.405 14.0731 23.5957 14.0731ZM23.5957 18.9949C22.6911 18.9949 21.9551 18.259 21.9551 17.3543C21.9551 16.4497 22.6911 15.7137 23.5957 15.7137C24.5003 15.7137 25.2363 16.4497 25.2363 17.3543C25.2363 18.259 24.5003 18.9949 23.5957 18.9949Z" fill="white"/>
<path d="M19.4941 36.1157C17.6849 36.1157 16.2129 37.5876 16.2129 39.3969C16.2129 41.2062 17.6849 42.6782 19.4941 42.6782C21.3034 42.6782 22.7754 41.2062 22.7754 39.3969C22.7754 37.5876 21.3034 36.1157 19.4941 36.1157ZM19.4941 41.0375C18.5895 41.0375 17.8535 40.3016 17.8535 39.3969C17.8535 38.4923 18.5895 37.7563 19.4941 37.7563C20.3988 37.7563 21.1348 38.4923 21.1348 39.3969C21.1348 40.3016 20.3988 41.0375 19.4941 41.0375Z" fill="white"/>
<path d="M27.6973 41.0375C25.888 41.0375 24.416 42.5095 24.416 44.3188C24.416 46.1281 25.888 47.6 27.6973 47.6C29.5065 47.6 30.9785 46.1281 30.9785 44.3188C30.9785 42.5095 29.5065 41.0375 27.6973 41.0375ZM27.6973 45.9594C26.7926 45.9594 26.0566 45.2234 26.0566 44.3188C26.0566 43.4141 26.7926 42.6782 27.6973 42.6782C28.6019 42.6782 29.3379 43.4141 29.3379 44.3188C29.3379 45.2234 28.6019 45.9594 27.6973 45.9594Z" fill="white"/>
<path d="M37.541 39.3969C35.7317 39.3969 34.2598 40.8689 34.2598 42.6782C34.2598 44.4874 35.7317 45.9594 37.541 45.9594C39.3503 45.9594 40.8223 44.4874 40.8223 42.6782C40.8223 40.8689 39.3503 39.3969 37.541 39.3969ZM37.541 44.3188C36.6364 44.3188 35.9004 43.5828 35.9004 42.6782C35.9004 41.7735 36.6364 41.0375 37.541 41.0375C38.4457 41.0375 39.1816 41.7735 39.1816 42.6782C39.1816 43.5828 38.4457 44.3188 37.541 44.3188Z" fill="white"/>
<path d="M44.1035 31.1938C42.2942 31.1938 40.8223 32.6658 40.8223 34.475C40.8223 36.2843 42.2942 37.7563 44.1035 37.7563C45.9128 37.7563 47.3848 36.2843 47.3848 34.475C47.3848 32.6658 45.9128 31.1938 44.1035 31.1938ZM44.1035 36.1157C43.1989 36.1157 42.4629 35.3797 42.4629 34.475C42.4629 33.5704 43.1989 32.8344 44.1035 32.8344C45.0082 32.8344 45.7441 33.5704 45.7441 34.475C45.7441 35.3797 45.0082 36.1157 44.1035 36.1157Z" fill="white"/>
</g>
<defs>
<clipPath id="clip0">
<rect width="42" height="42" fill="white" transform="translate(9 9.00024)"/>
</clipPath>
</defs>
</svg>
