<svg width="60" height="60" viewBox="0 0 60 60" fill="none" xmlns="http://www.w3.org/2000/svg">
<rect y="0.000244141" width="60" height="60" rx="12" fill="#F1360B"/>
<g clip-path="url(#clip0)">
<path d="M38.2706 19.4403C37.888 19.058 37.3795 18.8472 36.8386 18.8472C36.2977 18.8472 35.7891 19.058 35.4069 19.4403C35.0243 19.8229 34.8134 20.3315 34.8134 20.8723C34.8134 21.4132 35.0243 21.9218 35.4065 22.304L38.8563 25.7538C39.2386 26.1361 39.7475 26.347 40.2884 26.347C40.8293 26.347 41.3375 26.1361 41.7201 25.7538L49.0907 18.3832C49.4733 18.0006 49.6838 17.4921 49.6838 16.9515C49.6838 16.4106 49.4733 15.9021 49.0907 15.5195C48.7084 15.1369 48.1996 14.9264 47.6587 14.9264C47.1178 14.9264 46.6093 15.1369 46.227 15.5195L45.4144 16.3321C44.8123 15.8726 44.1515 15.5041 43.4514 15.2375V14.3163C43.4514 13.1995 42.5429 12.2911 41.4265 12.2911H35.0768V11.5881C35.0768 10.1612 33.9159 9.00024 32.489 9.00024H25.4077C23.9808 9.00024 22.8199 10.1612 22.8199 11.5881V14.512C22.8199 15.3048 23.4649 15.9498 24.2577 15.9498H33.639C34.4318 15.9498 35.0768 15.3048 35.0768 14.512V13.5235H41.4262C41.8633 13.5235 42.219 13.8792 42.219 14.3163V14.8837C41.7117 14.7812 41.1926 14.7267 40.6674 14.7267C36.3515 14.7267 32.8402 18.2381 32.8402 22.554C32.8402 26.8699 36.3515 30.3812 40.6674 30.3812C41.1939 30.3812 41.713 30.3284 42.219 30.2268V48.9754C42.219 49.4125 41.8633 49.7679 41.4262 49.7679H16.4701C16.0331 49.7679 15.6777 49.4125 15.6777 48.9754V14.3163C15.6777 13.8792 16.0331 13.5235 16.4701 13.5235H20.5663C20.9066 13.5235 21.1824 13.2476 21.1824 12.9073C21.1824 12.567 20.9066 12.2911 20.5663 12.2911H16.4701C15.3537 12.2911 14.4453 13.1995 14.4453 14.3163V48.9754C14.4453 50.0918 15.3537 51.0002 16.4701 51.0002H41.4265C42.5429 51.0002 43.4514 50.0918 43.4514 48.9754V29.8705C44.4325 29.4972 45.3374 28.9274 46.1116 28.1779C47.5754 26.7607 48.4203 24.8605 48.4902 22.8273C48.5017 22.4873 48.2358 22.2021 47.8955 22.1903C47.5577 22.1791 47.2703 22.4447 47.2585 22.785C47.1601 25.6468 45.2782 28.0097 42.6939 28.8342C42.6583 28.8425 42.6237 28.8534 42.591 28.8678C41.9828 29.0508 41.3371 29.1488 40.6674 29.1488C37.0311 29.1488 34.0726 26.1903 34.0726 22.554C34.0726 18.9177 37.0311 15.9591 40.6674 15.9591C42.0642 15.9591 43.4142 16.4007 44.5341 17.2123L40.2884 21.4584L38.2706 19.4403ZM33.8444 14.512C33.8444 14.6255 33.7525 14.7174 33.639 14.7174H24.2577C24.1442 14.7174 24.0523 14.6255 24.0523 14.512V11.5881C24.0523 10.8405 24.6601 10.2326 25.4077 10.2326H32.489C33.2362 10.2326 33.8444 10.8405 33.8444 11.5881V14.512ZM47.0986 16.3911C47.2482 16.2411 47.4472 16.1588 47.6587 16.1588C47.8705 16.1588 48.0695 16.2414 48.2194 16.3911C48.5283 16.7 48.5283 17.203 48.2194 17.5119L40.8485 24.8826C40.6988 25.0322 40.4998 25.1149 40.288 25.1149C40.0762 25.1149 39.8772 25.0322 39.7276 24.8826L36.2778 21.4328C36.1282 21.2831 36.0458 21.0842 36.0458 20.8723C36.0458 20.6605 36.1282 20.4615 36.2781 20.3119C36.4278 20.1623 36.6268 20.0796 36.8386 20.0796C37.05 20.0796 37.2494 20.1623 37.399 20.3119L39.8526 22.7655C40.0932 23.0061 40.4832 23.0061 40.7238 22.7655L47.0986 16.3911Z" fill="white"/>
<path d="M31.2158 24.467H23.7077C23.3674 24.467 23.0918 24.7429 23.0918 25.0832C23.0918 25.4232 23.3674 25.6991 23.7077 25.6991H31.2158C31.5561 25.6991 31.832 25.4232 31.832 25.0832C31.832 24.7429 31.5561 24.467 31.2158 24.467Z" fill="white"/>
<path d="M22.5318 18.1067H18.3857C18.0454 18.1067 17.7695 18.3826 17.7695 18.7229C17.7695 19.0632 18.0454 19.3391 18.3857 19.3391H22.5318C22.8721 19.3391 23.148 19.0632 23.148 18.7229C23.148 18.3826 22.8721 18.1067 22.5318 18.1067Z" fill="white"/>
<path d="M23.7077 28.5576H31.2158C31.5561 28.5576 31.832 28.2817 31.832 27.9414C31.832 27.6015 31.5561 27.3256 31.2158 27.3256H23.7077C23.3674 27.3256 23.0918 27.6015 23.0918 27.9414C23.0918 28.2817 23.3674 28.5576 23.7077 28.5576Z" fill="white"/>
<path d="M33.8094 31.9402H23.7077C23.3674 31.9402 23.0918 32.216 23.0918 32.5564C23.0918 32.8967 23.3674 33.1725 23.7077 33.1725H33.8094C34.1497 33.1725 34.4256 32.8967 34.4256 32.5564C34.4256 32.216 34.1497 31.9402 33.8094 31.9402Z" fill="white"/>
<path d="M23.7077 36.0312H28.7587C29.099 36.0312 29.3746 35.7553 29.3746 35.415C29.3746 35.0747 29.099 34.7988 28.7587 34.7988H23.7077C23.3674 34.7988 23.0918 35.0747 23.0918 35.415C23.0918 35.7553 23.3674 36.0312 23.7077 36.0312Z" fill="white"/>
<path d="M23.7077 40.6537H31.2158C31.5561 40.6537 31.832 40.3778 31.832 40.0375C31.832 39.6972 31.5561 39.4213 31.2158 39.4213H23.7077C23.3674 39.4213 23.0918 39.6972 23.0918 40.0375C23.0918 40.3778 23.3674 40.6537 23.7077 40.6537Z" fill="white"/>
<path d="M23.7077 43.512H33.8094C34.1497 43.512 34.4256 43.2361 34.4256 42.8958C34.4256 42.5558 34.1497 42.2799 33.8094 42.2799H23.7077C23.3674 42.2799 23.0918 42.5558 23.0918 42.8958C23.0918 43.2361 23.3674 43.512 23.7077 43.512Z" fill="white"/>
<path d="M19.6919 23.9328C18.3195 23.9328 17.2031 25.0492 17.2031 26.4216C17.2031 27.794 18.3195 28.9104 19.6919 28.9104C21.0644 28.9104 22.1808 27.794 22.1808 26.4216C22.1808 25.0492 21.0644 23.9328 19.6919 23.9328ZM19.6919 27.678C18.9992 27.678 18.4355 27.1144 18.4355 26.4216C18.4355 25.7288 18.9992 25.1652 19.6919 25.1652C20.3847 25.1652 20.9484 25.7288 20.9484 26.4216C20.9484 27.1144 20.3847 27.678 19.6919 27.678Z" fill="white"/>
<path d="M19.6919 31.4967C18.3195 31.4967 17.2031 32.6134 17.2031 33.9855C17.2031 35.3579 18.3195 36.4743 19.6919 36.4743C21.0644 36.4743 22.1808 35.3579 22.1808 33.9855C22.1808 32.6134 21.0644 31.4967 19.6919 31.4967ZM19.6919 35.2422C18.9992 35.2422 18.4355 34.6786 18.4355 33.9858C18.4355 33.2927 18.9992 32.7291 19.6919 32.7291C20.3847 32.7291 20.9484 33.2927 20.9484 33.9858C20.9484 34.6786 20.3847 35.2422 19.6919 35.2422Z" fill="white"/>
<path d="M19.6919 38.9778C18.3195 38.9778 17.2031 40.0942 17.2031 41.4667C17.2031 42.8391 18.3195 43.9555 19.6919 43.9555C21.0644 43.9555 22.1808 42.8391 22.1808 41.4667C22.1808 40.0942 21.0644 38.9778 19.6919 38.9778ZM19.6919 42.7231C18.9992 42.7231 18.4355 42.1594 18.4355 41.4667C18.4355 40.7739 18.9992 40.2102 19.6919 40.2102C20.3847 40.2102 20.9484 40.7739 20.9484 41.4667C20.9484 42.1594 20.3847 42.7231 19.6919 42.7231Z" fill="white"/>
</g>
<defs>
<clipPath id="clip0">
<rect width="42" height="42" fill="white" transform="translate(11 9.00024)"/>
</clipPath>
</defs>
</svg>
