<svg width="60" height="60" viewBox="0 0 60 60" fill="none" xmlns="http://www.w3.org/2000/svg">
<rect y="0.000244141" width="60" height="60" rx="12" fill="#F1360B"/>
<g clip-path="url(#clip0)">
<path d="M48.6911 6.0697H11.3089C8.38153 6.0697 6 8.45123 6 11.3786V37.6842C6 40.6115 8.38153 42.993 11.3089 42.993H26.2146L25.5498 48.3614H23.531C21.9592 48.3614 20.6806 49.64 20.6806 51.2117V52.0558H16.5819C16.0642 52.0558 15.6444 52.4755 15.6444 52.9933C15.6444 53.5111 16.0642 53.9308 16.5819 53.9308H43.4181C43.9358 53.9308 44.3556 53.5111 44.3556 52.9933C44.3556 52.4755 43.9358 52.0558 43.4181 52.0558H39.3194V51.2117C39.3194 49.64 38.0407 48.3614 36.469 48.3614H34.4502L33.7854 42.993H48.6911C51.6185 42.993 54 40.6115 54 37.6842C54 36.7636 54 12.5059 54 11.3786C54 8.45123 51.6185 6.0697 48.6911 6.0697ZM37.4444 51.2117V52.0558H22.5556V51.2117C22.5556 50.6739 22.9931 50.2364 23.531 50.2364H36.469C37.0069 50.2364 37.4444 50.674 37.4444 51.2117ZM32.5609 48.3614H27.439L28.1038 42.993H31.8961L32.5609 48.3614ZM52.125 37.6842C52.125 39.5776 50.5846 41.118 48.6911 41.118C46.8931 41.118 13.8867 41.118 11.3089 41.118C9.41541 41.118 7.875 39.5776 7.875 37.6842V36.9042H40.4062C40.924 36.9042 41.3438 36.4845 41.3438 35.9667C41.3438 35.4489 40.924 35.0292 40.4062 35.0292H7.875V11.3786C7.875 9.48511 9.41541 7.9447 11.3089 7.9447H48.6911C50.5846 7.9447 52.125 9.48511 52.125 11.3786V35.0292H47.9062C47.3885 35.0292 46.9688 35.4489 46.9688 35.9667C46.9688 36.4845 47.3885 36.9042 47.9062 36.9042H52.125V37.6842Z" fill="white"/>
<path d="M46.4469 10.5428L45.5535 9.79056C45.1575 9.45718 44.5661 9.50771 44.2325 9.90381C43.899 10.2999 43.9497 10.8913 44.3457 11.2248L44.875 11.6704H20.4173L20.9465 11.2248C21.3425 10.8913 21.3932 10.2999 21.0597 9.90381C20.7262 9.50771 20.1348 9.45728 19.7387 9.79056L18.8454 10.5428C17.566 11.6202 17.5632 13.5932 18.8454 14.6731C19.6032 15.2473 19.7985 15.6457 20.3421 15.6457C20.6091 15.6457 20.8742 15.5323 21.0597 15.3121C21.3931 14.916 21.3424 14.3246 20.9464 13.991L20.4172 13.5454H44.875L44.3457 13.991C43.9497 14.3246 43.899 14.916 44.2325 15.3121C44.5644 15.7062 45.1556 15.7603 45.5535 15.4253C45.9829 14.9577 47.4076 14.3226 47.4076 12.6079C47.4076 11.8097 47.0575 11.0569 46.4469 10.5428Z" fill="white"/>
<path d="M16.4782 17.8034C17.2679 17.8034 17.7094 16.873 17.195 16.262C16.7273 15.8326 16.0923 14.408 14.3776 14.408C12.6643 14.408 12.027 15.8334 11.5602 16.262C11.2267 16.6581 11.2775 17.2495 11.6735 17.5831C12.0696 17.9166 12.6609 17.8659 12.9945 17.4698L13.4401 16.9406V30.1204L12.9945 29.5912C12.6609 29.1952 12.0696 29.1446 11.6735 29.4779C11.2775 29.8115 11.2267 30.4029 11.5602 30.799C12.0278 31.2284 12.6629 32.6531 14.3776 32.6531C16.0909 32.6531 16.7282 31.2277 17.195 30.799C17.5284 30.4029 17.4777 29.8115 17.0817 29.4779C16.6857 29.1445 16.0943 29.1951 15.7607 29.5912L15.3151 30.1204V16.9406C15.6407 17.2541 15.8398 17.8034 16.4782 17.8034Z" fill="white"/>
<path d="M27.8251 17.4899H21.9578C20.5508 17.4899 19.4062 18.6345 19.4062 20.0414V29.3412C19.4062 30.7481 20.5508 31.8927 21.9578 31.8927H27.8251C29.232 31.8927 30.3766 30.7481 30.3766 29.3412V20.0414C30.3766 18.6345 29.232 17.4899 27.8251 17.4899ZM28.5016 29.3412C28.5016 29.7143 28.1981 30.0177 27.8251 30.0177H21.9578C21.5847 30.0177 21.2813 29.7143 21.2813 29.3412V20.0414C21.2813 19.6684 21.5847 19.3649 21.9578 19.3649H27.8251C28.1981 19.3649 28.5016 19.6684 28.5016 20.0414V29.3412Z" fill="white"/>
<path d="M43.338 17.4899H34.2624C32.8555 17.4899 31.7109 18.6345 31.7109 20.0414V21.4784C31.7109 22.8853 32.8555 24.0299 34.2624 24.0299H43.338C44.7449 24.0299 45.8895 22.8853 45.8895 21.4784V20.0414C45.8895 18.6345 44.7449 17.4899 43.338 17.4899ZM44.0145 21.4784C44.0145 21.8515 43.711 22.1549 43.338 22.1549H34.2624C33.8894 22.1549 33.5859 21.8515 33.5859 21.4784V20.0414C33.5859 19.6684 33.8894 19.3649 34.2624 19.3649H43.338C43.711 19.3649 44.0145 19.6684 44.0145 20.0414V21.4784Z" fill="white"/>
<path d="M43.338 25.3528H34.2624C32.8555 25.3528 31.7109 26.4974 31.7109 27.9043V29.3413C31.7109 30.7482 32.8555 31.8928 34.2624 31.8928H43.338C44.7449 31.8928 45.8895 30.7482 45.8895 29.3413V27.9043C45.8895 26.4974 44.7449 25.3528 43.338 25.3528ZM44.0145 29.3413C44.0145 29.7143 43.711 30.0178 43.338 30.0178H34.2624C33.8894 30.0178 33.5859 29.7143 33.5859 29.3413V27.9043C33.5859 27.5313 33.8894 27.2278 34.2624 27.2278H43.338C43.711 27.2278 44.0145 27.5313 44.0145 27.9043V29.3413Z" fill="white"/>
<path d="M44.1594 35.0292H44.1571C43.6393 35.0292 43.2207 35.4489 43.2207 35.9667C43.2207 36.4845 43.6416 36.9042 44.1594 36.9042C44.6772 36.9042 45.0969 36.4845 45.0969 35.9667C45.0969 35.4489 44.6772 35.0292 44.1594 35.0292Z" fill="white"/>
</g>
<defs>
<clipPath id="clip0">
<rect width="48" height="48" fill="white" transform="translate(6 6.00024)"/>
</clipPath>
</defs>
</svg>
