<svg width="613" height="689" viewBox="0 0 613 689" fill="none" xmlns="http://www.w3.org/2000/svg">
<path d="M117.394 263.612H429.25C430.922 263.612 432.277 264.972 432.277 266.651V685.961C432.277 687.639 430.922 689 429.25 689H117.394C115.722 689 114.367 687.639 114.367 685.961V266.651C114.367 264.972 115.722 263.612 117.394 263.612Z" fill="white"/>
<path d="M117.394 688.999H429.25C430.052 688.998 430.822 688.678 431.39 688.108C431.957 687.539 432.276 686.766 432.277 685.961V266.65C432.276 265.844 431.957 265.072 431.39 264.503C430.822 263.933 430.052 263.612 429.25 263.612H117.394C116.592 263.612 115.822 263.933 115.254 264.503C114.687 265.072 114.367 265.844 114.367 266.65V685.961C114.367 686.766 114.687 687.539 115.254 688.108C115.822 688.678 116.592 688.998 117.394 688.999V688.999ZM429.25 265.131C429.651 265.131 430.036 265.291 430.32 265.576C430.603 265.861 430.763 266.247 430.763 266.65V685.961C430.763 686.364 430.603 686.75 430.32 687.035C430.036 687.319 429.651 687.48 429.25 687.48H117.394C116.993 687.48 116.608 687.319 116.324 687.035C116.04 686.75 115.881 686.364 115.88 685.961V266.65C115.881 266.247 116.04 265.861 116.324 265.576C116.608 265.291 116.993 265.131 117.394 265.131H429.25Z" fill="#F0F1F3"/>
<path d="M162.055 358.847H384.593C386.098 358.847 387.542 358.247 388.607 357.179C389.671 356.11 390.27 354.661 390.27 353.15C390.27 351.639 389.671 350.19 388.607 349.122C387.542 348.053 386.098 347.453 384.593 347.453H162.055C160.549 347.453 159.105 348.053 158.041 349.122C156.976 350.19 156.378 351.639 156.378 353.15C156.378 354.661 156.976 356.11 158.041 357.179C159.105 358.247 160.549 358.847 162.055 358.847Z" fill="#F0F1F3"/>
<path d="M162.055 395.689H384.593C386.098 395.689 387.542 395.088 388.607 394.02C389.671 392.952 390.27 391.502 390.27 389.992C390.27 388.481 389.671 387.032 388.607 385.963C387.542 384.895 386.098 384.294 384.593 384.294H162.055C160.549 384.294 159.105 384.895 158.041 385.963C156.976 387.032 156.378 388.481 156.378 389.992C156.378 391.502 156.976 392.952 158.041 394.02C159.105 395.088 160.549 395.689 162.055 395.689Z" fill="#F0F1F3"/>
<path d="M162.055 432.531H384.593C386.098 432.531 387.542 431.93 388.607 430.862C389.671 429.793 390.27 428.344 390.27 426.833C390.27 425.322 389.671 423.873 388.607 422.805C387.542 421.736 386.098 421.136 384.593 421.136H162.055C160.549 421.136 159.105 421.736 158.041 422.805C156.976 423.873 156.378 425.322 156.378 426.833C156.378 428.344 156.976 429.793 158.041 430.862C159.105 431.93 160.549 432.531 162.055 432.531Z" fill="#F0F1F3"/>
<path d="M162.055 469.372H384.593C386.098 469.372 387.542 468.772 388.607 467.703C389.671 466.635 390.27 465.186 390.27 463.675C390.27 462.164 389.671 460.715 388.607 459.646C387.542 458.578 386.098 457.978 384.593 457.978H162.055C160.549 457.978 159.105 458.578 158.041 459.646C156.976 460.715 156.378 462.164 156.378 463.675C156.378 465.186 156.976 466.635 158.041 467.703C159.105 468.772 160.549 469.372 162.055 469.372Z" fill="#F0F1F3"/>
<path d="M162.055 506.214H384.593C386.098 506.214 387.542 505.613 388.607 504.545C389.671 503.477 390.27 502.027 390.27 500.516C390.27 499.006 389.671 497.556 388.607 496.488C387.542 495.42 386.098 494.819 384.593 494.819H162.055C160.549 494.819 159.105 495.42 158.041 496.488C156.976 497.556 156.378 499.006 156.378 500.516C156.378 502.027 156.976 503.477 158.041 504.545C159.105 505.613 160.549 506.214 162.055 506.214Z" fill="#F0F1F3"/>
<path d="M160.341 589.055H307.98C310.06 589.055 311.746 586.505 311.746 583.358C311.746 580.212 310.06 577.661 307.98 577.661H160.341C158.261 577.661 156.575 580.212 156.575 583.358C156.575 586.505 158.261 589.055 160.341 589.055Z" fill="#F0F1F3"/>
<path d="M160.341 621.719H307.98C310.06 621.719 311.746 619.168 311.746 616.022C311.746 612.876 310.06 610.325 307.98 610.325H160.341C158.261 610.325 156.575 612.876 156.575 616.022C156.575 619.168 158.261 621.719 160.341 621.719Z" fill="#F0F1F3"/>
<path d="M132.552 260.722C133.315 260.722 134.048 261.026 134.588 261.568C135.128 262.11 135.432 262.845 135.432 263.612C135.432 264.379 135.128 265.114 134.588 265.656C134.048 266.198 133.315 266.502 132.552 266.502H117.246V281.861C117.245 282.626 116.94 283.36 116.401 283.9C115.861 284.441 115.129 284.745 114.367 284.745C113.604 284.745 112.872 284.441 112.333 283.9C111.793 283.36 111.489 282.626 111.487 281.861V266.502H96.1816C95.4178 266.502 94.6853 266.198 94.1451 265.656C93.605 265.114 93.3015 264.379 93.3015 263.612C93.3015 262.845 93.605 262.11 94.1451 261.568C94.6853 261.026 95.4178 260.722 96.1816 260.722H111.487V245.362C111.487 244.596 111.79 243.861 112.33 243.319C112.87 242.777 113.603 242.472 114.367 242.472C115.13 242.472 115.863 242.777 116.403 243.319C116.943 243.861 117.246 244.596 117.246 245.362V260.722H132.552Z" fill="#A1A5A6"/>
<path d="M0.000427246 687.481H612.357V689H0.000427246V687.481Z" fill="#CACACA"/>
<path d="M496.29 652.84C493.474 653.834 490.451 654.082 487.511 653.563C484.571 653.043 481.814 651.772 479.506 649.873C473.626 644.921 471.785 636.763 470.284 629.211L465.848 606.868L475.134 613.283C481.813 617.898 488.642 622.661 493.267 629.346C497.891 636.03 499.909 645.156 496.194 652.389" fill="#F0F1F3"/>
<path d="M494.855 681.445C496.026 672.899 497.226 664.243 496.405 655.604C495.677 647.932 493.345 640.44 488.596 634.296C486.076 631.041 483.01 628.252 479.534 626.055C478.626 625.481 477.793 626.922 478.697 627.494C484.709 631.308 489.36 636.939 491.978 643.576C494.87 650.958 495.335 659.004 494.836 666.845C494.533 671.587 493.896 676.298 493.252 681.002C493.201 681.215 493.233 681.439 493.341 681.629C493.448 681.82 493.624 681.962 493.832 682.027C494.044 682.085 494.271 682.056 494.462 681.947C494.654 681.838 494.794 681.658 494.853 681.445H494.855Z" fill="#F0F1F3"/>
<path d="M569.348 668.679C567.913 670.379 566.067 671.68 563.986 672.456C561.905 673.233 559.66 673.458 557.468 673.111C551.841 672.153 547.6 667.615 543.807 663.335L532.586 650.676L540.949 651.288C546.963 651.727 553.13 652.205 558.602 654.748C564.073 657.292 568.788 662.383 569.115 668.426" fill="#F0F1F3"/>
<path d="M578.974 686.333C577.002 681.57 575.014 676.74 571.988 672.534C569.393 668.723 565.77 665.733 561.543 663.913C559.262 662.999 556.84 662.492 554.386 662.413C553.746 662.392 553.749 663.388 554.386 663.41C558.637 663.552 562.732 665.045 566.083 667.674C569.799 670.604 572.462 674.612 574.568 678.808C575.841 681.345 576.931 683.969 578.017 686.59C578.054 686.715 578.138 686.82 578.25 686.886C578.363 686.951 578.496 686.971 578.622 686.943C578.749 686.908 578.857 686.824 578.923 686.71C578.989 686.596 579.007 686.46 578.974 686.333V686.333Z" fill="#F0F1F3"/>
<path d="M486.441 667.733C485.234 669.575 483.573 671.074 481.621 672.085C479.668 673.096 477.489 673.585 475.293 673.506C469.649 673.237 464.944 669.284 460.709 665.53L448.182 654.43L456.472 654.032C462.435 653.746 468.551 653.478 474.23 655.323C479.909 657.169 485.146 661.609 486.185 667.509" fill="#F0F1F3"/>
<path d="M498.16 686.358C492.533 676.366 486.006 665.26 474.343 661.71C471.1 660.727 467.7 660.374 464.325 660.672C463.261 660.764 463.527 662.409 464.588 662.317C470.245 661.846 475.891 663.345 480.575 666.562C485.083 669.641 488.593 673.922 491.564 678.462C493.38 681.243 495.013 684.142 496.643 687.037C497.164 687.962 498.687 687.294 498.16 686.358Z" fill="#F0F1F3"/>
<path d="M14.6688 670.785C16.842 671.551 19.1753 671.743 21.4439 671.342C23.7125 670.941 25.84 669.961 27.6214 668.495C32.1584 664.674 33.5807 658.378 34.7366 652.549L38.1602 635.305L30.9927 640.258C25.8388 643.82 20.5683 647.495 17.0002 652.653C13.432 657.812 11.8735 664.854 14.7407 670.436" fill="#F0F1F3"/>
<path d="M16.6451 687.151C16.0146 682.543 15.3666 677.875 15.8087 673.218C16.0961 669.064 17.5567 665.078 20.0195 661.728C21.3785 659.972 23.0322 658.469 24.9062 657.284C25.3952 656.975 25.8448 657.752 25.3604 658.059C22.1179 660.116 19.61 663.153 18.1983 666.732C16.639 670.712 16.3885 675.051 16.6572 679.279C16.8199 681.836 17.1643 684.376 17.511 686.912C17.5382 687.027 17.5211 687.148 17.4631 687.25C17.4051 687.353 17.3105 687.429 17.1984 687.464C17.0839 687.494 16.9623 687.478 16.8594 687.42C16.7564 687.361 16.6804 687.265 16.6474 687.151L16.6451 687.151Z" fill="#F0F1F3"/>
<path d="M440.439 308.066L440.437 308.058C439.675 305.469 438.148 303.175 436.057 301.478C433.963 299.778 431.403 298.759 428.718 298.555C426.034 298.352 423.351 298.973 421.026 300.337C418.702 301.701 416.846 303.743 415.705 306.192C414.565 308.641 414.195 311.38 414.644 314.046C415.093 316.711 416.34 319.176 418.218 321.112C420.097 323.049 422.518 324.365 425.16 324.886C427.802 325.408 430.539 325.11 433.008 324.032L433.266 323.919L433.496 324.081L494.03 366.732C495.799 367.978 497.922 368.615 500.082 368.546C502.242 368.478 504.321 367.709 506.009 366.353L527.537 349.058L512.523 331.461L499.664 339.882L499.422 340.04L499.164 339.91L441.127 310.511L440.889 310.391L440.857 310.126C440.771 309.429 440.632 308.741 440.439 308.066Z" fill="white" stroke="#A1A5A6"/>
<path d="M501.292 340.573L520.532 363.403C521.079 364.052 521.76 364.576 522.527 364.937C523.294 365.299 524.13 365.491 524.978 365.499C525.825 365.508 526.665 365.333 527.439 364.986C528.213 364.64 528.904 364.13 529.464 363.491L549.088 341.114C552.385 338.285 554.429 334.259 554.773 329.919C555.116 325.579 553.73 321.28 550.919 317.964C548.108 314.648 544.101 312.587 539.778 312.232C535.454 311.876 531.167 313.257 527.856 316.07L502.688 331.719C501.968 332.167 501.352 332.766 500.883 333.475C500.414 334.183 500.102 334.985 499.97 335.826C499.838 336.666 499.887 337.525 500.115 338.344C500.344 339.163 500.745 339.924 501.292 340.573L501.292 340.573Z" fill="#F1360B"/>
<path d="M554.148 622.866L560.52 674.719H573.232L573.234 622.866H554.148Z" fill="white" stroke="#A1A5A6"/>
<path d="M577.217 670.745L550.327 670.744H550.325C545.781 670.744 541.422 672.556 538.208 675.781C534.995 679.006 533.189 683.38 533.189 687.941V688.5L577.216 688.502L577.217 670.745Z" fill="#2F2E41"/>
<path d="M572.572 540.603L576.188 528.37L526.655 513.626L521.225 531.993L572.572 540.603Z" fill="white" stroke="#A1A5A6"/>
<path d="M573.525 523.41L565.879 549.282L565.878 549.283C564.586 553.656 565.078 558.364 567.245 562.373C569.413 566.382 573.078 569.363 577.435 570.66L577.969 570.819L590.488 528.46L573.525 523.41Z" fill="#2F2E41"/>
<path d="M435.752 501.004C437.723 504.3 440.505 507.033 443.831 508.939C447.157 510.846 450.915 511.862 454.746 511.892L536.81 538.257L540.562 516.416L490.871 489.358L539.014 454.56L503.742 413.138L439.678 473.062C435.934 476.564 433.502 481.25 432.787 486.335C432.073 491.421 433.119 496.599 435.752 501.004V501.004Z" fill="#293541"/>
<path d="M554.773 650.373H575.035C593.228 525.225 611.746 399.729 557.024 352.886L492.484 363.43L500.739 418.409L536.76 459.831L554.773 650.373Z" fill="#293541"/>
<path d="M496.432 386.105C523.748 404.785 559.034 400.393 573.762 372.559C552.601 336.792 548.146 311.085 565.18 299.349C567.91 289.581 566.891 279.141 562.325 270.089C557.759 261.038 549.977 254.034 540.516 250.459L508.247 264.016C480.849 286.43 475.453 310.708 485.733 336.316L496.432 386.105Z" fill="#A1A5A6"/>
<path d="M589.43 391.55L589.517 391.749L589.432 391.948C588.772 393.495 588.458 395.168 588.511 396.849C588.565 398.531 588.986 400.18 589.743 401.681C590.501 403.182 591.577 404.498 592.896 405.535C594.175 406.542 595.651 407.263 597.227 407.653L597.377 407.689L597.38 407.69C600.125 408.348 603.015 407.973 605.503 406.636C607.991 405.299 609.904 403.092 610.88 400.433C611.855 397.775 611.825 394.849 610.795 392.211C609.764 389.573 607.806 387.407 605.291 386.122L605.113 386.031L605.047 385.843L569.777 285.968L545.562 292.089L589.43 391.55Z" fill="white" stroke="#A1A5A6"/>
<path d="M550.835 309.634L575.375 298.106C576.073 297.778 576.692 297.303 577.191 296.713C577.69 296.123 578.056 295.432 578.265 294.688C578.473 293.943 578.52 293.162 578.4 292.397C578.281 291.633 577.999 290.903 577.573 290.258L562.66 267.655C560.966 264.082 557.93 261.329 554.217 259.998C550.504 258.668 546.416 258.868 542.85 260.556C539.284 262.244 536.53 265.282 535.192 269.004C533.853 272.725 534.04 276.828 535.71 280.412L543.421 306.301C543.642 307.042 544.02 307.727 544.528 308.309C545.037 308.89 545.664 309.355 546.368 309.671C547.071 309.987 547.835 310.148 548.605 310.141C549.376 310.135 550.137 309.962 550.835 309.634H550.835Z" fill="#A1A5A6"/>
<path d="M496.407 243.096H561.004C562.333 243.094 563.606 242.564 564.546 241.621C565.486 240.678 566.014 239.4 566.016 238.066V210.124C566.016 200.193 562.085 190.67 555.088 183.648C548.091 176.626 538.601 172.681 528.705 172.681C518.81 172.681 509.32 176.626 502.323 183.648C495.326 190.67 491.395 200.193 491.395 210.124V238.066C491.396 239.4 491.925 240.678 492.865 241.621C493.804 242.564 495.078 243.094 496.407 243.096V243.096Z" fill="#F1360B"/>
<path d="M492.639 215.219C492.639 230.106 504.663 242.171 519.493 242.171C534.323 242.171 546.348 230.106 546.348 215.219C546.348 200.333 534.323 188.268 519.493 188.268C504.663 188.268 492.639 200.333 492.639 215.219Z" fill="white" stroke="#A1A5A6"/>
<path d="M512.593 184.66C512.975 184.817 513.28 185.041 513.472 185.307L551.838 184.418C552.179 184.417 552.516 184.465 552.826 184.557C553.137 184.648 553.413 184.782 553.636 184.949C553.86 185.116 554.025 185.312 554.121 185.524C554.217 185.736 554.242 185.959 554.193 186.177L551.424 198.664C551.369 198.919 551.217 199.16 550.982 199.366C550.747 199.573 557.482 200.624 557.123 200.733C551.838 212.764 515.833 199.484 501.696 195.211C501.321 195.096 500.998 194.92 500.76 194.7C500.522 194.48 500.376 194.224 500.336 193.956L504.258 186.105C504.226 185.891 504.264 185.676 504.368 185.472C504.473 185.268 504.642 185.081 504.865 184.922C505.088 184.763 505.36 184.636 505.664 184.549C505.967 184.462 506.295 184.417 506.627 184.418H511.316C511.768 184.418 512.211 184.502 512.593 184.66Z" fill="#F1360B"/>
</svg>
