<svg width="572" height="575" viewBox="0 0 572 575" fill="none" xmlns="http://www.w3.org/2000/svg">
<g clip-path="url(#clip0)">
<path d="M569.311 34.7665L0.495068 103.204C0.428998 103.212 0.361991 103.201 0.302235 103.172C0.240062 103.14 0.18615 103.095 0.144866 103.039C0.0971595 102.975 0.0611306 102.903 0.0384449 102.827C0.0123268 102.739 -0.00062522 102.648 2.3191e-05 102.556C4.30158e-05 102.461 0.0132108 102.367 0.0391698 102.276C0.063483 102.192 0.100074 102.112 0.147765 102.038C0.189284 101.972 0.242632 101.914 0.305135 101.867C0.3616 101.825 0.427991 101.798 0.497968 101.788L569.311 32.4061C569.49 32.3831 569.672 32.3924 569.847 32.4334C570.005 32.4702 570.154 32.538 570.285 32.633C570.408 32.7221 570.509 32.8381 570.581 32.9722C570.652 33.109 570.689 33.2611 570.689 33.4156C570.688 33.5793 570.651 33.7407 570.581 33.8885C570.508 34.0421 570.408 34.1813 570.285 34.2994C570.156 34.4244 570.009 34.5277 569.847 34.6053C569.679 34.6883 569.498 34.7427 569.311 34.7665Z" fill="#A1A5A6"/>
<path d="M570.336 566.278L0.364782 508.243C0.298543 508.237 0.235649 508.211 0.18378 508.169C0.129997 508.125 0.0874113 508.069 0.0594388 508.005C0.0269048 507.932 0.00749771 507.854 0.00213975 507.775C-0.0040845 507.683 0.00329027 507.591 0.0240039 507.502C0.0447975 507.41 0.0783352 507.321 0.123639 507.238C0.165828 507.161 0.219098 507.091 0.281763 507.029C0.336768 506.974 0.401503 506.929 0.47274 506.897C0.537128 506.868 0.607901 506.856 0.678245 506.862L570.853 563.975C571.033 563.992 571.208 564.041 571.37 564.119C571.516 564.19 571.646 564.289 571.754 564.41C571.854 564.524 571.927 564.659 571.968 564.806C572.008 564.955 572.01 565.112 571.976 565.262C571.939 565.422 571.868 565.571 571.767 565.7C571.662 565.834 571.534 565.948 571.388 566.036C571.235 566.13 571.068 566.198 570.894 566.238C570.711 566.282 570.523 566.296 570.336 566.278Z" fill="#A1A5A6"/>
<path d="M11.7899 76.0164C12.5307 75.902 13.2887 76.0047 13.9724 76.312C14.6756 76.6377 15.2899 77.1282 15.7633 77.7419C16.3068 78.443 16.7175 79.2377 16.9749 80.0868C17.276 81.0683 17.4255 82.09 17.4182 83.1167C17.4191 84.1834 17.2699 85.2449 16.9749 86.27C16.7046 87.2201 16.2964 88.1254 15.7633 88.957C15.2889 89.7061 14.682 90.3624 13.9724 90.8939C13.3321 91.3734 12.5817 91.6844 11.7899 91.7984C11.0493 91.8993 10.2953 91.784 9.61859 91.4666C8.92375 91.1303 8.31878 90.6336 7.85357 90.0174C7.32129 89.3176 6.91935 88.5275 6.66702 87.6851C6.37289 86.715 6.22645 85.706 6.23261 84.6922C6.23245 83.6388 6.37865 82.5905 6.66702 81.5773C6.93156 80.6353 7.33097 79.7365 7.85284 78.9088C8.32014 78.1592 8.91823 77.4997 9.61862 76.9615C10.2529 76.4713 10.999 76.1465 11.7899 76.0164Z" fill="#A1A5A6"/>
<path d="M31.5561 73.05C32.3299 72.9304 33.1218 73.0329 33.8397 73.3456C34.5728 73.6726 35.2164 74.1711 35.7163 74.7992C36.2836 75.5118 36.7135 76.3238 36.9841 77.1936C37.2989 78.196 37.4552 79.2415 37.4474 80.2922C37.4476 81.3847 37.2909 82.4715 36.9819 83.5194C36.6983 84.4933 36.2718 85.4197 35.7163 86.2685C35.2174 87.0388 34.5825 87.7118 33.8427 88.2548C33.1702 88.7504 32.3857 89.0722 31.559 89.1919C30.7855 89.2974 29.9979 89.1819 29.2872 88.8586C28.5632 88.5191 27.9302 88.0126 27.4402 87.3806C26.884 86.6694 26.4626 85.8624 26.1967 84.9996C25.8892 84.0091 25.736 82.9772 25.7424 81.9401C25.7424 80.8618 25.8954 79.7889 26.1967 78.7536C26.4745 77.7864 26.8924 76.8652 27.4372 76.0193C27.9288 75.2492 28.5544 74.5734 29.2842 74.024C29.951 73.5192 30.7308 73.1848 31.5561 73.05Z" fill="#A1A5A6"/>
<path d="M52.2442 69.9404C53.0533 69.8143 53.8815 69.9154 54.6365 70.2324C55.4002 70.5633 56.0734 71.0727 56.5995 71.7177C57.1929 72.4423 57.6441 73.2724 57.9294 74.1645C58.2598 75.1876 58.4247 76.2568 58.4178 77.3319C58.4176 78.4515 58.2531 79.5649 57.9294 80.6367C57.6301 81.6386 57.1818 82.5897 56.5995 83.4582C56.074 84.2513 55.4089 84.9424 54.6365 85.4978C53.9287 86.008 53.1079 86.3391 52.2442 86.4629C51.4354 86.5738 50.6117 86.4585 49.8645 86.1296C49.1097 85.7878 48.4466 85.2719 47.9296 84.6243C47.3501 83.9 46.9102 83.0743 46.6322 82.1893C46.3108 81.179 46.1502 80.1243 46.1564 79.0641C46.1563 77.958 46.3165 76.8578 46.6322 75.7977C46.9239 74.8051 47.3611 73.8612 47.9296 72.9969C48.4472 72.203 49.1028 71.5082 49.8652 70.9455C50.5666 70.4252 51.3824 70.0806 52.2442 69.9404Z" fill="#A1A5A6"/>
<path d="M538.655 4.65294L503.972 9.6685C503.647 9.71768 503.317 9.7054 502.997 9.63229C502.709 9.56579 502.439 9.43995 502.202 9.2628C501.977 9.09436 501.794 8.87638 501.667 8.62578C501.537 8.36401 501.469 8.07518 501.471 7.78258C501.473 7.47094 501.54 7.16315 501.667 6.87879C501.798 6.58519 501.979 6.31661 502.202 6.08511C502.433 5.84391 502.702 5.64154 502.997 5.48578C503.301 5.32447 503.631 5.21601 503.972 5.16505L538.654 0.0334591C538.995 -0.0195278 539.343 -0.00951177 539.681 0.063015C539.983 0.127341 540.268 0.253104 540.52 0.432507C540.762 0.605576 540.959 0.834585 541.093 1.10002C541.228 1.36546 541.296 1.65948 541.293 1.95707C541.291 2.27869 541.22 2.59612 541.085 2.8882C540.946 3.19239 540.755 3.46978 540.52 3.70774C540.017 4.21754 539.363 4.55005 538.654 4.65514L538.655 4.65294Z" fill="#A1A5A6"/>
<path d="M538.655 13.3133L503.972 18.1167C503.647 18.1639 503.317 18.1496 502.997 18.0746C502.71 18.0077 502.439 17.8819 502.202 17.7051C501.977 17.5354 501.795 17.3164 501.667 17.0651C501.535 16.7999 501.468 16.5071 501.471 16.2109C501.473 15.8997 501.54 15.5924 501.667 15.3085C501.798 15.016 501.979 14.7486 502.202 14.5185C502.434 14.2799 502.702 14.0802 502.997 13.9274C503.302 13.7679 503.631 13.6614 503.972 13.6126L538.654 8.69379C538.996 8.64302 539.344 8.6553 539.681 8.73C539.983 8.79698 540.269 8.92526 540.52 9.1069C540.757 9.27874 540.951 9.50308 541.087 9.76238C541.225 10.0319 541.295 10.3309 541.293 10.6337C541.291 10.9548 541.22 11.2718 541.085 11.5633C540.946 11.8655 540.754 12.1407 540.519 12.3762C540.015 12.8833 539.36 13.2119 538.653 13.3118L538.655 13.3133Z" fill="#A1A5A6"/>
<path d="M538.655 21.9736L503.972 26.5554C503.647 26.6006 503.316 26.5843 502.997 26.5073C502.709 26.4378 502.438 26.3095 502.202 26.1305C501.973 25.9563 501.787 25.7309 501.66 25.4722C501.533 25.2136 501.468 24.9288 501.471 24.6406C501.472 24.3297 501.539 24.0226 501.667 23.7391C501.798 23.4473 501.979 23.1809 502.202 22.952C502.433 22.713 502.702 22.5133 502.997 22.3609C503.302 22.2031 503.632 22.0986 503.972 22.052L538.654 17.355C538.996 17.3064 539.344 17.3209 539.681 17.3978C539.983 17.4668 540.269 17.5968 540.52 17.7799C540.757 17.9532 540.951 18.1788 541.087 18.4391C541.224 18.709 541.295 19.0081 541.293 19.3111C541.291 19.6318 541.22 19.9483 541.085 20.2393C540.946 20.5417 540.754 20.8169 540.518 21.0522C540.015 21.5563 539.359 21.8808 538.653 21.9759L538.655 21.9736Z" fill="#A1A5A6"/>
<path d="M373.76 101.944L541.296 87.751V187.641L373.76 189.828V101.944Z" fill="#F0F1F3"/>
<path d="M504.313 232.796L404.816 230.819C403.667 230.798 402.57 230.336 401.753 229.528C401.361 229.14 401.047 228.682 400.827 228.176C400.603 227.658 400.488 227.1 400.488 226.535C400.488 225.976 400.603 225.422 400.827 224.91C401.045 224.411 401.36 223.961 401.753 223.585C402.15 223.205 402.617 222.906 403.128 222.703C403.665 222.491 404.239 222.386 404.816 222.395L504.312 223.706C504.987 223.714 505.655 223.844 506.283 224.089C506.877 224.321 507.424 224.66 507.897 225.088C508.353 225.499 508.724 225.996 508.988 226.55C509.251 227.107 509.388 227.716 509.388 228.332C509.389 228.944 509.252 229.548 508.988 230.1C508.725 230.646 508.354 231.132 507.897 231.53C507.423 231.943 506.876 232.264 506.283 232.475C505.651 232.7 504.983 232.808 504.312 232.793L504.313 232.796Z" fill="#A1A5A6"/>
<path d="M487.219 217.093L419.861 216.527C419.267 216.523 418.68 216.404 418.132 216.178C417.608 215.962 417.13 215.648 416.723 215.255C416.322 214.868 416 214.407 415.775 213.897C415.546 213.376 415.428 212.813 415.428 212.243C415.428 211.674 415.546 211.111 415.775 210.589C416 210.082 416.322 209.624 416.723 209.242C417.13 208.852 417.608 208.544 418.131 208.333C418.681 208.112 419.268 207.999 419.861 208.001L487.219 208.117C487.876 208.117 488.527 208.237 489.14 208.473C489.72 208.695 490.253 209.023 490.713 209.44C491.16 209.844 491.521 210.332 491.777 210.876C492.034 211.425 492.168 212.023 492.168 212.629C492.168 213.235 492.034 213.833 491.777 214.382C491.522 214.923 491.16 215.407 490.714 215.805C490.253 216.218 489.72 216.541 489.14 216.757C488.526 216.987 487.875 217.101 487.22 217.094L487.219 217.093Z" fill="#A1A5A6"/>
<path d="M373.76 261.756L541.296 269.397V369.287L373.76 349.639V261.756Z" fill="#F0F1F3"/>
<path d="M504.313 409.622L404.816 394.677C404.223 394.587 403.651 394.389 403.128 394.094C402.612 393.803 402.147 393.428 401.753 392.985C401.364 392.551 401.05 392.054 400.827 391.514C400.606 390.98 400.491 390.408 400.488 389.83C400.484 389.284 400.6 388.743 400.827 388.246C401.043 387.782 401.359 387.371 401.753 387.045C402.155 386.714 402.625 386.475 403.128 386.342C403.679 386.199 404.253 386.169 404.816 386.254L504.312 400.531C505.001 400.631 505.667 400.848 506.283 401.172C506.883 401.485 507.428 401.893 507.898 402.38C508.352 402.848 508.721 403.392 508.988 403.987C509.248 404.564 509.384 405.189 509.389 405.822C509.393 406.417 509.256 407.006 508.988 407.538C508.729 408.046 508.355 408.486 507.898 408.826C507.416 409.18 506.867 409.43 506.283 409.56C505.636 409.704 504.967 409.725 504.312 409.621L504.313 409.622Z" fill="#A1A5A6"/>
<path d="M487.219 391.693L419.861 382.347C419.255 382.262 418.669 382.067 418.132 381.773C417.604 381.485 417.128 381.11 416.724 380.665C416.325 380.23 416.005 379.73 415.776 379.187C415.549 378.648 415.431 378.07 415.428 377.485C415.424 376.931 415.543 376.382 415.775 375.879C415.996 375.405 416.32 374.987 416.723 374.654C417.135 374.315 417.616 374.068 418.131 373.929C418.695 373.779 419.283 373.743 419.861 373.823L487.219 382.716C487.889 382.806 488.539 383.011 489.14 383.323C489.725 383.625 490.257 384.021 490.714 384.496C491.157 384.953 491.517 385.486 491.777 386.068C492.03 386.636 492.163 387.251 492.167 387.873C492.171 388.463 492.037 389.045 491.777 389.573C491.525 390.077 491.161 390.516 490.714 390.858C490.247 391.214 489.711 391.468 489.14 391.605C488.511 391.755 487.859 391.784 487.219 391.691V391.693Z" fill="#A1A5A6"/>
<path d="M276.435 350.394L13.0264 316.661C12.3095 316.559 11.6298 316.278 11.0501 315.844C10.4128 315.369 9.86796 314.781 9.44248 314.11C8.9664 313.366 8.60221 312.557 8.36159 311.707C8.09829 310.789 7.96474 309.838 7.96485 308.883V142.492C7.96373 141.542 8.09731 140.597 8.36159 139.684C8.60073 138.851 8.96519 138.058 9.44248 137.335C9.86689 136.683 10.4124 136.119 11.0494 135.673C11.6341 135.263 12.3151 135.013 13.0257 134.946L276.435 113.373C277.563 113.276 278.699 113.428 279.762 113.817C280.826 114.207 281.791 114.825 282.59 115.627C283.401 116.44 284.04 117.407 284.469 118.472C284.932 119.621 285.168 120.848 285.163 122.087V342.081C285.17 343.309 284.934 344.526 284.469 345.663C284.043 346.704 283.403 347.644 282.59 348.421C281.799 349.174 280.852 349.742 279.815 350.084C278.726 350.438 277.571 350.544 276.435 350.394Z" fill="white"/>
<path d="M172.283 227.7C171.576 226.781 170.78 225.934 169.905 225.174C169.074 224.45 168.167 223.816 167.202 223.283C166.271 222.77 165.285 222.363 164.263 222.072C163.258 221.786 162.222 221.622 161.178 221.582C160.145 221.544 159.112 221.631 158.1 221.841C157.092 222.052 156.112 222.381 155.181 222.821C154.229 223.27 153.331 223.825 152.503 224.474C151.64 225.15 150.85 225.915 150.147 226.757L79.2702 311.48C78.4516 312.484 77.4028 313.276 76.213 313.788C75.123 314.243 73.9339 314.41 72.7605 314.272C71.5348 314.119 70.3611 313.684 69.3317 313.001C68.151 312.216 67.133 311.21 66.3336 310.039L56.9448 296.538C55.8648 294.938 54.48 293.566 52.8695 292.501C51.4932 291.594 49.9192 291.031 48.28 290.859C46.7237 290.71 45.1556 290.975 43.7348 291.627C42.1791 292.362 40.822 293.459 39.777 294.826L22.791 316.368L260.241 346.354V342.142L172.283 227.7Z" fill="#F1360B"/>
<path d="M276.434 353.575L13.0263 319.103C12.0658 318.963 11.1557 318.584 10.3799 318.001C9.52735 317.362 8.79873 316.573 8.22998 315.672C7.59407 314.676 7.10768 313.592 6.78634 312.455C6.43469 311.227 6.25612 309.956 6.25586 308.678V142.618C6.25496 141.348 6.43357 140.085 6.78634 138.865C7.10527 137.748 7.59204 136.686 8.22998 135.715C8.79756 134.841 9.52707 134.085 10.3792 133.485C11.1617 132.935 12.0735 132.597 13.0256 132.505L276.433 110.187C277.947 110.053 279.472 110.252 280.9 110.772C282.328 111.291 283.625 112.118 284.699 113.193C285.791 114.282 286.651 115.58 287.23 117.009C287.852 118.553 288.17 120.202 288.163 121.866V342.44C288.172 344.09 287.855 345.726 287.23 347.254C286.655 348.651 285.793 349.911 284.699 350.953C283.636 351.962 282.361 352.721 280.968 353.176C279.505 353.646 277.956 353.783 276.433 353.576L276.434 353.575ZM13.0263 137.388C12.5575 137.431 12.1079 137.595 11.7216 137.864C11.3005 138.158 10.9399 138.529 10.6592 138.959C10.3433 139.437 10.1022 139.96 9.94403 140.511C9.76907 141.114 9.68049 141.738 9.68099 142.365V309.083C9.6811 309.714 9.76966 310.342 9.94403 310.949C10.1032 311.51 10.3442 312.045 10.6592 312.536C10.9402 312.981 11.3009 313.37 11.7231 313.685C12.1061 313.97 12.5548 314.155 13.0278 314.221L276.436 347.207C277.184 347.305 277.945 347.233 278.663 346.998C279.345 346.771 279.969 346.396 280.489 345.899C281.023 345.386 281.444 344.766 281.724 344.081C282.029 343.332 282.183 342.531 282.179 341.722V122.307C282.182 121.493 282.027 120.685 281.724 119.929C281.442 119.227 281.022 118.59 280.489 118.054C279.963 117.524 279.328 117.115 278.628 116.857C277.928 116.598 277.179 116.496 276.436 116.558L13.0263 137.388Z" fill="#F0F1F3"/>
<path d="M61.0916 496.669L57.4474 526.224L50.4697 526.225L50.4688 496.67L61.0916 496.669Z" fill="white" stroke="#A1A5A6"/>
<path d="M47.9512 524.138L63.5481 524.138H63.5487C66.1848 524.138 68.7128 525.185 70.5768 527.05C72.4408 528.914 73.4881 531.443 73.4883 534.08V534.403L47.9517 534.404L47.9512 524.138Z" fill="#293541"/>
<path d="M134.09 507.123L130.445 536.679L123.468 536.68L123.467 507.124L134.09 507.123Z" fill="white" stroke="#A1A5A6"/>
<path d="M120.947 534.593L136.544 534.592H136.545C139.181 534.592 141.709 535.64 143.573 537.504C145.437 539.369 146.484 541.897 146.484 544.534V544.857L120.948 544.858L120.947 534.593Z" fill="#293541"/>
<path d="M76.3514 294.123L112.983 292.227L117.992 324.167L70.0925 324.797L76.3514 294.123Z" fill="white" stroke="#A1A5A6"/>
<path d="M117.149 316.613L132.786 358.259L134.724 530.849H121.481L89.8276 392.182L60.7578 516.774H47.8379L56.8818 375.382C56.8818 375.382 54.2148 344.905 67.8637 326.921L71.186 317.32L117.149 316.613Z" fill="#293541"/>
<path d="M49.9445 348.596L49.9414 348.597C47.7619 349.206 45.4347 348.995 43.4007 348.002C41.3667 347.01 39.7672 345.306 38.9055 343.213C38.0437 341.12 37.9795 338.783 38.725 336.646C39.4705 334.508 40.9739 332.719 42.9503 331.616L43.1306 331.516L43.1874 331.317L62.1631 264.997L76.5311 267.846L55.8074 335.427L55.7506 335.612L55.8336 335.788C56.4092 337.002 56.7115 338.328 56.7192 339.672C56.727 341.017 56.44 342.346 55.8785 343.567C55.317 344.788 54.4947 345.871 53.4695 346.74C52.4442 347.609 51.241 348.243 49.9445 348.596ZM43.1814 348.452C45.3255 349.498 47.7786 349.721 50.076 349.078L42.7067 331.18C40.6234 332.342 39.0387 334.228 38.2529 336.481C37.467 338.734 37.5347 341.197 38.4431 343.403C39.3515 345.609 41.0374 347.406 43.1814 348.452Z" fill="white" stroke="#A1A5A6"/>
<path d="M77.6214 309.905C77.3348 309.905 77.0489 309.877 76.7677 309.821C75.8224 309.632 74.965 309.138 74.3264 308.416C73.6879 307.694 73.3033 306.782 73.2314 305.82C72.7457 299.17 70.3395 287.593 66.0794 271.411C64.6413 265.912 64.9599 260.1 66.9903 254.79C69.0208 249.481 72.6615 244.94 77.4019 241.804C82.1424 238.669 87.745 237.095 93.4244 237.305C99.1037 237.515 104.575 239.497 109.072 242.974C111.951 245.18 114.353 247.945 116.135 251.105C117.917 254.264 119.042 257.752 119.441 261.357C121.558 280.007 117.566 298.732 115.752 305.917C115.514 306.855 114.974 307.689 114.217 308.291C113.459 308.893 112.526 309.23 111.558 309.251L77.7155 309.904C77.684 309.905 77.6528 309.905 77.6214 309.905Z" fill="#A1A5A6"/>
<path d="M172.157 251.616C172.28 251.159 172.438 250.713 172.631 250.281C173.384 248.623 174.623 247.233 176.184 246.297C177.746 245.36 179.557 244.921 181.375 245.038C183.192 245.155 184.931 245.823 186.36 246.953C187.789 248.083 188.84 249.622 189.374 251.364C189.907 253.106 189.898 254.969 189.347 256.706C188.796 258.443 187.729 259.97 186.289 261.086C184.849 262.202 183.103 262.852 181.284 262.951C179.466 263.05 177.66 262.593 176.107 261.64L175.868 261.493L175.618 261.621L130.289 284.781C128.994 285.442 127.52 285.666 126.088 285.418C124.656 285.17 123.342 284.464 122.345 283.406L109.439 269.711L121.129 259.398L128.984 266.262L129.201 266.451L129.474 266.359L171.835 251.96L172.088 251.874L172.157 251.616Z" fill="white" stroke="#A1A5A6"/>
<path d="M127.836 266.672L112.394 280.163C111.954 280.547 111.437 280.832 110.878 280.998C110.319 281.164 109.73 281.207 109.153 281.125C108.575 281.043 108.022 280.838 107.531 280.523C107.04 280.208 106.623 279.79 106.307 279.299L95.2616 262.095C93.3113 259.835 92.3364 256.894 92.5506 253.916C92.7648 250.939 94.1506 248.167 96.4042 246.21C98.6579 244.253 101.595 243.269 104.573 243.475C107.55 243.681 110.325 245.059 112.288 247.308L127.799 260.523C128.243 260.902 128.6 261.372 128.846 261.901C129.093 262.43 129.222 263.006 129.225 263.589C129.229 264.173 129.107 264.75 128.867 265.282C128.627 265.814 128.276 266.288 127.836 266.672Z" fill="#A1A5A6"/>
<path d="M74.7312 284.902L55.6475 277.403C55.1045 277.19 54.6138 276.862 54.209 276.442C53.8041 276.021 53.4945 275.519 53.3013 274.968C53.1081 274.418 53.0359 273.832 53.0894 273.251C53.1429 272.67 53.321 272.107 53.6116 271.601L63.7936 253.871C64.901 251.099 67.0622 248.879 69.8033 247.698C72.5445 246.517 75.6419 246.472 78.4166 247.572C81.1913 248.671 83.4168 250.827 84.6053 253.565C85.7938 256.304 85.8483 259.402 84.7568 262.18L80.1709 282.038C80.0394 282.606 79.787 283.14 79.4308 283.602C79.0746 284.064 78.623 284.444 78.1068 284.716C77.5906 284.988 77.0218 285.145 76.4393 285.177C75.8568 285.209 75.2742 285.116 74.7312 284.902Z" fill="#A1A5A6"/>
<path d="M109.136 212.343C109.136 223.534 100.066 232.607 88.8776 232.607C77.6893 232.607 68.6191 223.534 68.6191 212.343C68.6191 201.152 77.6893 192.079 88.8776 192.079C100.066 192.079 109.136 201.152 109.136 212.343Z" fill="white" stroke="#A1A5A6"/>
<path d="M106.999 201.606H74.0371V187.234C81.2719 184.359 88.3515 181.914 92.6311 187.234C96.4417 187.234 100.096 188.749 102.791 191.444C105.485 194.139 106.999 197.794 106.999 201.606V201.606Z" fill="#F1360B"/>
<path d="M76.3829 237.4C91.9817 237.4 104.627 224.755 104.627 209.156C104.627 193.557 91.9817 180.912 76.3829 180.912C60.784 180.912 48.1387 193.557 48.1387 209.156C48.1387 224.755 60.784 237.4 76.3829 237.4Z" fill="#F1360B"/>
<path d="M50.5605 205.121C60.8111 205.121 69.1209 196.811 69.1209 186.56C69.1209 176.31 60.8111 168 50.5605 168C40.3098 168 32 176.31 32 186.56C32 196.811 40.3098 205.121 50.5605 205.121Z" fill="#F1360B"/>
</g>
<defs>
<clipPath id="clip0">
<rect width="572" height="575" fill="white"/>
</clipPath>
</defs>
</svg>
