<svg width="866" height="688" viewBox="0 0 866 688" fill="none" xmlns="http://www.w3.org/2000/svg">
<g clip-path="url(#clip0)">
<path d="M91.2935 64.2244H548.619C551.071 64.2244 553.059 66.2192 553.059 68.6799V683.544C553.059 686.005 551.071 688 548.619 688H91.2935C88.8413 688 86.8534 686.005 86.8534 683.544V68.6799C86.8534 66.2192 88.8413 64.2244 91.2935 64.2244Z" fill="white"/>
<path d="M91.2935 688H548.619C549.796 687.998 550.924 687.529 551.757 686.693C552.589 685.858 553.057 684.726 553.059 683.544V68.6798C553.057 67.4985 552.589 66.366 551.757 65.5307C550.924 64.6954 549.796 64.2256 548.619 64.2242H91.2935C90.1163 64.2256 88.9878 64.6954 88.1554 65.5307C87.323 66.366 86.8548 67.4985 86.8534 68.6798V683.544C86.8548 684.726 87.323 685.858 88.1554 686.693C88.9878 687.529 90.1163 687.998 91.2935 688V688ZM548.619 66.452C549.207 66.4526 549.771 66.6876 550.188 67.1052C550.604 67.5229 550.838 68.0891 550.839 68.6798V683.544C550.838 684.135 550.604 684.701 550.188 685.119C549.771 685.536 549.207 685.771 548.619 685.772H91.2935C90.7049 685.771 90.1406 685.536 89.7244 685.119C89.3082 684.701 89.0741 684.135 89.0735 683.544V68.6798C89.0741 68.0891 89.3082 67.5229 89.7244 67.1052C90.1406 66.6876 90.7049 66.4526 91.2935 66.452H548.619Z" fill="#F0F1F3"/>
<path d="M156.787 203.874H483.13C485.338 203.874 487.456 202.994 489.017 201.427C490.578 199.861 491.455 197.736 491.455 195.52C491.455 193.305 490.578 191.18 489.017 189.613C487.456 188.046 485.338 187.166 483.13 187.166H156.787C154.579 187.166 152.461 188.046 150.9 189.613C149.339 191.18 148.461 193.305 148.461 195.52C148.461 197.736 149.339 199.861 150.9 201.427C152.461 202.994 154.579 203.874 156.787 203.874Z" fill="#F0F1F3"/>
<path d="M156.787 257.898H483.13C485.338 257.898 487.456 257.018 489.017 255.451C490.578 253.884 491.455 251.759 491.455 249.544C491.455 247.328 490.578 245.203 489.017 243.636C487.456 242.07 485.338 241.189 483.13 241.189H156.787C154.579 241.189 152.461 242.07 150.9 243.636C149.339 245.203 148.461 247.328 148.461 249.544C148.461 251.759 149.339 253.884 150.9 255.451C152.461 257.018 154.579 257.898 156.787 257.898Z" fill="#F0F1F3"/>
<path d="M156.787 311.921H483.13C485.338 311.921 487.456 311.041 489.017 309.474C490.578 307.908 491.455 305.783 491.455 303.567C491.455 301.351 490.578 299.226 489.017 297.66C487.456 296.093 485.338 295.213 483.13 295.213H156.787C154.579 295.213 152.461 296.093 150.9 297.66C149.339 299.226 148.461 301.351 148.461 303.567C148.461 305.783 149.339 307.908 150.9 309.474C152.461 311.041 154.579 311.921 156.787 311.921Z" fill="#F0F1F3"/>
<path d="M156.787 365.945H483.13C485.338 365.945 487.456 365.064 489.017 363.498C490.578 361.931 491.455 359.806 491.455 357.59C491.455 355.375 490.578 353.25 489.017 351.683C487.456 350.117 485.338 349.236 483.13 349.236H156.787C154.579 349.236 152.461 350.117 150.9 351.683C149.339 353.25 148.461 355.375 148.461 357.59C148.461 359.806 149.339 361.931 150.9 363.498C152.461 365.064 154.579 365.945 156.787 365.945Z" fill="#F0F1F3"/>
<path d="M156.787 419.968H483.13C485.338 419.968 487.456 419.088 489.017 417.521C490.578 415.954 491.455 413.83 491.455 411.614C491.455 409.398 490.578 407.273 489.017 405.707C487.456 404.14 485.338 403.26 483.13 403.26H156.787C154.579 403.26 152.461 404.14 150.9 405.707C149.339 407.273 148.461 409.398 148.461 411.614C148.461 413.83 149.339 415.954 150.9 417.521C152.461 419.088 154.579 419.968 156.787 419.968Z" fill="#F0F1F3"/>
<mask id="path-8-inside-1" fill="white">
<path d="M483.577 307.994C483.777 308.692 483.921 309.404 484.009 310.124L541.852 339.422L555.035 330.789L570.617 349.051L548.76 366.608C546.995 368.027 544.818 368.832 542.557 368.903C540.297 368.975 538.074 368.308 536.223 367.004L475.892 324.499C473.338 325.614 470.506 325.923 467.774 325.383C465.041 324.844 462.537 323.482 460.594 321.48C458.651 319.477 457.362 316.929 456.898 314.173C456.434 311.418 456.817 308.585 457.996 306.054C459.175 303.522 461.094 301.41 463.498 299.999C465.902 298.588 468.677 297.946 471.455 298.156C474.232 298.367 476.879 299.421 479.045 301.179C481.21 302.936 482.791 305.313 483.577 307.994L483.577 307.994Z"/>
</mask>
<path d="M483.577 307.994C483.777 308.692 483.921 309.404 484.009 310.124L541.852 339.422L555.035 330.789L570.617 349.051L548.76 366.608C546.995 368.027 544.818 368.832 542.557 368.903C540.297 368.975 538.074 368.308 536.223 367.004L475.892 324.499C473.338 325.614 470.506 325.923 467.774 325.383C465.041 324.844 462.537 323.482 460.594 321.48C458.651 319.477 457.362 316.929 456.898 314.173C456.434 311.418 456.817 308.585 457.996 306.054C459.175 303.522 461.094 301.41 463.498 299.999C465.902 298.588 468.677 297.946 471.455 298.156C474.232 298.367 476.879 299.421 479.045 301.179C481.21 302.936 482.791 305.313 483.577 307.994L483.577 307.994Z" fill="white"/>
<path d="M483.577 307.994L482.616 308.269L482.388 307.472L483.129 307.1L483.577 307.994ZM484.009 310.124L483.557 311.016L483.081 310.775L483.016 310.245L484.009 310.124ZM541.852 339.422L542.4 340.258L541.916 340.575L541.4 340.314L541.852 339.422ZM555.035 330.789L554.487 329.953L555.224 329.47L555.795 330.14L555.035 330.789ZM570.617 349.051L571.378 348.402L572.047 349.185L571.243 349.83L570.617 349.051ZM548.76 366.608L549.387 367.388L549.387 367.388L548.76 366.608ZM536.223 367.004L535.647 367.822L535.647 367.822L536.223 367.004ZM475.892 324.499L475.492 323.583L476.008 323.358L476.468 323.682L475.892 324.499ZM483.577 307.994L484.537 307.713L484.772 308.514L484.026 308.888L483.577 307.994ZM484.539 307.719C484.753 308.467 484.907 309.23 485.002 310.003L483.016 310.245C482.935 309.577 482.801 308.916 482.616 308.269L484.539 307.719ZM484.461 309.232L542.304 338.53L541.4 340.314L483.557 311.016L484.461 309.232ZM541.304 338.585L554.487 329.953L555.582 331.626L542.4 340.258L541.304 338.585ZM555.795 330.14L571.378 348.402L569.856 349.7L554.274 331.439L555.795 330.14ZM571.243 349.83L549.387 367.388L548.134 365.829L569.991 348.271L571.243 349.83ZM549.387 367.388C547.452 368.942 545.067 369.825 542.589 369.903L542.526 367.904C544.569 367.839 546.537 367.111 548.134 365.829L549.387 367.388ZM542.589 369.903C540.111 369.981 537.675 369.251 535.647 367.822L536.799 366.187C538.473 367.366 540.482 367.968 542.526 367.904L542.589 369.903ZM535.647 367.822L475.316 325.317L476.468 323.682L536.799 366.187L535.647 367.822ZM476.292 325.416C473.551 326.612 470.513 326.943 467.58 326.364L467.967 324.402C470.5 324.902 473.125 324.616 475.492 323.583L476.292 325.416ZM467.58 326.364C464.648 325.785 461.961 324.324 459.876 322.176L461.312 320.784C463.113 322.64 465.435 323.902 467.967 324.402L467.58 326.364ZM459.876 322.176C457.792 320.028 456.41 317.295 455.912 314.339L457.884 314.007C458.315 316.563 459.51 318.927 461.312 320.784L459.876 322.176ZM455.912 314.339C455.414 311.384 455.825 308.347 457.089 305.631L458.902 306.476C457.809 308.824 457.454 311.451 457.884 314.007L455.912 314.339ZM457.089 305.631C458.354 302.916 460.412 300.65 462.992 299.137L464.004 300.862C461.775 302.169 459.996 304.127 458.902 306.476L457.089 305.631ZM462.992 299.137C465.572 297.623 468.55 296.933 471.53 297.159L471.379 299.153C468.805 298.958 466.233 299.554 464.004 300.862L462.992 299.137ZM471.53 297.159C474.511 297.385 477.351 298.517 479.675 300.402L478.414 301.955C476.407 300.326 473.953 299.349 471.379 299.153L471.53 297.159ZM479.675 300.402C481.998 302.287 483.694 304.838 484.537 307.713L482.618 308.276C481.888 305.789 480.422 303.584 478.414 301.955L479.675 300.402ZM484.026 308.888L484.026 308.888L483.129 307.1L483.129 307.1L484.026 308.888Z" fill="#A1A5A6" mask="url(#path-8-inside-1)"/>
<path d="M543.747 340.528L562.922 363.28C563.468 363.927 564.146 364.449 564.911 364.809C565.675 365.17 566.508 365.361 567.353 365.369C568.198 365.378 569.035 365.203 569.806 364.858C570.578 364.513 571.266 364.004 571.824 363.368L591.382 341.067C594.669 338.248 596.706 334.236 597.048 329.91C597.391 325.585 596.009 321.301 593.208 317.996C590.406 314.692 586.413 312.637 582.103 312.283C577.794 311.929 573.521 313.305 570.221 316.108L545.138 331.704C544.42 332.151 543.806 332.748 543.339 333.454C542.871 334.16 542.561 334.959 542.429 335.797C542.297 336.634 542.346 337.49 542.574 338.307C542.801 339.123 543.201 339.881 543.747 340.528L543.747 340.528Z" fill="#F1360B"/>
<path d="M596.43 621.859L602.781 673.532H615.447L615.449 621.859H596.43Z" fill="white" stroke="#A1A5A6"/>
<path d="M619.42 669.573L592.62 669.572H592.619C588.089 669.573 583.745 671.378 580.542 674.592C577.339 677.806 575.54 682.165 575.539 686.711V687.268L619.419 687.269L619.42 669.573Z" fill="#2F2E41"/>
<path d="M614.79 539.874L618.393 527.686L569.029 512.992L563.619 531.293L614.79 539.874Z" fill="white" stroke="#A1A5A6"/>
<path d="M615.742 522.741L608.121 548.524L608.121 548.525C606.833 552.883 607.323 557.576 609.483 561.571C611.643 565.566 615.296 568.537 619.639 569.83L620.171 569.988L632.648 527.773L615.742 522.741Z" fill="#2F2E41"/>
<path d="M153.985 541.445H370.492C373.543 541.445 376.016 537.704 376.016 533.091C376.016 528.477 373.543 524.737 370.492 524.737H153.985C150.935 524.737 148.462 528.477 148.462 533.091C148.462 537.704 150.935 541.445 153.985 541.445Z" fill="#F0F1F3"/>
<path d="M153.985 589.342H370.492C373.543 589.342 376.016 585.601 376.016 580.988C376.016 576.374 373.543 572.634 370.492 572.634H153.985C150.935 572.634 148.462 576.374 148.462 580.988C148.462 585.601 150.935 589.342 153.985 589.342Z" fill="#F0F1F3"/>
<path d="M113.521 59.9861C114.641 59.9861 115.715 60.4327 116.507 61.2275C117.299 62.0223 117.744 63.1004 117.744 64.2244C117.744 65.3485 117.299 66.4266 116.507 67.2214C115.715 68.0162 114.641 68.4628 113.521 68.4628H91.0761V90.9844C91.0735 92.1067 90.6274 93.1821 89.8357 93.9747C89.044 94.7673 87.9714 95.2125 86.853 95.2125C85.7347 95.2125 84.662 94.7673 83.8703 93.9747C83.0786 93.1821 82.6325 92.1067 82.63 90.9844V68.4628H60.1854C59.0653 68.4628 57.991 68.0162 57.199 67.2214C56.4069 66.4266 55.9619 65.3485 55.9619 64.2244C55.9619 63.1004 56.4069 62.0223 57.199 61.2275C57.991 60.4327 59.0653 59.9861 60.1854 59.9861H82.63V37.4634C82.63 36.3394 83.0749 35.2615 83.8669 34.4668C84.6589 33.6721 85.733 33.2256 86.853 33.2256C87.9731 33.2256 89.0472 33.6721 89.8392 34.4668C90.6311 35.2615 91.0761 36.3394 91.0761 37.4634V59.9861H113.521Z" fill="#A1A5A6"/>
<path d="M478.427 500.411C480.391 503.696 483.164 506.42 486.479 508.32C489.794 510.22 493.54 511.233 497.357 511.262L579.147 537.537L582.887 515.771L533.361 488.805L581.344 454.126L546.19 412.846L482.34 472.564C478.608 476.055 476.184 480.724 475.472 485.793C474.76 490.862 475.803 496.022 478.427 500.411V500.411Z" fill="#293541"/>
<path d="M597.05 649.27H617.245C635.377 524.55 653.833 399.482 599.294 352.799L534.97 363.307L543.197 418.098L579.098 459.378L597.05 649.27Z" fill="#293541"/>
<path d="M538.904 385.904C566.128 404.521 601.296 400.143 615.975 372.404C594.884 336.76 590.444 311.141 607.422 299.444C610.142 289.71 609.127 279.305 604.576 270.284C600.026 261.264 592.27 254.283 582.841 250.721L550.679 264.231C523.373 286.569 517.995 310.765 528.24 336.285L538.904 385.904Z" fill="#A1A5A6"/>
<path d="M-6.10352e-05 685.772H898V688H-6.10352e-05V685.772Z" fill="#CACACA"/>
<path d="M727.789 634.977C723.659 636.434 719.225 636.799 714.914 636.037C710.603 635.275 706.56 633.411 703.175 630.626C694.553 623.365 691.852 611.401 689.651 600.328L683.147 567.564L696.764 576.971C706.558 583.739 716.574 590.723 723.355 600.525C730.136 610.328 733.096 623.709 727.647 634.315" fill="#F0F1F3"/>
<path d="M725.685 676.922C727.403 664.39 729.163 651.698 727.958 639.03C726.89 627.78 723.47 616.794 716.507 607.784C712.812 603.011 708.314 598.922 703.218 595.7C701.886 594.858 700.665 596.972 701.99 597.81C710.807 603.402 717.627 611.66 721.467 621.393C725.707 632.216 726.389 644.015 725.657 655.513C725.213 662.466 724.279 669.374 723.335 676.273C723.261 676.585 723.307 676.913 723.465 677.192C723.623 677.471 723.88 677.68 724.185 677.775C724.497 677.861 724.829 677.819 725.109 677.659C725.39 677.499 725.596 677.234 725.683 676.922H725.685Z" fill="#F0F1F3"/>
<path d="M834.926 658.202C832.822 660.696 830.115 662.603 827.063 663.741C824.012 664.88 820.72 665.21 817.504 664.701C809.252 663.296 803.034 656.642 797.472 650.366L781.016 631.803L793.28 632.7C802.099 633.345 811.143 634.045 819.167 637.775C827.191 641.504 834.105 648.97 834.585 657.831" fill="#F0F1F3"/>
<path d="M849.045 684.089C846.153 677.105 843.237 670.023 838.8 663.856C834.995 658.267 829.681 653.882 823.482 651.214C820.138 649.874 816.586 649.13 812.987 649.014C812.048 648.983 812.054 650.444 812.987 650.476C819.22 650.684 825.227 652.874 830.14 656.729C835.589 661.025 839.495 666.903 842.583 673.055C844.45 676.775 846.049 680.623 847.641 684.467C847.696 684.65 847.819 684.805 847.983 684.9C848.148 684.996 848.343 685.026 848.529 684.984C848.715 684.933 848.873 684.81 848.97 684.643C849.066 684.475 849.093 684.276 849.045 684.089V684.089Z" fill="#F0F1F3"/>
<path d="M713.35 656.815C711.578 659.516 709.144 661.714 706.28 663.197C703.416 664.679 700.221 665.397 697 665.28C688.724 664.886 681.824 659.089 675.614 653.584L657.243 637.308L669.401 636.725C678.144 636.305 687.113 635.912 695.442 638.618C703.77 641.324 711.45 647.836 712.973 656.486" fill="#F0F1F3"/>
<path d="M730.531 684.127C722.279 669.474 712.707 653.189 695.604 647.984C690.848 646.541 685.862 646.024 680.913 646.461C679.353 646.596 679.743 649.009 681.299 648.874C689.594 648.183 697.874 650.381 704.744 655.098C711.354 659.614 716.501 665.89 720.858 672.548C723.522 676.626 725.916 680.877 728.307 685.122C729.071 686.478 731.304 685.499 730.531 684.127Z" fill="#F0F1F3"/>
<path d="M21.5116 661.29C24.6985 662.414 28.1202 662.696 31.447 662.108C34.7739 661.52 37.8938 660.082 40.5062 657.933C47.1596 652.329 49.2453 643.097 50.9403 634.549L55.9609 609.264L45.4501 616.526C37.892 621.749 30.163 627.138 24.9304 634.703C19.6978 642.267 17.4123 652.594 21.6171 660.779" fill="#F0F1F3"/>
<path d="M24.4123 685.29C23.4877 678.532 22.5375 671.687 23.1858 664.858C23.6073 658.767 25.7492 652.923 29.3608 648.009C31.3538 645.435 33.7789 643.23 36.5271 641.493C37.2441 641.039 37.9035 642.179 37.193 642.63C32.4381 645.646 28.7603 650.099 26.6901 655.347C24.4035 661.184 24.036 667.546 24.4301 673.745C24.6687 677.495 25.1738 681.22 25.6822 684.939C25.7221 685.107 25.697 685.284 25.6119 685.434C25.5268 685.585 25.3881 685.697 25.2238 685.749C25.0559 685.793 24.8775 685.769 24.7266 685.683C24.5756 685.598 24.4641 685.456 24.4157 685.289L24.4123 685.29Z" fill="#F0F1F3"/>
<path d="M631.595 391.33L631.682 391.529L631.597 391.728C630.939 393.269 630.626 394.936 630.68 396.612C630.733 398.288 631.153 399.931 631.908 401.427C632.663 402.922 633.735 404.233 635.049 405.267C636.323 406.27 637.794 406.988 639.364 407.377L639.514 407.413L639.518 407.414C642.253 408.07 645.133 407.696 647.612 406.364C650.091 405.032 651.998 402.833 652.97 400.183C653.942 397.534 653.912 394.619 652.885 391.99C651.859 389.362 649.907 387.203 647.401 385.923L647.223 385.832L647.157 385.644L612.006 286.111L587.875 292.21L631.595 391.33Z" fill="white" stroke="#A1A5A6"/>
<path d="M593.129 309.694L617.586 298.206C618.282 297.879 618.899 297.406 619.396 296.818C619.894 296.23 620.258 295.541 620.466 294.799C620.674 294.057 620.721 293.278 620.602 292.517C620.483 291.755 620.202 291.028 619.778 290.385L604.914 267.859C603.226 264.298 600.2 261.554 596.499 260.228C592.798 258.902 588.725 259.102 585.171 260.784C581.617 262.466 578.872 265.494 577.538 269.203C576.204 272.912 576.39 277 578.054 280.572L585.74 306.373C585.96 307.112 586.336 307.794 586.843 308.374C587.35 308.953 587.975 309.416 588.676 309.732C589.378 310.047 590.138 310.207 590.907 310.2C591.675 310.194 592.433 310.021 593.129 309.694H593.129Z" fill="#A1A5A6"/>
<path d="M538.878 243.383H603.259C604.583 243.382 605.853 242.853 606.789 241.913C607.726 240.974 608.252 239.699 608.254 238.371V210.523C608.254 200.627 604.336 191.136 597.363 184.138C590.389 177.14 580.931 173.208 571.068 173.208C561.206 173.208 551.748 177.14 544.774 184.138C537.801 191.136 533.883 200.627 533.883 210.523V238.371C533.885 239.699 534.411 240.974 535.348 241.913C536.284 242.853 537.554 243.382 538.878 243.383V243.383Z" fill="#F1360B"/>
<path d="M535.128 215.602C535.128 230.437 547.112 242.46 561.891 242.46C576.67 242.46 588.654 230.437 588.654 215.602C588.654 200.767 576.67 188.744 561.891 188.744C547.112 188.744 535.128 200.767 535.128 215.602Z" fill="white" stroke="#A1A5A6"/>
<path d="M555.013 185.146C555.394 185.303 555.697 185.527 555.889 185.791L594.126 184.905C594.466 184.905 594.802 184.952 595.111 185.044C595.421 185.135 595.696 185.268 595.919 185.435C596.142 185.601 596.306 185.797 596.402 186.008C596.498 186.219 596.522 186.441 596.474 186.659L593.713 199.103C593.659 199.357 593.507 199.597 593.273 199.803C593.039 200.009 599.751 201.056 599.394 201.165C594.126 213.155 558.242 199.92 544.152 195.662C543.779 195.547 543.457 195.372 543.22 195.153C542.982 194.933 542.836 194.678 542.797 194.411L546.705 186.587C546.674 186.374 546.711 186.159 546.816 185.956C546.92 185.753 547.089 185.566 547.311 185.408C547.533 185.249 547.804 185.123 548.107 185.036C548.409 184.95 548.736 184.905 549.067 184.905H553.74C554.191 184.906 554.633 184.989 555.013 185.146Z" fill="#F1360B"/>
</g>
<defs>
<clipPath id="clip0">
<rect width="898" height="688" fill="white" transform="matrix(-1 0 0 1 898 0)"/>
</clipPath>
</defs>
</svg>
