<svg width="628" height="457" viewBox="0 0 628 457" fill="none" xmlns="http://www.w3.org/2000/svg">
<path d="M400.193 342.599V452.763H125.275C93.9516 452.763 68.4668 428.052 68.4668 397.681C68.4668 367.309 93.9516 342.599 125.275 342.599H400.193Z" fill="white"/>
<path d="M406.946 451.916C406.945 453.039 406.5 454.117 405.709 454.911C404.918 455.706 403.844 456.152 402.725 456.153H120.378C105.044 456.153 90.337 450.037 79.4937 439.151C68.6503 428.265 62.5586 413.5 62.5586 398.105C62.5586 382.709 68.6503 367.945 79.4937 357.058C90.337 346.172 105.044 340.057 120.378 340.057H402.725C403.845 340.057 404.918 340.503 405.71 341.298C406.501 342.092 406.946 343.17 406.946 344.294C406.946 345.417 406.501 346.495 405.71 347.29C404.918 348.084 403.845 348.531 402.725 348.531H120.378C107.282 348.531 94.7226 353.754 85.4622 363.051C76.2019 372.347 70.9995 384.957 70.9995 398.105C70.9995 411.252 76.2019 423.862 85.4622 433.159C94.7226 442.455 107.282 447.678 120.378 447.678H402.725C403.844 447.679 404.918 448.125 405.709 448.92C406.5 449.714 406.945 450.792 406.946 451.916Z" fill="#F1360B"/>
<path d="M400.192 368.021H104.762C104.538 368.021 104.324 367.932 104.165 367.773C104.007 367.614 103.918 367.399 103.918 367.174C103.918 366.949 104.007 366.734 104.165 366.575C104.324 366.416 104.538 366.326 104.762 366.326H400.192C400.416 366.326 400.631 366.416 400.789 366.575C400.947 366.734 401.036 366.949 401.036 367.174C401.036 367.399 400.947 367.614 400.789 367.773C400.631 367.932 400.416 368.021 400.192 368.021Z" fill="#A1A5A6"/>
<path d="M400.192 388.359H104.762C104.538 388.359 104.324 388.27 104.165 388.111C104.007 387.952 103.918 387.737 103.918 387.512C103.918 387.287 104.007 387.072 104.165 386.913C104.324 386.754 104.538 386.664 104.762 386.664H400.192C400.416 386.664 400.631 386.754 400.789 386.913C400.947 387.072 401.036 387.287 401.036 387.512C401.036 387.737 400.947 387.952 400.789 388.111C400.631 388.27 400.416 388.359 400.192 388.359Z" fill="#A1A5A6"/>
<path d="M400.192 408.697H104.762C104.538 408.697 104.324 408.608 104.165 408.449C104.007 408.29 103.918 408.075 103.918 407.85C103.918 407.625 104.007 407.41 104.165 407.251C104.324 407.092 104.538 407.002 104.762 407.002H400.192C400.416 407.002 400.631 407.092 400.789 407.251C400.947 407.41 401.036 407.625 401.036 407.85C401.036 408.075 400.947 408.29 400.789 408.449C400.631 408.608 400.416 408.697 400.192 408.697Z" fill="#A1A5A6"/>
<path d="M400.192 429.035H104.762C104.538 429.035 104.324 428.946 104.165 428.787C104.007 428.628 103.918 428.413 103.918 428.188C103.918 427.963 104.007 427.748 104.165 427.589C104.324 427.43 104.538 427.34 104.762 427.34H400.192C400.416 427.34 400.631 427.43 400.789 427.589C400.947 427.748 401.036 427.963 401.036 428.188C401.036 428.413 400.947 428.628 400.789 428.787C400.631 428.946 400.416 429.035 400.192 429.035Z" fill="#A1A5A6"/>
<path d="M612.664 363.336L543.817 449.118L329.744 275.949C305.353 256.218 300.951 220.924 319.932 197.274C338.913 173.624 374.2 170.436 398.591 190.166L612.664 363.336Z" fill="white"/>
<path d="M549.604 452.712C548.902 453.587 547.882 454.145 546.769 454.266C545.657 454.386 544.542 454.057 543.67 453.353L323.812 275.504C311.871 265.844 304.242 251.818 302.601 236.511C300.961 221.204 305.445 205.87 315.066 193.882C324.688 181.894 338.659 174.234 353.905 172.588C369.152 170.941 384.426 175.443 396.367 185.102L616.225 362.951C616.657 363.3 617.016 363.731 617.282 364.22C617.548 364.708 617.715 365.244 617.775 365.798C617.834 366.351 617.785 366.911 617.629 367.445C617.472 367.979 617.213 368.477 616.865 368.911C616.517 369.344 616.088 369.704 615.601 369.971C615.114 370.238 614.58 370.406 614.029 370.465C613.478 370.524 612.92 370.474 612.388 370.317C611.856 370.16 611.36 369.899 610.929 369.55L391.071 191.701C386.022 187.613 380.22 184.564 373.997 182.728C367.774 180.892 361.252 180.305 354.803 181C348.354 181.695 342.104 183.659 336.411 186.78C330.718 189.9 325.694 194.116 321.624 199.187C317.554 204.257 314.52 210.083 312.693 216.332C310.867 222.58 310.285 229.128 310.98 235.602C311.675 242.077 313.633 248.35 316.744 254.064C319.855 259.778 324.056 264.821 329.108 268.905L548.966 446.754C549.837 447.46 550.394 448.483 550.514 449.6C550.633 450.718 550.306 451.837 549.604 452.712Z" fill="#A1A5A6"/>
<path d="M596.776 383.132L366.731 197.041C366.644 196.972 366.572 196.885 366.519 196.788C366.466 196.69 366.433 196.583 366.421 196.472C366.409 196.361 366.419 196.25 366.45 196.143C366.481 196.036 366.533 195.936 366.603 195.85C366.672 195.763 366.758 195.691 366.856 195.638C366.953 195.584 367.06 195.551 367.17 195.539C367.28 195.527 367.391 195.537 367.498 195.568C367.604 195.6 367.703 195.652 367.79 195.722L597.835 381.812C597.922 381.882 597.994 381.968 598.047 382.066C598.1 382.163 598.134 382.271 598.146 382.381C598.158 382.492 598.148 382.604 598.117 382.711C598.085 382.818 598.033 382.918 597.964 383.004C597.894 383.091 597.808 383.163 597.711 383.217C597.614 383.27 597.507 383.303 597.396 383.315C597.286 383.327 597.174 383.317 597.068 383.286C596.962 383.254 596.862 383.202 596.776 383.132V383.132Z" fill="#A1A5A6"/>
<path d="M584.066 398.969L354.021 212.878C353.847 212.737 353.736 212.532 353.712 212.309C353.688 212.086 353.754 211.862 353.894 211.687C354.034 211.512 354.238 211.401 354.46 211.376C354.683 211.352 354.906 211.418 355.08 211.558L585.126 397.649C585.212 397.719 585.284 397.805 585.337 397.902C585.39 398 585.424 398.107 585.436 398.218C585.448 398.329 585.438 398.441 585.407 398.548C585.376 398.655 585.324 398.754 585.254 398.841C585.184 398.928 585.098 399 585.001 399.053C584.904 399.107 584.797 399.14 584.687 399.152C584.576 399.164 584.465 399.154 584.358 399.122C584.252 399.091 584.153 399.039 584.066 398.969Z" fill="#A1A5A6"/>
<path d="M571.356 414.805L341.311 228.715C341.136 228.574 341.025 228.369 341.001 228.146C340.977 227.922 341.042 227.698 341.183 227.523C341.323 227.348 341.527 227.237 341.75 227.213C341.973 227.188 342.195 227.254 342.37 227.395L572.415 413.486C572.502 413.556 572.573 413.642 572.627 413.739C572.68 413.837 572.713 413.944 572.725 414.055C572.737 414.166 572.727 414.277 572.696 414.384C572.664 414.491 572.613 414.591 572.543 414.677C572.474 414.764 572.388 414.836 572.29 414.889C572.193 414.943 572.086 414.976 571.976 414.988C571.866 415 571.754 414.99 571.648 414.959C571.542 414.927 571.443 414.875 571.356 414.805V414.805Z" fill="#A1A5A6"/>
<path d="M558.645 430.642L328.6 244.552C328.513 244.482 328.442 244.396 328.388 244.298C328.335 244.2 328.302 244.093 328.29 243.983C328.278 243.872 328.288 243.76 328.319 243.653C328.351 243.546 328.402 243.447 328.472 243.36C328.542 243.274 328.627 243.202 328.725 243.148C328.822 243.095 328.929 243.061 329.039 243.049C329.149 243.038 329.261 243.048 329.367 243.079C329.473 243.11 329.573 243.162 329.659 243.232L559.704 429.323C559.791 429.392 559.863 429.479 559.916 429.576C559.969 429.674 560.003 429.781 560.015 429.892C560.027 430.003 560.017 430.115 559.986 430.222C559.955 430.328 559.903 430.428 559.833 430.515C559.763 430.602 559.677 430.674 559.58 430.727C559.483 430.78 559.376 430.814 559.265 430.826C559.155 430.838 559.044 430.827 558.937 430.796C558.831 430.764 558.732 430.712 558.645 430.642Z" fill="#A1A5A6"/>
<path d="M627.156 457H0.844086C0.62022 457 0.405523 456.911 0.247226 456.752C0.0889296 456.593 0 456.377 0 456.153C0 455.928 0.0889296 455.712 0.247226 455.553C0.405523 455.394 0.62022 455.305 0.844086 455.305H627.156C627.38 455.305 627.594 455.394 627.753 455.553C627.911 455.712 628 455.928 628 456.153C628 456.377 627.911 456.593 627.753 456.752C627.594 456.911 627.38 457 627.156 457Z" fill="#A1A5A6"/>
<path d="M284.873 294.153L284.87 330.52L276.162 330.519L271.696 294.151L284.873 294.153Z" fill="white" stroke="#A1A5A6"/>
<path d="M268.827 328.251H287.437V340.015H257.109C257.109 338.47 257.412 336.94 258.001 335.513C258.59 334.086 259.453 332.789 260.541 331.696C261.629 330.604 262.921 329.738 264.343 329.146C265.764 328.555 267.288 328.251 268.827 328.251Z" fill="#293541"/>
<path d="M186.287 294.153L186.284 330.52L177.577 330.519L173.11 294.151L186.287 294.153Z" fill="white" stroke="#A1A5A6"/>
<path d="M170.241 328.251H188.851V340.015H158.523C158.523 338.47 158.827 336.94 159.415 335.513C160.004 334.086 160.867 332.789 161.955 331.696C163.043 330.604 164.335 329.738 165.757 329.146C167.179 328.555 168.702 328.251 170.241 328.251Z" fill="#293541"/>
<path d="M219.016 53.839V49.6019C219.016 42.3538 221.884 35.4025 226.989 30.2773C232.094 25.152 239.018 22.2727 246.237 22.2727H246.237C253.457 22.2727 260.381 25.152 265.486 30.2773C270.591 35.4025 273.459 42.3538 273.459 49.6019V53.839C273.459 59.0645 271.392 64.0759 267.711 67.7708C264.031 71.4657 259.039 73.5415 253.834 73.5415H238.641C236.064 73.5415 233.512 73.0319 231.131 72.0418C228.749 71.0516 226.586 69.6003 224.764 67.7708C222.941 65.9412 221.496 63.7693 220.509 61.3788C219.523 58.9884 219.016 56.4264 219.016 53.839Z" fill="#F1360B"/>
<path d="M266.469 54.186C266.469 65.4067 257.409 74.4994 246.238 74.4994C235.066 74.4994 226.006 65.4067 226.006 54.186C226.006 42.9653 235.066 33.8726 246.238 33.8726C257.409 33.8726 266.469 42.9653 266.469 54.186Z" fill="white" stroke="#A1A5A6"/>
<path d="M131.473 130.859C131.641 129.066 132.447 127.397 133.74 126.154L133.815 126.082C134.604 125.335 135.545 124.77 136.574 124.428C137.603 124.086 138.694 123.974 139.77 124.101C140.847 124.228 141.882 124.59 142.804 125.163C143.726 125.735 144.512 126.503 145.106 127.414L145.289 127.694L145.618 127.632L163.004 124.33L167.253 133.727L142.724 138.028L142.639 138.042L142.563 138.085C140.974 138.986 139.11 139.27 137.326 138.884C135.542 138.498 133.96 137.468 132.881 135.989C131.802 134.51 131.301 132.684 131.473 130.859Z" fill="white" stroke="#A1A5A6"/>
<path d="M230.074 88.1069L230.306 88.4604L201.164 107.734L151.989 123.499C151.337 123.709 150.778 124.14 150.407 124.718C150.035 125.295 149.875 125.984 149.953 126.667L151.026 135.943C151.073 136.354 151.206 136.75 151.415 137.106C151.624 137.462 151.904 137.771 152.239 138.011C152.574 138.252 152.955 138.42 153.358 138.505C153.761 138.589 154.177 138.588 154.579 138.501L200.86 128.542C203.1 128.063 205.218 127.126 207.082 125.792L239.823 102.405C241.01 101.553 241.957 100.407 242.572 99.0781C243.187 97.7495 243.449 96.2837 243.333 94.8232C243.213 93.3608 242.716 91.9549 241.89 90.7438C241.065 89.5328 239.939 88.5584 238.625 87.9164C237.311 87.2744 235.853 86.9869 234.394 87.0823C232.935 87.1777 231.527 87.6527 230.306 88.4604L230.074 88.1069Z" fill="#A1A5A6"/>
<path d="M275.893 320.416C275.152 320.416 274.428 320.199 273.807 319.793C273.187 319.387 272.698 318.808 272.4 318.127L228.162 208.385C228.059 208.147 227.885 207.947 227.665 207.811C227.445 207.675 227.188 207.609 226.93 207.624C226.672 207.639 226.424 207.732 226.221 207.892C226.017 208.052 225.867 208.271 225.791 208.519L189.699 315.356C189.547 315.854 189.295 316.314 188.959 316.71C188.623 317.106 188.209 317.428 187.744 317.658C187.279 317.887 186.772 318.019 186.255 318.044C185.737 318.07 185.22 317.989 184.735 317.806L172.632 313.25C171.975 313.005 171.399 312.582 170.967 312.027C170.535 311.473 170.265 310.81 170.187 310.111C164.742 262.492 212.222 142.297 212.703 141.089L212.836 140.754L256.118 150.366L256.208 150.464C273.476 169.377 287.67 288.663 290.34 312.384C290.44 313.24 290.245 314.106 289.789 314.837C289.334 315.568 288.643 316.121 287.832 316.406L277.149 320.199C276.746 320.342 276.321 320.416 275.893 320.416Z" fill="#293541"/>
<path d="M238.599 154.235C228.113 154.235 216.421 152.136 212.823 143.472L212.74 143.273L212.852 143.088C215.692 138.409 219.447 130.428 217.429 128.929C213.454 125.979 211.525 121.125 211.696 114.502C212.068 100.125 221.825 87.36 235.977 82.7385H235.977C239.927 81.4694 243.947 80.4303 248.016 79.6265C250.983 79.0255 254.045 79.0916 256.984 79.82C259.922 80.5485 262.663 81.9212 265.01 83.8396C267.386 85.7705 269.307 88.2059 270.635 90.9708C271.962 93.7358 272.663 96.7616 272.688 99.8308C272.836 115.195 270.48 136.595 258.412 151.286C257.847 151.968 257.06 152.427 256.19 152.584C250.384 153.638 244.499 154.19 238.599 154.235Z" fill="#A1A5A6"/>
<path d="M235.18 153.796L235.181 153.793C235.716 151.864 236.988 150.226 238.72 149.234C240.45 148.243 242.5 147.977 244.424 148.494C244.816 148.604 245.198 148.746 245.566 148.919L245.869 149.061L246.116 148.836L259.319 136.772L267.844 142.538L249.028 159.255L248.964 159.312L248.922 159.387C248.105 160.867 246.818 162.029 245.267 162.69C243.716 163.35 241.991 163.471 240.364 163.033C239.418 162.773 238.532 162.327 237.758 161.721C236.984 161.115 236.337 160.36 235.854 159.501C235.372 158.642 235.064 157.696 234.948 156.716C234.833 155.737 234.911 154.744 235.18 153.796Z" fill="white" stroke="#A1A5A6"/>
<path d="M257.136 153.816C256.26 153.816 255.411 153.512 254.734 152.956L249.412 148.59C248.969 148.226 248.613 147.766 248.371 147.244C248.13 146.723 248.009 146.153 248.018 145.578C248.027 145.003 248.165 144.437 248.423 143.924C248.68 143.41 249.05 142.961 249.504 142.611L271.823 125.426C272.088 125.221 272.262 124.92 272.306 124.587C272.351 124.255 272.264 123.919 272.063 123.651L258.287 105.367C256.687 103.249 255.884 100.632 256.021 97.9776C256.158 95.3233 257.226 92.8033 259.036 90.8637C260.942 88.7967 263.553 87.5247 266.35 87.3002C269.147 87.0756 271.926 87.9148 274.135 89.6513L274.222 89.7436L288.607 110.423C290.162 111.647 291.415 113.216 292.267 115.007C293.118 116.797 293.546 118.762 293.517 120.746C293.487 122.73 293.001 124.681 292.097 126.445C291.193 128.21 289.894 129.74 288.303 130.918L259.397 153.068C258.742 153.554 257.95 153.816 257.136 153.816Z" fill="#A1A5A6"/>
<path d="M230.191 37.7847V29.1406L246.78 22.4019L262.597 29.1406V37.7847C262.597 38.1609 262.436 38.5218 262.15 38.7878C261.865 39.0539 261.477 39.2033 261.072 39.2033C261.072 39.2033 258.484 35.9969 246.394 35.9969C234.304 35.9969 231.716 39.2033 231.716 39.2033C231.312 39.2033 230.924 39.0539 230.638 38.7878C230.352 38.5218 230.191 38.1609 230.191 37.7847Z" fill="#F1360B"/>
<path d="M245.394 23.6426C242.694 14.9663 248.365 5.02288 256.748 1.58858C265.131 -1.84572 275.16 0.554958 282.234 6.22894C289.307 11.9029 293.696 20.4015 296.021 29.1864C298.347 37.9714 298.788 47.132 299.218 56.2117C309.517 58.1111 316.524 70.3757 312.956 80.26C309.388 90.1443 296.181 95.0549 287.061 89.8886C277.941 84.7223 275.299 70.8348 281.881 62.658C284.996 58.7889 286.736 53.9872 286.825 49.0133C286.915 44.0395 285.349 39.1778 282.375 35.1983C279.402 31.2188 275.191 28.349 270.41 27.0434C265.628 25.7378 260.55 26.0711 255.978 27.9904C250.902 30.1216 244.533 24.5843 245.394 23.6426Z" fill="#F1360B"/>
<path d="M129.664 85.6593C117.332 85.578 105.155 82.9004 93.9181 77.7996C93.2492 77.5003 92.6815 77.0122 92.2841 76.3947C91.8866 75.7772 91.6766 75.057 91.6797 74.3218V43.4606C91.6808 42.4496 92.0814 41.4803 92.7935 40.7654C93.5056 40.0505 94.4711 39.6483 95.4781 39.6472H163.849C164.856 39.6484 165.822 40.0505 166.534 40.7654C167.246 41.4803 167.646 42.4496 167.647 43.4606V74.3218C167.65 75.057 167.441 75.7772 167.043 76.3947C166.646 77.0122 166.078 77.5003 165.409 77.7996C154.173 82.9005 141.995 85.578 129.664 85.6593Z" fill="#F1360B"/>
<path d="M129.654 60.658C129.147 60.6584 128.645 60.5572 128.178 60.3601L73.9605 37.3954C73.2613 37.0993 72.6665 36.5997 72.2528 35.9611C71.8391 35.3224 71.6254 34.574 71.6393 33.8123C71.6532 33.0506 71.8941 32.3105 72.3308 31.6875C72.7676 31.0645 73.3802 30.5871 74.0897 30.3169L128.308 9.66732C129.181 9.33319 130.147 9.33526 131.018 9.67311L184.51 30.3227C185.215 30.5951 185.824 31.0726 186.257 31.6941C186.691 32.3156 186.93 33.0529 186.944 33.8116C186.958 34.5703 186.746 35.3159 186.336 35.9531C185.925 36.5903 185.335 37.09 184.64 37.3884L131.148 60.3526C130.675 60.5546 130.167 60.6585 129.654 60.658Z" fill="#F1360B"/>
<path d="M98.0098 79.8995C100.807 79.8995 103.074 77.6231 103.074 74.815C103.074 72.0069 100.807 69.7305 98.0098 69.7305C95.2128 69.7305 92.9453 72.0069 92.9453 74.815C92.9453 77.6231 95.2128 79.8995 98.0098 79.8995Z" fill="white"/>
<path opacity="0.2" d="M184.825 34.1286L131.333 57.0929C130.916 57.2719 130.467 57.3648 130.014 57.3659C129.56 57.367 129.111 57.2763 128.693 57.0993L74.4757 34.1353C73.7948 33.8538 73.2268 33.3525 72.8613 32.7107C72.6223 33.1269 72.4741 33.5894 72.4267 34.0675C72.3794 34.5456 72.4338 35.0283 72.5865 35.4836C72.7392 35.9389 72.9866 36.3564 73.3123 36.7084C73.638 37.0603 74.0346 37.3387 74.4757 37.525L128.693 60.489C129.111 60.666 129.56 60.7566 130.014 60.7555C130.467 60.7544 130.916 60.6616 131.333 60.4826L184.825 37.5183C185.264 37.3303 185.658 37.0511 185.982 36.699C186.305 36.3469 186.551 35.9299 186.702 35.4755C186.853 35.0212 186.906 34.5398 186.858 34.0632C186.811 33.5867 186.663 33.1257 186.424 32.7107C186.061 33.3474 185.499 33.8458 184.825 34.1286Z" fill="#F1360B"/>
<path d="M98.4359 74.7952C98.6598 74.7952 98.8745 74.7059 99.0328 74.547C99.1911 74.3881 99.28 74.1725 99.28 73.9478V45.592L127.119 35.4102C127.343 35.4135 127.559 35.3274 127.719 35.1709C127.88 35.0143 127.972 34.8001 127.976 34.5754C127.979 34.3506 127.893 34.1337 127.737 33.9725C127.581 33.8112 127.368 33.7187 127.144 33.7153L99.3051 43.8972C99.0811 43.892 98.8584 43.9325 98.6504 44.0163C98.4424 44.1001 98.2536 44.2254 98.0952 44.3846C97.9352 44.5419 97.8083 44.7298 97.7218 44.9371C97.6353 45.1445 97.5911 45.3672 97.5918 45.592V73.9478C97.5918 74.1725 97.6807 74.388 97.839 74.547C97.9973 74.7059 98.212 74.7952 98.4359 74.7952Z" fill="white"/>
</svg>
