<svg width="572" height="417" viewBox="0 0 572 417" fill="none" xmlns="http://www.w3.org/2000/svg">
<path d="M364.506 312.612V413.134H114.104C85.5736 413.134 62.3613 390.586 62.3613 362.873C62.3613 335.16 85.5736 312.612 114.104 312.612H364.506Z" fill="white"/>
<path d="M370.658 412.36C370.658 413.386 370.252 414.369 369.532 415.094C368.811 415.819 367.833 416.226 366.814 416.227H109.644C95.6771 416.227 82.2818 410.646 72.4054 400.713C62.529 390.78 56.9805 377.307 56.9805 363.259C56.9805 349.212 62.529 335.739 72.4054 325.806C82.2818 315.873 95.6771 310.292 109.644 310.292H366.814C367.833 310.292 368.811 310.7 369.532 311.425C370.253 312.15 370.658 313.133 370.658 314.158C370.658 315.184 370.253 316.167 369.532 316.892C368.811 317.617 367.833 318.025 366.814 318.025H109.644C97.7161 318.025 86.2763 322.79 77.8417 331.274C69.4071 339.757 64.6686 351.262 64.6686 363.259C64.6686 375.256 69.4071 386.762 77.8417 395.245C86.2763 403.728 97.7161 408.494 109.644 408.494H366.814C367.833 408.495 368.811 408.902 369.532 409.627C370.252 410.352 370.658 411.335 370.658 412.36Z" fill="#F1360B"/>
<path d="M364.507 335.809H95.4212C95.2173 335.809 95.0217 335.728 94.8775 335.583C94.7334 335.438 94.6523 335.241 94.6523 335.036C94.6523 334.831 94.7334 334.634 94.8775 334.489C95.0217 334.344 95.2173 334.263 95.4212 334.263H364.507C364.711 334.263 364.907 334.344 365.051 334.489C365.195 334.634 365.276 334.831 365.276 335.036C365.276 335.241 365.195 335.438 365.051 335.583C364.907 335.728 364.711 335.809 364.507 335.809Z" fill="#A1A5A6"/>
<path d="M364.507 354.367H95.4212C95.2173 354.367 95.0217 354.286 94.8775 354.141C94.7334 353.996 94.6523 353.799 94.6523 353.594C94.6523 353.389 94.7334 353.192 94.8775 353.047C95.0217 352.902 95.2173 352.821 95.4212 352.821H364.507C364.711 352.821 364.907 352.902 365.051 353.047C365.195 353.192 365.276 353.389 365.276 353.594C365.276 353.799 365.195 353.996 365.051 354.141C364.907 354.286 364.711 354.367 364.507 354.367Z" fill="#A1A5A6"/>
<path d="M364.507 372.925H95.4212C95.2173 372.925 95.0217 372.844 94.8775 372.699C94.7334 372.554 94.6523 372.357 94.6523 372.152C94.6523 371.947 94.7334 371.75 94.8775 371.605C95.0217 371.46 95.2173 371.379 95.4212 371.379H364.507C364.711 371.379 364.907 371.46 365.051 371.605C365.195 371.75 365.276 371.947 365.276 372.152C365.276 372.357 365.195 372.554 365.051 372.699C364.907 372.844 364.711 372.925 364.507 372.925Z" fill="#A1A5A6"/>
<path d="M364.507 391.483H95.4212C95.2173 391.483 95.0217 391.401 94.8775 391.256C94.7334 391.111 94.6523 390.915 94.6523 390.71C94.6523 390.505 94.7334 390.308 94.8775 390.163C95.0217 390.018 95.2173 389.937 95.4212 389.937H364.507C364.711 389.937 364.907 390.018 365.051 390.163C365.195 390.308 365.276 390.505 365.276 390.71C365.276 390.915 365.195 391.111 365.051 391.256C364.907 391.401 364.711 391.483 364.507 391.483Z" fill="#A1A5A6"/>
<path d="M558.033 331.534L495.324 409.808L300.34 251.796C278.125 233.792 274.116 201.587 291.404 180.007C308.692 158.428 340.833 155.518 363.049 173.521L558.033 331.534Z" fill="white"/>
<path d="M500.596 413.087C499.956 413.885 499.027 414.395 498.014 414.505C497 414.615 495.985 414.315 495.191 413.672L294.938 251.39C284.062 242.576 277.113 229.777 275.619 215.81C274.125 201.843 278.209 187.851 286.972 176.912C295.736 165.974 308.461 158.984 322.348 157.482C336.235 155.979 350.147 160.087 361.023 168.901L561.276 331.183C561.669 331.502 561.996 331.895 562.239 332.34C562.481 332.786 562.633 333.275 562.687 333.78C562.742 334.285 562.696 334.796 562.554 335.284C562.412 335.771 562.176 336.225 561.859 336.621C561.542 337.016 561.151 337.345 560.708 337.589C560.264 337.832 559.778 337.985 559.276 338.039C558.773 338.093 558.266 338.048 557.781 337.904C557.297 337.761 556.845 337.523 556.452 337.204L356.199 174.922C351.6 171.192 346.316 168.41 340.648 166.734C334.98 165.059 329.039 164.523 323.165 165.158C317.291 165.792 311.599 167.584 306.414 170.431C301.228 173.279 296.652 177.126 292.945 181.753C289.238 186.379 286.474 191.695 284.811 197.397C283.147 203.098 282.617 209.073 283.25 214.981C283.883 220.889 285.667 226.613 288.5 231.827C291.333 237.041 295.16 241.642 299.762 245.368L500.014 407.651C500.808 408.295 501.315 409.229 501.424 410.248C501.533 411.268 501.235 412.289 500.596 413.087V413.087Z" fill="#A1A5A6"/>
<path d="M543.561 349.597L334.029 179.795C333.95 179.731 333.885 179.652 333.836 179.563C333.788 179.474 333.757 179.376 333.747 179.275C333.736 179.174 333.745 179.072 333.773 178.975C333.802 178.877 333.849 178.787 333.912 178.708C333.976 178.628 334.054 178.563 334.142 178.514C334.231 178.465 334.328 178.435 334.429 178.424C334.529 178.413 334.631 178.422 334.728 178.451C334.824 178.479 334.915 178.527 334.993 178.591L544.525 348.393C544.604 348.457 544.67 348.535 544.718 348.625C544.767 348.714 544.797 348.812 544.808 348.913C544.819 349.014 544.81 349.116 544.782 349.213C544.753 349.311 544.706 349.402 544.642 349.481C544.579 349.56 544.501 349.626 544.412 349.675C544.323 349.723 544.226 349.754 544.126 349.765C544.025 349.775 543.923 349.766 543.827 349.738C543.73 349.709 543.639 349.661 543.561 349.597V349.597Z" fill="#A1A5A6"/>
<path d="M531.984 364.048L322.452 194.245C322.293 194.117 322.192 193.93 322.17 193.726C322.149 193.522 322.208 193.318 322.336 193.159C322.464 192.999 322.65 192.897 322.852 192.875C323.055 192.853 323.258 192.913 323.416 193.041L532.948 362.844C533.027 362.907 533.093 362.986 533.141 363.075C533.19 363.164 533.22 363.262 533.231 363.363C533.242 363.464 533.233 363.566 533.205 363.664C533.176 363.762 533.129 363.852 533.066 363.932C533.002 364.011 532.924 364.077 532.835 364.125C532.746 364.174 532.649 364.204 532.549 364.215C532.448 364.226 532.347 364.217 532.25 364.188C532.153 364.159 532.062 364.112 531.984 364.048V364.048Z" fill="#A1A5A6"/>
<path d="M520.406 378.499L310.874 208.696C310.716 208.567 310.614 208.381 310.592 208.177C310.57 207.973 310.63 207.769 310.758 207.609C310.886 207.449 311.072 207.347 311.274 207.325C311.477 207.303 311.68 207.363 311.839 207.492L521.371 377.294C521.45 377.358 521.515 377.437 521.563 377.526C521.612 377.615 521.642 377.713 521.653 377.814C521.664 377.915 521.655 378.017 521.626 378.114C521.598 378.212 521.551 378.303 521.487 378.382C521.424 378.461 521.346 378.527 521.257 378.575C521.169 378.624 521.071 378.655 520.971 378.665C520.871 378.676 520.769 378.667 520.672 378.639C520.575 378.61 520.485 378.562 520.406 378.499V378.499Z" fill="#A1A5A6"/>
<path d="M508.83 392.949L299.298 223.147C299.22 223.083 299.154 223.004 299.106 222.915C299.057 222.826 299.027 222.728 299.016 222.627C299.005 222.526 299.014 222.424 299.043 222.327C299.071 222.229 299.119 222.139 299.182 222.06C299.245 221.98 299.323 221.915 299.412 221.866C299.501 221.817 299.598 221.787 299.698 221.776C299.799 221.765 299.9 221.774 299.997 221.803C300.094 221.831 300.184 221.879 300.263 221.943L509.795 391.745C509.874 391.809 509.939 391.887 509.988 391.977C510.036 392.066 510.067 392.164 510.078 392.265C510.089 392.366 510.08 392.468 510.051 392.565C510.023 392.663 509.975 392.754 509.912 392.833C509.849 392.912 509.77 392.978 509.682 393.027C509.593 393.075 509.496 393.106 509.395 393.117C509.295 393.127 509.193 393.118 509.096 393.09C508.999 393.061 508.909 393.013 508.83 392.949V392.949Z" fill="#A1A5A6"/>
<path d="M571.231 417H0.768817C0.564914 417 0.369362 416.919 0.225181 416.774C0.0809996 416.629 0 416.432 0 416.227C0 416.022 0.0809996 415.825 0.225181 415.68C0.369362 415.535 0.564914 415.454 0.768817 415.454H571.231C571.435 415.454 571.631 415.535 571.775 415.68C571.919 415.825 572 416.022 572 416.227C572 416.432 571.919 416.629 571.775 416.774C571.631 416.919 571.435 417 571.231 417Z" fill="#A1A5A6"/>
<path d="M259.425 268.45L259.422 301.546L251.576 301.546L247.518 268.449L259.425 268.45Z" fill="white" stroke="#A1A5A6"/>
<path d="M244.854 299.52H261.805V310.254H234.182C234.182 308.844 234.458 307.449 234.994 306.146C235.53 304.844 236.317 303.661 237.308 302.664C238.299 301.667 239.475 300.876 240.77 300.337C242.065 299.798 243.453 299.52 244.854 299.52V299.52Z" fill="#293541"/>
<path d="M169.632 268.45L169.629 301.546L161.783 301.546L157.725 268.449L169.632 268.45Z" fill="white" stroke="#A1A5A6"/>
<path d="M155.061 299.52H172.012V310.254H144.389C144.389 308.844 144.665 307.449 145.201 306.146C145.737 304.844 146.524 303.661 147.515 302.664C148.506 301.667 149.682 300.876 150.977 300.337C152.272 299.798 153.66 299.52 155.061 299.52V299.52Z" fill="#293541"/>
<path d="M199.486 49.1267V45.2604C199.486 38.6466 202.099 32.3038 206.748 27.6272C211.398 22.9505 217.705 20.3232 224.281 20.3232H224.281C230.857 20.3232 237.163 22.9505 241.813 27.6272C246.463 32.3038 249.075 38.6466 249.075 45.2604V49.1267C249.075 53.8947 247.192 58.4675 243.84 61.839C240.487 65.2105 235.941 67.1046 231.2 67.1046H217.361C215.014 67.1046 212.69 66.6396 210.521 65.7361C208.352 64.8327 206.382 63.5084 204.722 61.839C203.062 60.1696 201.745 58.1877 200.847 56.0065C199.949 53.8253 199.486 51.4876 199.486 49.1267V49.1267Z" fill="#F1360B"/>
<path d="M242.662 49.4431C242.662 59.6585 234.429 67.9348 224.279 67.9348C214.13 67.9348 205.896 59.6585 205.896 49.4431C205.896 39.2277 214.13 30.9514 224.279 30.9514C234.429 30.9514 242.662 39.2277 242.662 49.4431Z" fill="white" stroke="#A1A5A6"/>
<path d="M119.794 119.409C119.946 117.784 120.675 116.27 121.845 115.143L121.914 115.078C122.627 114.4 123.479 113.889 124.41 113.579C125.341 113.268 126.328 113.167 127.302 113.282C128.275 113.397 129.212 113.726 130.047 114.245C130.881 114.763 131.592 115.46 132.13 116.285L132.313 116.566L132.642 116.503L148.442 113.497L152.275 121.989L129.989 125.903L129.904 125.918L129.829 125.961C128.39 126.778 126.705 127.035 125.09 126.685C123.476 126.335 122.045 125.402 121.068 124.061C120.092 122.72 119.638 121.065 119.794 119.409Z" fill="white" stroke="#A1A5A6"/>
<path d="M209.559 80.3951L209.77 80.7177L183.226 98.3046L138.436 112.69C137.843 112.881 137.333 113.274 136.995 113.801C136.657 114.328 136.511 114.957 136.582 115.58L137.559 124.045C137.602 124.419 137.723 124.781 137.913 125.106C138.104 125.43 138.359 125.712 138.664 125.932C138.969 126.151 139.316 126.305 139.683 126.382C140.05 126.459 140.429 126.458 140.796 126.379L182.95 117.291C184.99 116.854 186.919 115.999 188.617 114.781L218.438 93.4421C219.519 92.6643 220.382 91.6184 220.942 90.406C221.502 89.1937 221.741 87.8561 221.635 86.5235C221.526 85.189 221.073 83.9062 220.321 82.8012C219.569 81.6962 218.544 80.807 217.347 80.2212C216.15 79.6354 214.822 79.3731 213.493 79.4602C212.165 79.5472 210.882 79.9806 209.77 80.7177L209.559 80.3951Z" fill="#A1A5A6"/>
<path d="M251.289 292.37C250.615 292.371 249.955 292.173 249.39 291.802C248.825 291.431 248.38 290.903 248.108 290.282L207.815 190.146C207.721 189.929 207.563 189.746 207.362 189.621C207.161 189.497 206.928 189.438 206.693 189.451C206.458 189.464 206.232 189.55 206.047 189.696C205.861 189.842 205.725 190.042 205.655 190.268L172.782 287.754C172.643 288.208 172.414 288.628 172.107 288.989C171.801 289.35 171.425 289.645 171.001 289.854C170.578 290.063 170.116 290.183 169.645 290.207C169.173 290.23 168.702 290.156 168.26 289.99L157.237 285.832C156.638 285.608 156.113 285.222 155.72 284.716C155.327 284.211 155.081 283.605 155.009 282.967C150.05 239.517 193.296 129.842 193.734 128.739L193.855 128.434L233.278 137.205L233.36 137.295C249.088 154.552 262.016 263.397 264.448 285.041C264.539 285.823 264.362 286.613 263.947 287.28C263.532 287.947 262.903 288.452 262.164 288.712L252.434 292.173C252.066 292.304 251.679 292.37 251.289 292.37Z" fill="#293541"/>
<path d="M217.324 140.735C207.773 140.735 197.124 138.819 193.846 130.914L193.771 130.732L193.873 130.564C196.46 126.295 199.879 119.011 198.042 117.644C194.421 114.952 192.664 110.523 192.82 104.48C193.159 91.3608 202.046 79.7134 214.936 75.4964H214.936C218.534 74.3384 222.195 73.3903 225.902 72.6568C228.604 72.1084 231.393 72.1688 234.069 72.8334C236.746 73.4981 239.242 74.7507 241.38 76.5011C243.544 78.2631 245.294 80.4853 246.503 83.0082C247.712 85.5312 248.351 88.2921 248.373 91.0927C248.508 105.112 246.362 124.639 235.371 138.044C234.855 138.666 234.139 139.086 233.346 139.228C228.058 140.19 222.698 140.694 217.324 140.735Z" fill="#A1A5A6"/>
<path d="M236.199 124.857L243.888 130.067L226.791 145.283L226.727 145.34L226.686 145.416C225.946 146.757 224.781 147.811 223.378 148.41C221.975 149.008 220.413 149.118 218.942 148.721C218.085 148.485 217.284 148.081 216.584 147.532C215.883 146.982 215.297 146.298 214.861 145.52C214.424 144.741 214.146 143.882 214.041 142.994C213.936 142.106 214.008 141.206 214.251 140.346L213.77 140.21L214.252 140.343C214.736 138.594 215.888 137.109 217.454 136.21C219.02 135.311 220.875 135.07 222.616 135.539C222.97 135.639 223.315 135.767 223.649 135.924L223.952 136.066L224.199 135.84L236.199 124.857Z" fill="white" stroke="#A1A5A6"/>
<path d="M234.205 140.353C233.408 140.353 232.635 140.076 232.018 139.568L227.171 135.584C226.767 135.252 226.443 134.832 226.223 134.356C226.003 133.881 225.893 133.361 225.901 132.836C225.909 132.311 226.035 131.795 226.269 131.326C226.504 130.858 226.841 130.448 227.255 130.129L247.583 114.448C247.824 114.261 247.982 113.986 248.023 113.683C248.064 113.38 247.984 113.072 247.801 112.828L235.254 96.1442C233.796 94.2123 233.065 91.824 233.19 89.402C233.315 86.98 234.288 84.6806 235.936 82.9107V82.9107C237.673 81.0246 240.05 79.864 242.598 79.6591C245.145 79.4542 247.676 80.2199 249.689 81.8044L249.768 81.8886L262.87 100.758C264.287 101.875 265.428 103.306 266.204 104.94C266.979 106.574 267.369 108.367 267.342 110.177C267.316 111.988 266.873 113.768 266.049 115.378C265.225 116.988 264.043 118.385 262.593 119.459L236.265 139.671C235.669 140.114 234.947 140.353 234.205 140.353Z" fill="#A1A5A6"/>
<path d="M209.666 34.4775V26.59L224.775 20.4412L239.182 26.59V34.4775C239.182 34.8209 239.036 35.1501 238.775 35.3929C238.515 35.6357 238.161 35.772 237.793 35.772C237.793 35.772 235.436 32.8462 224.424 32.8462C213.412 32.8462 211.055 35.772 211.055 35.772C210.687 35.772 210.333 35.6357 210.073 35.3929C209.812 35.1501 209.666 34.8209 209.666 34.4775Z" fill="#F1360B"/>
<path d="M223.513 21.5732C221.054 13.6564 226.219 4.58324 233.854 1.44953C241.49 -1.68417 250.625 0.506384 257.068 5.68374C263.511 10.8611 267.508 18.6158 269.626 26.6318C271.744 34.6479 272.146 43.0067 272.537 51.2917C281.918 53.0248 288.3 64.2159 285.05 73.235C281.8 82.2542 269.772 86.735 261.465 82.0209C253.157 77.3068 250.751 64.6348 256.747 57.1737C259.584 53.6433 261.168 49.2618 261.25 44.7233C261.331 40.1848 259.905 35.7487 257.197 32.1175C254.489 28.4863 250.653 25.8677 246.298 24.6764C241.943 23.4851 237.317 23.7892 233.154 25.5405C228.53 27.4851 222.729 22.4325 223.513 21.5732Z" fill="#F1360B"/>
<path d="M118.101 78.1618C106.869 78.0876 95.7772 75.6444 85.5427 70.99C84.9335 70.7169 84.4164 70.2715 84.0544 69.708C83.6924 69.1446 83.5011 68.4874 83.5039 67.8166V39.6566C83.505 38.7341 83.8698 37.8496 84.5184 37.1973C85.167 36.5449 86.0464 36.178 86.9636 36.177H149.238C150.155 36.178 151.034 36.545 151.683 37.1973C152.332 37.8496 152.696 38.7341 152.697 39.6566V67.8166C152.7 68.4875 152.509 69.1446 152.147 69.7081C151.785 70.2715 151.268 70.7169 150.659 70.99C140.424 75.6444 129.333 78.0876 118.101 78.1618V78.1618Z" fill="#F1360B"/>
<path d="M118.092 55.3487C117.63 55.3491 117.173 55.2566 116.747 55.0768L67.3648 34.1222C66.728 33.852 66.1862 33.3961 65.8094 32.8134C65.4326 32.2306 65.2379 31.5477 65.2506 30.8527C65.2632 30.1576 65.4826 29.4824 65.8805 28.9139C66.2783 28.3454 66.8362 27.9098 67.4825 27.6633L116.866 8.82105C117.661 8.51617 118.541 8.51805 119.335 8.82634L168.056 27.6685C168.699 27.9171 169.253 28.3527 169.648 28.9199C170.043 29.487 170.261 30.1597 170.274 30.852C170.286 31.5443 170.093 32.2247 169.719 32.8061C169.346 33.3875 168.808 33.8435 168.175 34.1158L119.453 55.07C119.022 55.2543 118.559 55.3491 118.092 55.3487V55.3487Z" fill="#F1360B"/>
<path d="M89.2711 72.9061C91.8187 72.9061 93.884 70.829 93.884 68.2667C93.884 65.7044 91.8187 63.6272 89.2711 63.6272C86.7235 63.6272 84.6582 65.7044 84.6582 68.2667C84.6582 70.829 86.7235 72.9061 89.2711 72.9061Z" fill="white"/>
<path opacity="0.2" d="M168.344 31.1415L119.622 52.0958C119.242 52.2591 118.833 52.3438 118.42 52.3448C118.007 52.3458 117.598 52.2631 117.217 52.1016L67.8345 31.1476C67.2143 30.8907 66.6969 30.4333 66.3641 29.8477C66.1463 30.2275 66.0114 30.6495 65.9682 31.0857C65.9251 31.5219 65.9747 31.9624 66.1137 32.3779C66.2528 32.7933 66.4782 33.1743 66.7748 33.4954C67.0715 33.8166 67.4327 34.0706 67.8345 34.2406L117.217 55.1946C117.598 55.3561 118.007 55.4388 118.42 55.4378C118.833 55.4368 119.242 55.3521 119.622 55.1887L168.344 34.2344C168.744 34.063 169.103 33.8082 169.397 33.4869C169.692 33.1656 169.915 32.7851 170.053 32.3705C170.191 31.9559 170.239 31.5167 170.196 31.0818C170.152 30.6469 170.017 30.2263 169.8 29.8477C169.47 30.4286 168.958 30.8834 168.344 31.1415V31.1415Z" fill="#F1360B"/>
<path d="M89.6575 68.2484C89.8614 68.2484 90.057 68.1669 90.2011 68.0219C90.3453 67.8769 90.4263 67.6802 90.4263 67.4752V41.6013L115.783 32.3106C115.987 32.3137 116.183 32.2352 116.33 32.0923C116.476 31.9495 116.56 31.754 116.563 31.5489C116.566 31.3438 116.488 31.146 116.346 30.9988C116.204 30.8516 116.01 30.7672 115.806 30.7642L90.4492 40.0548C90.2452 40.0501 90.0423 40.0871 89.8529 40.1635C89.6634 40.24 89.4914 40.3543 89.3472 40.4996C89.2015 40.6431 89.0858 40.8145 89.0071 41.0038C88.9283 41.193 88.8881 41.3962 88.8887 41.6013V67.4752C88.8887 67.6802 88.9697 67.8769 89.1139 68.0219C89.2581 68.1669 89.4536 68.2484 89.6575 68.2484V68.2484Z" fill="white"/>
</svg>
