<svg width="572" height="440" viewBox="0 0 572 440" fill="none" xmlns="http://www.w3.org/2000/svg">
<path d="M304.12 380.54L302.717 369.541C302.71 369.53 302.702 369.517 302.693 369.504C302.64 369.421 302.56 369.298 302.455 369.144C302.244 368.834 301.931 368.399 301.526 367.897C300.715 366.89 299.545 365.632 298.099 364.596C296.654 363.56 294.956 362.765 293.081 362.644C291.218 362.523 289.128 363.066 286.877 364.797C282.196 368.397 275.526 373.231 270.03 377.162C267.281 379.128 264.825 380.869 263.055 382.119C262.171 382.744 261.458 383.246 260.966 383.592C260.72 383.765 260.529 383.899 260.4 383.989L260.32 384.046C260.3 384.093 260.276 384.153 260.249 384.224C260.174 384.42 260.077 384.696 259.988 385.018C259.805 385.676 259.671 386.471 259.784 387.151C259.891 387.797 260.208 388.313 260.953 388.56C261.759 388.827 263.133 388.804 265.396 388.085C270.022 386.616 279.84 384.71 288.466 383.175C292.786 382.406 296.82 381.729 299.773 381.243C301.249 381.001 302.456 380.806 303.294 380.672C303.631 380.618 303.909 380.574 304.12 380.54Z" fill="white" stroke="#A1A5A6"/>
<path d="M506.651 292.159C504.331 273.17 492.769 254.46 474.978 248.281C481.995 267.826 481.993 289.267 474.974 308.811C472.24 316.339 468.429 324.421 471.001 332.007C472.601 336.728 476.515 340.339 480.89 342.598C485.266 344.856 490.122 345.932 494.917 346.987L495.86 347.781C503.473 330.285 508.971 311.148 506.651 292.159Z" fill="#F0F1F3"/>
<path d="M474.802 248.64C485.163 260.457 491.603 275.296 493.206 291.05C493.611 294.436 493.488 297.865 492.844 301.211C492.112 304.45 490.542 307.431 488.296 309.844C486.246 312.136 483.889 314.239 482.422 316.999C481.692 318.423 481.266 319.988 481.172 321.591C481.077 323.195 481.317 324.8 481.875 326.302C483.17 330.083 485.722 333.164 488.321 336.089C491.206 339.337 494.253 342.664 495.48 346.969C495.628 347.491 496.415 347.225 496.267 346.705C494.133 339.214 486.989 334.959 483.582 328.212C481.993 325.064 481.325 321.409 482.816 318.085C484.119 315.179 486.548 313.008 488.643 310.706C490.868 308.385 492.501 305.545 493.399 302.433C494.209 299.131 494.461 295.713 494.144 292.324C493.55 284.684 491.78 277.187 488.898 270.107C485.653 262.008 481.071 254.534 475.35 248.007C474.996 247.604 474.45 248.239 474.802 248.64V248.64Z" fill="white"/>
<path d="M492.984 285.947C495.544 285.314 497.8 283.775 499.349 281.606C500.898 279.437 501.638 276.777 501.439 274.103C501.397 273.562 500.569 273.604 500.611 274.145C500.801 276.635 500.111 279.112 498.665 281.129C497.219 283.146 495.112 284.571 492.724 285.146C492.206 285.271 492.468 286.071 492.984 285.947Z" fill="white"/>
<path d="M489.485 308.821C484.861 306.01 481.447 301.529 479.925 296.271C479.774 295.75 478.988 296.015 479.138 296.535C480.732 302.004 484.294 306.66 489.112 309.574C489.571 309.852 489.942 309.097 489.485 308.821V308.821Z" fill="white"/>
<path d="M484.885 262.807C483.945 263.262 482.908 263.472 481.868 263.418C480.828 263.364 479.817 263.049 478.927 262.499C478.471 262.216 478.102 262.971 478.554 263.252C479.541 263.855 480.657 264.202 481.806 264.264C482.955 264.326 484.101 264.101 485.145 263.608C485.247 263.57 485.331 263.493 485.38 263.395C485.429 263.296 485.439 263.181 485.408 263.075C485.373 262.969 485.299 262.882 485.201 262.832C485.103 262.781 484.989 262.772 484.885 262.807V262.807Z" fill="white"/>
<path d="M420.749 282.198C421.028 282.383 421.308 282.568 421.588 282.76C425.335 285.268 428.875 288.081 432.175 291.173C432.433 291.408 432.692 291.65 432.944 291.892C440.815 299.427 447.242 308.383 451.901 318.306C453.751 322.257 455.303 326.345 456.544 330.535C458.257 336.322 459.663 342.735 463.054 347.468C463.403 347.966 463.781 348.441 464.187 348.892H494.836C494.906 348.856 494.976 348.828 495.046 348.792L496.27 348.849C496.22 348.628 496.165 348.401 496.116 348.18C496.088 348.052 496.053 347.924 496.025 347.796C496.004 347.71 495.983 347.625 495.969 347.546C495.962 347.518 495.955 347.49 495.948 347.468C495.934 347.39 495.913 347.319 495.899 347.248C495.591 345.973 495.274 344.699 494.948 343.425C494.948 343.418 494.948 343.418 494.941 343.411C492.43 333.709 489.102 324.136 484.452 315.381C484.312 315.118 484.172 314.847 484.018 314.584C481.901 310.649 479.471 306.897 476.753 303.366C475.258 301.437 473.669 299.586 471.991 297.821C467.646 293.268 462.624 289.44 457.111 286.475C446.118 280.568 433.392 278.304 421.644 281.913C421.343 282.005 421.049 282.098 420.749 282.198Z" fill="#F0F1F3"/>
<path d="M420.818 282.594C436.079 285.679 449.998 293.581 460.597 305.177C462.922 307.632 464.853 310.445 466.318 313.512C467.649 316.547 468.159 319.889 467.793 323.192C467.512 326.278 466.874 329.403 467.335 332.505C467.594 334.089 468.179 335.6 469.053 336.938C469.926 338.276 471.067 339.411 472.401 340.268C475.671 342.493 479.531 343.389 483.336 344.132C487.561 344.957 491.961 345.746 495.487 348.432C495.915 348.757 496.386 348.063 495.959 347.738C489.825 343.065 481.604 344.046 474.893 340.747C471.762 339.207 469.067 336.698 468.292 333.131C467.613 330.012 468.269 326.79 468.579 323.667C468.983 320.451 468.607 317.182 467.484 314.148C466.177 311.015 464.356 308.131 462.099 305.62C457.106 299.884 451.258 294.982 444.77 291.095C437.389 286.617 429.309 283.457 420.881 281.753C420.359 281.647 420.299 282.489 420.818 282.594H420.818Z" fill="white"/>
<path d="M457.4 301.239C459.07 299.164 459.961 296.554 459.914 293.872C459.868 291.191 458.886 288.614 457.145 286.601C456.792 286.195 456.155 286.735 456.509 287.142C458.134 289.013 459.048 291.414 459.086 293.911C459.125 296.408 458.285 298.836 456.719 300.758C456.379 301.177 457.062 301.654 457.4 301.239H457.4Z" fill="white"/>
<path d="M468.136 321.646C462.782 322.236 457.406 320.75 453.08 317.484C452.652 317.16 452.181 317.854 452.608 318.178C457.116 321.567 462.714 323.102 468.284 322.476C468.815 322.416 468.664 321.586 468.136 321.646V321.646Z" fill="white"/>
<path d="M437.246 287.726C436.765 288.666 436.061 289.469 435.199 290.063C434.337 290.658 433.343 291.025 432.307 291.132C431.776 291.185 431.927 292.014 432.455 291.961C433.599 291.838 434.696 291.431 435.65 290.777C436.604 290.122 437.386 289.239 437.928 288.206C437.987 288.113 438.009 288.001 437.989 287.892C437.97 287.783 437.91 287.686 437.823 287.62C437.732 287.556 437.621 287.532 437.513 287.552C437.405 287.572 437.309 287.635 437.246 287.726V287.726Z" fill="white"/>
<path d="M259.466 418.013C258.567 410.654 254.086 403.403 247.191 401.008C249.91 408.583 249.91 416.892 247.189 424.467C246.13 427.384 244.653 430.516 245.65 433.456C246.363 435.274 247.735 436.743 249.482 437.561C251.215 438.362 253.042 438.933 254.918 439.262L255.284 439.57C258.234 432.789 260.365 425.372 259.466 418.013Z" fill="#F0F1F3"/>
<path d="M247.124 401.147C251.139 405.727 253.635 411.478 254.256 417.583C254.413 418.895 254.365 420.224 254.115 421.521C253.832 422.777 253.223 423.932 252.353 424.867C251.487 425.694 250.722 426.625 250.077 427.64C249.794 428.192 249.629 428.798 249.592 429.42C249.555 430.041 249.648 430.663 249.865 431.246C250.439 432.667 251.289 433.957 252.363 435.038C253.481 436.297 254.662 437.586 255.137 439.255C255.195 439.457 255.5 439.354 255.442 439.152C254.615 436.249 251.847 434.6 250.526 431.986C250.186 431.398 249.982 430.739 249.931 430.058C249.879 429.378 249.981 428.695 250.229 428.061C250.828 426.992 251.59 426.026 252.488 425.201C253.35 424.301 253.983 423.201 254.331 421.995C254.644 420.715 254.742 419.39 254.619 418.077C254.389 415.116 253.703 412.211 252.586 409.467C251.329 406.328 249.553 403.431 247.336 400.902C247.199 400.746 246.987 400.992 247.124 401.147H247.124Z" fill="white"/>
<path d="M254.168 415.605C255.16 415.36 256.035 414.764 256.635 413.923C257.235 413.082 257.522 412.052 257.445 411.016C257.428 410.806 257.108 410.822 257.124 411.032C257.198 411.997 256.93 412.957 256.37 413.738C255.809 414.52 254.993 415.072 254.068 415.295C253.866 415.344 253.968 415.654 254.168 415.605H254.168Z" fill="white"/>
<path d="M252.814 424.47C251.022 423.381 249.699 421.645 249.109 419.607C249.05 419.405 248.746 419.507 248.804 419.709C249.422 421.829 250.802 423.633 252.669 424.762C252.847 424.87 252.991 424.577 252.814 424.47V424.47Z" fill="white"/>
<path d="M251.031 406.638C250.666 406.814 250.264 406.895 249.861 406.875C249.458 406.854 249.067 406.731 248.722 406.518C248.545 406.409 248.402 406.701 248.577 406.81C248.96 407.044 249.392 407.178 249.837 407.202C250.283 407.226 250.727 407.139 251.131 406.948C251.171 406.933 251.204 406.904 251.222 406.865C251.241 406.827 251.245 406.783 251.233 406.742C251.22 406.701 251.191 406.667 251.153 406.647C251.115 406.628 251.071 406.624 251.031 406.638L251.031 406.638Z" fill="white"/>
<path d="M226.173 414.152C226.282 414.224 226.39 414.296 226.498 414.37C227.95 415.342 229.323 416.433 230.601 417.631C230.702 417.722 230.802 417.816 230.899 417.91C233.95 420.83 236.441 424.301 238.246 428.147C238.963 429.677 239.565 431.262 240.046 432.886C240.71 435.128 241.254 437.614 242.569 439.448C242.704 439.641 242.85 439.825 243.008 440H254.886C254.913 439.986 254.94 439.975 254.967 439.961L255.441 439.983C255.422 439.898 255.401 439.81 255.382 439.724C255.371 439.674 255.357 439.625 255.347 439.575C255.338 439.542 255.33 439.509 255.325 439.479C255.322 439.468 255.319 439.456 255.317 439.448C255.311 439.418 255.303 439.39 255.298 439.363C255.178 438.869 255.056 438.375 254.929 437.881L254.927 437.876C253.998 434.104 252.634 430.457 250.862 427.013C250.807 426.911 250.753 426.806 250.693 426.704C249.873 425.179 248.931 423.725 247.878 422.356C247.299 421.609 246.683 420.892 246.032 420.207C244.348 418.443 242.402 416.959 240.265 415.81C236.005 413.521 231.073 412.644 226.52 414.042C226.404 414.078 226.29 414.114 226.173 414.152Z" fill="#F0F1F3"/>
<path d="M226.2 414.306C232.115 415.502 237.509 418.564 241.617 423.058C242.518 424.01 243.266 425.1 243.834 426.289C244.35 427.465 244.548 428.76 244.406 430.04C244.203 431.231 244.144 432.443 244.228 433.649C244.329 434.263 244.556 434.849 244.894 435.367C245.232 435.886 245.675 436.326 246.192 436.658C247.491 437.441 248.933 437.95 250.429 438.155C252.067 438.475 253.772 438.781 255.139 439.822C255.304 439.948 255.487 439.679 255.322 439.553C252.944 437.742 249.758 438.122 247.158 436.843C246.538 436.583 245.986 436.181 245.542 435.669C245.099 435.158 244.776 434.55 244.599 433.892C244.444 432.671 244.482 431.433 244.711 430.224C244.867 428.978 244.721 427.711 244.286 426.535C243.78 425.321 243.074 424.203 242.199 423.23C240.264 421.007 237.998 419.107 235.483 417.601C232.622 415.865 229.491 414.641 226.225 413.98C226.023 413.939 225.999 414.265 226.2 414.306H226.2Z" fill="white"/>
<path d="M240.378 421.532C241.025 420.728 241.371 419.716 241.353 418.677C241.335 417.638 240.954 416.639 240.28 415.859C240.143 415.702 239.896 415.911 240.033 416.069C240.663 416.794 241.017 417.724 241.032 418.692C241.047 419.66 240.721 420.601 240.114 421.346C239.983 421.508 240.247 421.693 240.378 421.532Z" fill="white"/>
<path d="M244.539 429.441C242.464 429.669 240.38 429.094 238.704 427.828C238.538 427.702 238.355 427.971 238.521 428.097C240.268 429.41 242.437 430.005 244.596 429.762C244.802 429.739 244.744 429.418 244.539 429.441H244.539Z" fill="white"/>
<path d="M232.569 416.295C232.382 416.659 232.109 416.97 231.775 417.201C231.441 417.431 231.056 417.573 230.655 417.615C230.449 417.636 230.507 417.957 230.712 417.936C231.155 417.889 231.58 417.731 231.95 417.477C232.32 417.224 232.623 416.882 232.833 416.481C232.856 416.445 232.864 416.402 232.857 416.359C232.849 416.317 232.826 416.279 232.792 416.254C232.757 416.229 232.714 416.22 232.672 416.228C232.63 416.235 232.593 416.26 232.569 416.295V416.295Z" fill="white"/>
<path d="M55.3902 261.691C58.956 232.504 76.7265 203.746 104.073 194.248C93.2881 224.29 93.2904 257.246 104.079 287.286C108.281 298.856 114.138 311.279 110.186 322.94C107.727 330.195 101.71 335.746 94.9855 339.217C88.2602 342.688 80.7965 344.343 73.4262 345.964L71.9757 347.185C60.2754 320.292 51.8243 290.878 55.3902 261.691Z" fill="#F0F1F3"/>
<path d="M104.343 194.8C88.4179 212.963 78.52 235.772 76.0551 259.987C75.5581 265.178 75.4977 270.488 76.6125 275.605C77.7368 280.583 80.1503 285.165 83.6025 288.873C86.753 292.397 90.3765 295.63 92.6307 299.871C95.0069 304.342 95.0981 309.422 93.4715 314.171C91.4812 319.982 87.5585 324.718 83.5644 329.214C79.1296 334.205 74.4455 339.319 72.5604 345.936C72.332 346.738 71.1231 346.331 71.3512 345.53C74.631 334.016 85.6112 327.476 90.8477 317.106C93.2911 312.267 94.3167 306.649 92.026 301.541C90.0229 297.074 86.2891 293.737 83.0688 290.198C79.6875 286.481 77.0949 282.404 75.7593 277.483C74.393 272.45 74.2496 267.126 74.6141 261.945C75.5266 250.202 78.2474 238.678 82.6767 227.796C87.6642 215.347 94.7069 203.859 103.5 193.828C104.045 193.207 104.884 194.183 104.343 194.8L104.343 194.8Z" fill="white"/>
<path d="M76.398 252.142C72.4629 251.17 68.9954 248.805 66.615 245.47C64.2345 242.136 63.096 238.049 63.4028 233.938C63.4677 233.107 64.74 233.171 64.6751 234.003C64.3824 237.83 65.4433 241.637 67.6662 244.738C69.8891 247.838 73.1277 250.028 76.7974 250.911C77.5946 251.104 77.1908 252.334 76.3981 252.142H76.398Z" fill="white"/>
<path d="M81.7746 287.301C88.8819 282.981 94.1287 276.093 96.4686 268.011C96.6998 267.21 97.9088 267.617 97.6779 268.417C95.2275 276.824 89.7531 283.98 82.3473 288.459C81.6412 288.885 81.0722 287.725 81.7746 287.301V287.301Z" fill="white"/>
<path d="M88.8471 216.575C90.2927 217.275 91.8862 217.597 93.4847 217.515C95.0831 217.432 96.6363 216.947 98.0049 216.102C98.7054 215.667 99.2736 216.827 98.5777 217.26C97.0613 218.186 95.3453 218.72 93.5795 218.815C91.8137 218.91 90.0518 218.564 88.4478 217.806C88.2907 217.748 88.1615 217.631 88.0863 217.478C88.011 217.326 87.9955 217.151 88.0428 216.988C88.0965 216.825 88.2111 216.69 88.3617 216.613C88.5123 216.536 88.6867 216.522 88.8471 216.575V216.575Z" fill="white"/>
<path d="M187.428 246.38C186.998 246.664 186.568 246.949 186.138 247.244C180.379 251.099 174.937 255.424 169.866 260.176C169.468 260.537 169.07 260.909 168.683 261.281C156.586 272.862 146.706 286.628 139.545 301.881C136.702 307.953 134.316 314.236 132.408 320.676C129.775 329.571 127.615 339.428 122.402 346.704C121.866 347.469 121.285 348.2 120.661 348.892H73.5518C73.4447 348.837 73.3371 348.793 73.2296 348.739L71.3487 348.826C71.4242 348.487 71.5098 348.137 71.5854 347.798C71.6284 347.601 71.6819 347.404 71.7249 347.207C71.7569 347.076 71.7895 346.944 71.811 346.824C71.8215 346.78 71.8325 346.736 71.843 346.704C71.8645 346.583 71.8971 346.474 71.9186 346.365C72.3915 344.406 72.8786 342.448 73.3802 340.49C73.3802 340.479 73.3802 340.479 73.3907 340.468C77.2496 325.556 82.3654 310.841 89.5128 297.384C89.728 296.979 89.9426 296.564 90.1793 296.159C93.434 290.111 97.1689 284.345 101.347 278.917C103.644 275.952 106.087 273.107 108.666 270.394C115.345 263.396 123.063 257.511 131.538 252.955C148.434 243.874 167.995 240.395 186.052 245.942C186.514 246.084 186.966 246.227 187.428 246.38Z" fill="#F0F1F3"/>
<path d="M187.322 246.988C163.864 251.731 142.47 263.877 126.179 281.7C122.712 285.54 119.523 289.743 117.387 294.512C115.339 299.176 114.557 304.313 115.12 309.39C115.551 314.134 116.532 318.936 115.823 323.704C115.076 328.73 112.144 332.842 108.036 335.637C103.01 339.057 97.0769 340.434 91.2286 341.576C84.7351 342.844 77.9707 344.056 72.5513 348.184C71.8947 348.685 71.1705 347.618 71.8261 347.119C81.2551 339.936 93.8905 341.443 104.205 336.372C109.018 334.006 113.16 330.149 114.352 324.667C115.395 319.873 114.388 314.92 113.91 310.12C113.408 305.081 113.75 300.236 115.594 295.489C117.481 290.632 120.515 286.294 123.87 282.381C131.545 273.564 140.533 266.03 150.506 260.056C161.852 253.173 174.27 248.316 187.225 245.696C188.026 245.534 188.119 246.827 187.322 246.988V246.988Z" fill="white"/>
<path d="M131.093 275.647C128.526 272.459 127.156 268.446 127.228 264.324C127.299 260.203 128.808 256.242 131.484 253.148C132.027 252.524 133.006 253.355 132.461 253.98C129.964 256.856 128.559 260.546 128.5 264.384C128.441 268.221 129.732 271.954 132.14 274.909C132.662 275.551 131.612 276.286 131.093 275.647L131.093 275.647Z" fill="white"/>
<path d="M114.588 307.014C122.818 307.921 131.082 305.637 137.731 300.617C138.389 300.119 139.113 301.185 138.456 301.683C131.527 306.893 122.923 309.252 114.361 308.289C113.545 308.197 113.777 306.922 114.588 307.014V307.014Z" fill="white"/>
<path d="M162.067 254.877C162.808 256.322 163.889 257.556 165.214 258.47C166.539 259.383 168.067 259.948 169.659 260.112C170.476 260.194 170.243 261.469 169.432 261.387C167.673 261.197 165.987 260.572 164.521 259.566C163.055 258.56 161.853 257.203 161.02 255.615C160.929 255.472 160.896 255.3 160.925 255.132C160.955 254.965 161.047 254.815 161.181 254.714C161.32 254.617 161.491 254.579 161.657 254.61C161.823 254.641 161.97 254.737 162.067 254.877V254.877Z" fill="white"/>
<path d="M0.470767 349.603H571.301C571.486 349.603 571.664 349.528 571.795 349.395C571.926 349.262 572 349.08 572 348.892C572 348.703 571.926 348.522 571.795 348.388C571.664 348.255 571.486 348.18 571.301 348.18H0.699275C0.513818 348.18 0.335967 348.255 0.204829 348.388C0.0736911 348.522 8.46386e-06 348.703 8.46386e-06 348.892C8.46386e-06 349.285 0.0846112 349.603 0.470767 349.603Z" fill="#F0F1F3"/>
<path d="M371.78 412.24H497.877C498.062 412.24 498.24 412.165 498.371 412.032C498.502 411.898 498.576 411.717 498.576 411.529C498.576 411.34 498.502 411.159 498.371 411.025C498.24 410.892 498.062 410.817 497.877 410.817H372.009C371.824 410.817 371.646 410.892 371.515 411.025C371.383 411.159 371.31 411.34 371.31 411.529C371.31 411.922 371.394 412.24 371.78 412.24Z" fill="#F0F1F3"/>
<path d="M173.888 440H299.984C300.17 440 300.348 439.925 300.479 439.792C300.61 439.658 300.684 439.477 300.684 439.288C300.684 439.099 300.61 438.918 300.479 438.785C300.348 438.651 300.17 438.576 299.984 438.576H174.116C173.931 438.576 173.753 438.651 173.622 438.785C173.491 438.918 173.417 439.099 173.417 439.288C173.417 439.681 173.502 440 173.888 440Z" fill="#F0F1F3"/>
<path d="M55.0128 411.529H181.109C181.295 411.529 181.473 411.454 181.604 411.32C181.735 411.187 181.809 411.006 181.809 410.817C181.809 410.628 181.735 410.447 181.604 410.314C181.473 410.18 181.295 410.105 181.109 410.105H55.2413C55.0559 410.105 54.878 410.18 54.7469 410.314C54.6158 410.447 54.5421 410.628 54.5421 410.817C54.5421 411.21 54.6267 411.529 55.0128 411.529Z" fill="#F0F1F3"/>
<path d="M338.963 384.481C346.797 384.481 353.968 383.717 359.665 381.911C366.438 379.764 370.69 376.293 372.306 371.586C373.065 369.587 373.292 367.42 372.963 365.303C372.634 363.187 371.762 361.196 370.434 359.534C360.415 346.245 325.648 342.497 320.983 342.054L311.519 323.813C310.914 319.461 313.779 316.166 308.829 316.084L250.276 315.275C245.415 315.171 246.795 318.235 245.962 322.478L237.041 338.689L275.435 355.183L269.631 369.581L270.009 369.805C281.246 376.44 313.562 384.48 338.963 384.481Z" fill="#2F2E41"/>
<path d="M242.357 339.381C242.357 339.381 188.737 333.135 192.234 358.119C195.731 383.103 236.529 400.8 298.309 358.119L291.315 345.627C291.315 345.627 268.293 344.461 254.305 338.215L242.357 339.381Z" fill="#2F2E41"/>
<path d="M337.989 294.482L337.978 294.444L337.974 294.404L338.47 294.346C337.974 294.404 337.974 294.404 337.974 294.404L337.974 294.403L337.973 294.397L337.971 294.377L337.961 294.295L337.923 293.974C337.89 293.692 337.841 293.277 337.777 292.742C337.65 291.673 337.465 290.127 337.235 288.222C336.774 284.412 336.131 279.165 335.401 273.417C333.94 261.918 332.134 248.427 330.746 240.424C329.376 232.52 326.203 229.138 323.477 227.696C322.103 226.968 320.812 226.717 319.867 226.647C319.395 226.612 319.01 226.623 318.747 226.642C318.616 226.651 318.515 226.663 318.449 226.671C318.441 226.672 318.434 226.673 318.427 226.674C317.984 226.915 317.609 227.272 317.343 227.71C317.064 228.171 316.915 228.702 316.915 229.245V252.582L320.434 297.073L338.909 348.784L338.964 348.94L338.917 349.098C338.399 350.804 338.369 352.625 338.83 354.348C339.292 356.07 340.225 357.623 341.519 358.824C342.813 360.025 344.416 360.826 346.139 361.134C347.862 361.442 349.635 361.245 351.253 360.565C352.87 359.885 354.266 358.75 355.275 357.291C356.284 355.832 356.866 354.11 356.95 352.327C357.035 350.543 356.619 348.772 355.752 347.22C354.885 345.669 353.603 344.403 352.057 343.567L351.871 343.467L351.813 343.264L337.989 294.482Z" fill="white" stroke="#A1A5A6"/>
<path d="M226.83 294.404L226.826 294.444L226.815 294.482L212.991 343.264L212.933 343.467L212.747 343.567C211.201 344.403 209.919 345.669 209.052 347.22C208.185 348.772 207.769 350.543 207.854 352.327C207.938 354.11 208.52 355.832 209.529 357.291C210.538 358.75 211.934 359.885 213.551 360.565C215.169 361.245 216.942 361.442 218.665 361.134C220.388 360.826 221.991 360.025 223.285 358.824C224.579 357.623 225.512 356.07 225.974 354.348C226.435 352.625 226.405 350.804 225.888 349.098L225.84 348.94L225.895 348.784L244.37 297.073L247.889 252.582V229.245C247.889 228.702 247.74 228.171 247.461 227.71C247.195 227.272 246.82 226.915 246.377 226.674C246.37 226.673 246.363 226.672 246.355 226.671C246.289 226.663 246.188 226.651 246.057 226.642C245.794 226.623 245.409 226.612 244.937 226.647C243.992 226.717 242.701 226.968 241.327 227.696C238.601 229.138 235.428 232.52 234.058 240.424C232.67 248.427 230.864 261.918 229.403 273.417C228.673 279.165 228.03 284.412 227.569 288.222C227.339 290.127 227.154 291.673 227.027 292.742C226.963 293.277 226.914 293.692 226.881 293.974L226.843 294.295L226.833 294.377L226.831 294.397L226.83 294.403L226.83 294.404C226.83 294.404 226.83 294.404 226.334 294.346L226.83 294.404Z" fill="white" stroke="#A1A5A6"/>
<path d="M247.311 212.941L266.588 205.602L303.952 205.111L320.035 212.941L315.518 239.367C315.518 239.367 324.638 255.086 314.597 270.808L312.343 326.826C312.343 326.826 276.32 348.09 245.913 322.556L252.785 270.472C252.785 270.472 241.29 246.307 250.2 237.329L247.311 212.941Z" fill="#A1A5A6"/>
<path d="M255.162 221.153L247.311 212.941C247.311 212.941 230.175 222.116 230.528 252.801L252.144 246.02L255.162 221.153Z" fill="#A1A5A6"/>
<path d="M311.313 221.153L319.655 212.662C319.655 212.662 334.374 224.251 334.021 254.936L314.332 246.02L311.313 221.153Z" fill="#A1A5A6"/>
<path d="M257.453 363.381C257.446 363.395 257.439 363.408 257.433 363.421L257.156 374.507C257.369 374.518 257.649 374.533 257.989 374.551C258.836 374.596 260.056 374.663 261.55 374.748C264.536 374.92 268.617 375.169 272.992 375.478C281.728 376.095 291.687 376.957 296.438 377.93C298.762 378.406 300.13 378.284 300.905 377.934C301.622 377.609 301.886 377.061 301.926 376.408C301.969 375.719 301.755 374.943 301.507 374.308C301.385 373.997 301.26 373.732 301.166 373.546C301.132 373.478 301.102 373.421 301.078 373.376L300.993 373.329C300.855 373.253 300.652 373.14 300.39 372.993C299.865 372.701 299.105 372.277 298.162 371.749C296.275 370.692 293.654 369.219 290.72 367.553C284.854 364.223 277.728 360.118 272.706 357.031C270.291 355.546 268.158 355.227 266.317 355.543C264.464 355.861 262.856 356.832 261.523 358.015C260.191 359.197 259.155 360.572 258.45 361.659C258.099 362.201 257.832 362.667 257.653 362.997C257.564 363.162 257.497 363.293 257.453 363.381Z" fill="white" stroke="#A1A5A6"/>
<path d="M273.617 133.423C273.533 133.34 273.444 133.266 273.36 133.181C267.994 127.719 266.907 119.97 270.931 115.874C274.734 112.003 281.739 112.784 287.026 117.491C291.56 113.098 297.639 111.873 301.573 114.906C306.111 118.403 306.075 126.23 301.494 132.388C301.18 132.809 300.851 133.208 300.513 133.592C306.609 135.863 311.873 139.986 315.592 145.402C319.31 150.819 321.305 157.267 321.305 163.875V194.567C321.305 195.467 321.131 196.359 320.792 197.19C320.454 198.022 319.958 198.777 319.333 199.414C318.707 200.05 317.965 200.555 317.148 200.899C316.331 201.244 315.456 201.421 314.572 201.421H258.843C257.118 201.421 255.463 200.723 254.242 199.481C253.022 198.239 252.336 196.554 252.336 194.797V163.875C252.337 157.178 254.387 150.648 258.201 145.191C262.014 139.734 267.402 135.621 273.617 133.423Z" fill="#F1360B"/>
<path d="M267.591 152.763C257.457 163.079 257.457 179.803 267.591 190.118C277.724 200.433 294.154 200.433 304.288 190.118C314.422 179.803 314.422 163.079 304.288 152.763C294.154 142.448 277.724 142.448 267.591 152.763Z" fill="white" stroke="#A1A5A6"/>
<path d="M271.12 134.3C278.438 133.7 285.759 135.393 292.101 139.149C290.742 136.218 288.775 133.622 286.334 131.54C295.833 134.656 304.595 139.733 312.073 146.453C313.781 147.866 315.237 149.568 316.377 151.484C316.941 152.446 317.3 153.518 317.429 154.631C317.559 155.744 317.457 156.872 317.13 157.943C315.834 161.546 311.64 163.049 307.898 163.525C302.195 164.206 296.417 163.589 290.979 161.72C285.542 159.85 280.583 156.774 276.46 152.713C273.782 150.037 271.423 146.786 270.84 143.012C270.256 139.239 271.903 134.916 275.356 133.409L271.12 134.3Z" fill="#F1360B"/>
<path d="M455.174 100.793L454.341 99.6497L432.139 116.412C433.346 112.669 437.616 100.804 444.617 96.0692C452.98 90.4133 458.865 92.1726 462.07 97.0841C465.276 101.996 464.59 108.199 456.226 113.855C449.137 118.65 436.508 117.983 432.823 117.669L455.174 100.793Z" fill="#F0F1F3"/>
<path d="M121.136 9.01978L120.105 9.98244L138.793 30.7149C135.01 29.8827 122.972 26.7935 117.618 20.1986C111.222 12.32 112.329 6.18007 116.794 2.4238C121.26 -1.33246 127.392 -1.28272 133.789 6.59593C139.211 13.2743 139.873 26.1291 139.949 29.892L121.136 9.01978Z" fill="#F0F1F3"/>
<path d="M422.519 230.384L421.488 231.347L440.176 252.08C436.393 251.247 424.355 248.158 419.001 241.563C412.605 233.685 413.712 227.545 418.177 223.788C422.643 220.032 428.775 220.082 435.172 227.961C440.594 234.639 441.256 247.494 441.332 251.257L422.519 230.384Z" fill="#F0F1F3"/>
<path d="M264.503 32.7777L263.292 33.4909L277.136 57.8444C273.619 56.1998 262.522 50.5353 258.694 42.9185C254.122 33.8189 256.507 28.0676 261.664 25.3825C266.822 22.6974 272.799 24.0951 277.371 33.1947C281.247 40.9081 279.164 53.6048 278.44 57.2954L264.503 32.7777Z" fill="#F0F1F3"/>
<path d="M135.137 185.099L133.927 185.813L147.77 210.166C144.254 208.521 133.156 202.857 129.329 195.24C124.757 186.141 127.141 180.389 132.299 177.704C137.456 175.019 143.433 176.417 148.006 185.516C151.882 193.23 149.799 205.926 149.074 209.617L135.137 185.099Z" fill="#F0F1F3"/>
</svg>
