<svg width="668" height="512" viewBox="0 0 668 512" fill="none" xmlns="http://www.w3.org/2000/svg">
<path d="M355.255 442.879L353.603 429.984C353.593 429.967 353.58 429.947 353.566 429.925C353.504 429.828 353.41 429.684 353.287 429.504C353.039 429.142 352.672 428.633 352.198 428.047C351.248 426.873 349.876 425.402 348.18 424.191C346.483 422.98 344.485 422.046 342.275 421.904C340.077 421.762 337.616 422.401 334.973 424.427C329.507 428.615 321.719 434.239 315.3 438.813C312.09 441.101 309.222 443.127 307.155 444.581C306.122 445.308 305.29 445.893 304.715 446.295C304.428 446.496 304.206 446.652 304.055 446.757L303.941 446.837C303.917 446.895 303.885 446.974 303.848 447.069C303.76 447.298 303.646 447.622 303.541 448C303.327 448.769 303.167 449.707 303.301 450.516C303.43 451.29 303.816 451.92 304.723 452.22C305.69 452.539 307.315 452.506 309.964 451.668C315.359 449.961 326.82 447.743 336.895 445.957C341.94 445.063 346.65 444.274 350.098 443.709C351.823 443.427 353.232 443.201 354.21 443.045C354.648 442.975 355 442.919 355.255 442.879Z" fill="white" stroke="#A1A5A6"/>
<path d="M591.684 339.967C588.975 317.871 575.473 296.099 554.695 288.909C562.889 311.652 562.888 336.602 554.69 359.344C551.498 368.103 547.047 377.508 550.051 386.336C551.919 391.829 556.49 396.031 561.6 398.659C566.71 401.287 572.38 402.539 577.98 403.767L579.082 404.691C587.972 384.332 594.393 362.063 591.684 339.967Z" fill="#F0F1F3"/>
<path d="M554.49 289.326C566.589 303.077 574.11 320.345 575.982 338.677C576.455 342.616 576.312 346.606 575.559 350.5C574.705 354.27 572.871 357.738 570.248 360.546C567.854 363.213 565.101 365.66 563.388 368.872C562.536 370.529 562.038 372.35 561.928 374.215C561.818 376.081 562.098 377.949 562.75 379.697C564.262 384.096 567.242 387.682 570.277 391.086C573.646 394.865 577.205 398.736 578.638 403.746C578.811 404.353 579.73 404.044 579.556 403.438C577.065 394.722 568.722 389.77 564.743 381.919C562.887 378.256 562.108 374.003 563.848 370.136C565.37 366.754 568.207 364.228 570.653 361.548C573.252 358.848 575.159 355.543 576.207 351.923C577.153 348.08 577.447 344.102 577.077 340.159C576.384 331.269 574.317 322.545 570.951 314.306C567.162 304.882 561.811 296.185 555.13 288.59C554.716 288.12 554.079 288.86 554.49 289.326V289.326Z" fill="white"/>
<path d="M575.722 332.738C578.712 332.002 581.346 330.211 583.155 327.687C584.964 325.163 585.829 322.068 585.596 318.957C585.546 318.327 584.58 318.375 584.629 319.006C584.851 321.903 584.045 324.785 582.356 327.132C580.667 329.48 578.207 331.137 575.419 331.806C574.813 331.952 575.12 332.883 575.722 332.738Z" fill="white"/>
<path d="M571.637 359.355C566.237 356.085 562.251 350.87 560.473 344.751C560.297 344.145 559.378 344.454 559.554 345.059C561.416 351.423 565.575 356.841 571.202 360.232C571.738 360.555 572.171 359.676 571.637 359.355V359.355Z" fill="white"/>
<path d="M566.263 305.812C565.165 306.341 563.954 306.585 562.739 306.523C561.525 306.46 560.345 306.093 559.305 305.453C558.773 305.124 558.341 306.003 558.87 306.33C560.022 307.031 561.326 307.435 562.667 307.507C564.009 307.579 565.348 307.317 566.566 306.744C566.686 306.699 566.784 306.611 566.841 306.495C566.898 306.38 566.91 306.247 566.874 306.124C566.833 306.001 566.746 305.899 566.632 305.84C566.517 305.782 566.385 305.772 566.263 305.812V305.812Z" fill="white"/>
<path d="M491.363 328.375C491.69 328.591 492.016 328.806 492.343 329.03C496.719 331.948 500.854 335.222 504.707 338.82C505.009 339.093 505.311 339.375 505.605 339.656C514.796 348.424 522.303 358.846 527.744 370.393C529.904 374.99 531.717 379.747 533.166 384.622C535.167 391.356 536.808 398.819 540.769 404.327C541.176 404.906 541.618 405.459 542.092 405.983H577.885C577.966 405.942 578.048 405.909 578.129 405.867L579.559 405.933C579.501 405.677 579.436 405.412 579.379 405.155C579.346 405.006 579.305 404.857 579.273 404.708C579.248 404.608 579.224 404.509 579.207 404.418C579.199 404.385 579.191 404.351 579.183 404.327C579.167 404.235 579.142 404.153 579.126 404.07C578.766 402.587 578.396 401.105 578.015 399.622C578.015 399.614 578.015 399.614 578.007 399.605C575.075 388.316 571.188 377.176 565.758 366.989C565.594 366.682 565.431 366.367 565.251 366.061C562.778 361.483 559.941 357.117 556.766 353.008C555.021 350.763 553.165 348.61 551.205 346.556C546.131 341.258 540.267 336.803 533.828 333.353C520.99 326.479 506.128 323.845 492.408 328.044C492.057 328.152 491.714 328.259 491.363 328.375Z" fill="#F0F1F3"/>
<path d="M491.444 328.836C509.267 332.427 525.522 341.622 537.9 355.115C540.615 357.972 542.87 361.245 544.58 364.814C546.136 368.345 546.73 372.235 546.303 376.078C545.975 379.669 545.23 383.305 545.768 386.915C546.071 388.758 546.755 390.516 547.774 392.073C548.794 393.63 550.126 394.951 551.685 395.948C555.503 398.537 560.011 399.58 564.455 400.445C569.388 401.404 574.528 402.322 578.646 405.448C579.145 405.826 579.695 405.019 579.197 404.641C572.033 399.203 562.432 400.344 554.595 396.505C550.938 394.714 547.791 391.794 546.886 387.643C546.093 384.014 546.859 380.265 547.222 376.631C547.693 372.888 547.254 369.085 545.942 365.554C544.416 361.908 542.29 358.552 539.654 355.63C533.823 348.955 526.994 343.252 519.416 338.729C510.796 333.518 501.361 329.841 491.518 327.858C490.909 327.735 490.839 328.714 491.444 328.836H491.444Z" fill="white"/>
<path d="M534.167 350.532C536.117 348.119 537.158 345.081 537.103 341.96C537.049 338.84 535.903 335.842 533.87 333.499C533.457 333.027 532.713 333.656 533.127 334.129C535.024 336.306 536.092 339.1 536.136 342.005C536.181 344.911 535.201 347.737 533.371 349.973C532.974 350.46 533.772 351.016 534.167 350.532H534.167Z" fill="white"/>
<path d="M546.706 374.279C540.453 374.965 534.175 373.236 529.123 369.436C528.623 369.059 528.073 369.867 528.572 370.243C533.837 374.187 540.374 375.973 546.879 375.245C547.499 375.175 547.323 374.209 546.706 374.279V374.279Z" fill="white"/>
<path d="M510.63 334.809C510.068 335.902 509.246 336.836 508.239 337.528C507.232 338.22 506.072 338.647 504.862 338.771C504.242 338.833 504.418 339.798 505.035 339.737C506.371 339.593 507.652 339.12 508.766 338.358C509.88 337.596 510.793 336.57 511.426 335.367C511.495 335.259 511.521 335.128 511.498 335.001C511.475 334.875 511.406 334.761 511.304 334.685C511.198 334.611 511.068 334.583 510.942 334.606C510.816 334.629 510.704 334.702 510.63 334.809V334.809Z" fill="white"/>
<path d="M303.013 486.415C301.963 477.852 296.73 469.414 288.678 466.627C291.854 475.442 291.853 485.111 288.676 493.925C287.439 497.319 285.714 500.964 286.878 504.386C287.711 506.5 289.314 508.21 291.354 509.161C293.378 510.094 295.511 510.759 297.702 511.141L298.129 511.499C301.574 503.609 304.063 494.979 303.013 486.415Z" fill="#F0F1F3"/>
<path d="M288.597 466.789C293.287 472.118 296.201 478.811 296.927 485.915C297.11 487.442 297.054 488.988 296.763 490.497C296.432 491.958 295.721 493.303 294.704 494.391C293.693 495.353 292.8 496.437 292.046 497.617C291.716 498.259 291.523 498.965 291.48 499.688C291.437 500.411 291.546 501.135 291.798 501.813C292.47 503.467 293.462 504.968 294.716 506.226C296.022 507.691 297.401 509.191 297.956 511.133C298.023 511.368 298.379 511.249 298.312 511.014C297.346 507.635 294.113 505.717 292.571 502.674C292.174 501.99 291.936 501.223 291.876 500.431C291.816 499.64 291.935 498.845 292.224 498.107C292.923 496.863 293.814 495.739 294.862 494.779C295.869 493.733 296.608 492.452 297.014 491.049C297.381 489.559 297.495 488.018 297.351 486.49C297.082 483.044 296.281 479.663 294.977 476.47C293.508 472.818 291.435 469.447 288.845 466.504C288.685 466.322 288.438 466.608 288.597 466.789H288.597Z" fill="white"/>
<path d="M296.827 483.614C297.986 483.328 299.007 482.634 299.708 481.656C300.409 480.678 300.744 479.479 300.654 478.273C300.634 478.029 300.26 478.047 300.279 478.292C300.365 479.414 300.053 480.531 299.398 481.441C298.744 482.351 297.79 482.993 296.71 483.252C296.475 483.309 296.594 483.67 296.827 483.614H296.827Z" fill="white"/>
<path d="M295.243 493.929C293.151 492.662 291.606 490.641 290.917 488.27C290.849 488.035 290.493 488.154 290.561 488.389C291.282 490.855 292.894 492.955 295.075 494.269C295.283 494.394 295.45 494.054 295.243 493.929V493.929Z" fill="white"/>
<path d="M293.162 473.178C292.736 473.384 292.267 473.478 291.796 473.454C291.325 473.43 290.868 473.287 290.465 473.04C290.259 472.912 290.091 473.252 290.296 473.379C290.743 473.651 291.248 473.808 291.768 473.836C292.288 473.863 292.807 473.762 293.279 473.539C293.325 473.522 293.363 473.488 293.386 473.443C293.408 473.399 293.412 473.347 293.398 473.299C293.383 473.252 293.349 473.212 293.304 473.189C293.26 473.167 293.209 473.163 293.161 473.178L293.162 473.178Z" fill="white"/>
<path d="M264.134 481.923C264.261 482.006 264.387 482.09 264.514 482.176C266.21 483.307 267.812 484.576 269.305 485.971C269.422 486.077 269.54 486.186 269.653 486.295C273.216 489.693 276.125 493.732 278.233 498.207C279.071 499.988 279.773 501.832 280.335 503.721C281.11 506.331 281.746 509.223 283.281 511.358C283.439 511.582 283.61 511.797 283.794 512H297.666C297.697 511.984 297.729 511.971 297.761 511.955L298.314 511.981C298.292 511.881 298.267 511.778 298.245 511.679C298.232 511.621 298.216 511.563 298.204 511.505C298.194 511.467 298.185 511.428 298.178 511.393C298.175 511.38 298.172 511.367 298.169 511.358C298.163 511.323 298.153 511.29 298.147 511.258C298.007 510.684 297.864 510.109 297.716 509.535L297.713 509.528C296.629 505.139 295.036 500.896 292.966 496.887C292.903 496.769 292.839 496.647 292.77 496.528C291.811 494.754 290.712 493.062 289.481 491.469C288.805 490.599 288.086 489.765 287.326 488.969C285.36 486.916 283.087 485.189 280.591 483.852C275.616 481.188 269.856 480.167 264.539 481.794C264.403 481.836 264.27 481.878 264.134 481.923Z" fill="#F0F1F3"/>
<path d="M264.165 482.101C271.073 483.493 277.372 487.056 282.169 492.286C283.222 493.393 284.095 494.662 284.758 496.045C285.361 497.413 285.592 498.921 285.426 500.41C285.189 501.796 285.12 503.207 285.219 504.61C285.336 505.324 285.601 506.006 285.996 506.609C286.391 507.212 286.908 507.724 287.512 508.111C289.03 509.022 290.713 509.615 292.461 509.853C294.373 510.225 296.365 510.581 297.96 511.792C298.154 511.939 298.367 511.626 298.174 511.48C295.398 509.372 291.677 509.814 288.64 508.327C287.916 508.023 287.271 507.556 286.753 506.961C286.235 506.366 285.859 505.658 285.652 504.892C285.471 503.472 285.515 502.031 285.782 500.624C285.965 499.174 285.795 497.7 285.286 496.331C284.695 494.919 283.871 493.618 282.849 492.485C280.589 489.899 277.943 487.688 275.006 485.935C271.665 483.916 268.009 482.491 264.194 481.722C263.958 481.675 263.931 482.054 264.165 482.101H264.165Z" fill="white"/>
<path d="M280.722 490.51C281.478 489.575 281.882 488.397 281.861 487.188C281.839 485.979 281.395 484.816 280.607 483.909C280.447 483.726 280.159 483.969 280.319 484.153C281.055 484.997 281.468 486.079 281.486 487.205C281.503 488.331 281.123 489.427 280.414 490.293C280.26 490.482 280.569 490.697 280.722 490.51Z" fill="white"/>
<path d="M285.582 499.713C283.159 499.979 280.726 499.309 278.768 497.836C278.574 497.69 278.361 498.003 278.554 498.149C280.594 499.677 283.128 500.37 285.649 500.087C285.889 500.06 285.821 499.686 285.582 499.713H285.582Z" fill="white"/>
<path d="M271.6 484.416C271.382 484.84 271.064 485.202 270.673 485.47C270.283 485.738 269.833 485.904 269.365 485.952C269.124 485.976 269.193 486.35 269.432 486.326C269.949 486.27 270.446 486.087 270.878 485.792C271.309 485.497 271.663 485.099 271.908 484.633C271.935 484.591 271.945 484.54 271.936 484.491C271.928 484.442 271.901 484.398 271.861 484.368C271.82 484.34 271.77 484.329 271.721 484.338C271.672 484.347 271.629 484.375 271.6 484.416V484.416Z" fill="white"/>
<path d="M64.6867 304.513C68.851 270.55 89.604 237.087 121.54 226.034C108.945 260.992 108.948 299.341 121.547 334.297C126.455 347.76 133.295 362.216 128.679 375.784C125.807 384.227 118.781 390.687 110.927 394.726C103.073 398.765 94.357 400.69 85.7497 402.576L84.0558 403.997C70.3918 372.704 60.5223 338.476 64.6867 304.513Z" fill="#F0F1F3"/>
<path d="M121.857 226.676C103.259 247.811 91.6998 274.353 88.8213 302.53C88.2408 308.571 88.1702 314.749 89.4722 320.703C90.7851 326.497 93.6038 331.828 97.6353 336.144C101.315 340.244 105.546 344.005 108.179 348.941C110.954 354.144 111.06 360.055 109.161 365.581C106.836 372.342 102.255 377.853 97.5907 383.085C92.4117 388.893 86.9415 394.844 84.74 402.544C84.4733 403.477 83.0615 403.003 83.3278 402.071C87.158 388.673 99.9811 381.063 106.096 368.996C108.95 363.365 110.148 356.828 107.473 350.884C105.133 345.687 100.773 341.804 97.0121 337.685C93.0632 333.36 90.0355 328.615 88.4757 322.889C86.8802 317.032 86.7126 310.838 87.1383 304.809C88.2041 291.144 91.3814 277.735 96.5541 265.072C102.379 250.586 110.603 237.218 120.873 225.545C121.508 224.823 122.488 225.959 121.857 226.676L121.857 226.676Z" fill="white"/>
<path d="M89.2212 293.402C84.6256 292.27 80.5762 289.519 77.7962 285.638C75.0163 281.758 73.6867 277.002 74.045 272.219C74.1208 271.252 75.6067 271.326 75.5308 272.295C75.189 276.748 76.4279 281.178 79.0239 284.786C81.6199 288.394 85.402 290.941 89.6876 291.969C90.6186 292.194 90.147 293.625 89.2213 293.402H89.2212Z" fill="white"/>
<path d="M95.499 334.314C103.799 329.287 109.927 321.272 112.659 311.867C112.929 310.935 114.341 311.409 114.071 312.34C111.21 322.122 104.817 330.45 96.1679 335.661C95.3432 336.157 94.6788 334.807 95.499 334.314V334.314Z" fill="white"/>
<path d="M103.758 252.015C105.447 252.829 107.308 253.204 109.174 253.108C111.041 253.012 112.855 252.447 114.453 251.464C115.271 250.958 115.935 252.308 115.122 252.812C113.351 253.889 111.347 254.51 109.285 254.621C107.223 254.732 105.165 254.329 103.292 253.447C103.109 253.379 102.958 253.243 102.87 253.066C102.782 252.889 102.764 252.685 102.819 252.495C102.882 252.305 103.016 252.149 103.192 252.059C103.367 251.969 103.571 251.953 103.758 252.015V252.015Z" fill="white"/>
<path d="M218.883 286.696C218.381 287.027 217.879 287.358 217.376 287.702C210.651 292.188 204.295 297.22 198.373 302.75C197.909 303.17 197.444 303.603 196.992 304.036C182.864 317.512 171.326 333.531 162.964 351.279C159.643 358.345 156.857 365.656 154.629 373.151C151.554 383.501 149.031 394.971 142.944 403.437C142.318 404.327 141.639 405.178 140.91 405.983H85.8948C85.7698 405.919 85.6441 405.868 85.5185 405.805L83.3219 405.907C83.4102 405.512 83.5101 405.105 83.5983 404.71C83.6486 404.481 83.7111 404.252 83.7613 404.023C83.7987 403.87 83.8367 403.717 83.8618 403.577C83.8741 403.526 83.887 403.475 83.8992 403.437C83.9244 403.297 83.9624 403.17 83.9875 403.042C84.5397 400.764 85.1087 398.485 85.6944 396.206C85.6944 396.193 85.6944 396.193 85.7066 396.18C90.2132 378.828 96.1876 361.706 104.535 346.047C104.786 345.576 105.036 345.092 105.313 344.621C109.114 337.584 113.476 330.874 118.355 324.557C121.037 321.108 123.89 317.798 126.902 314.64C134.702 306.497 143.715 299.65 153.613 294.348C173.345 283.781 196.189 279.733 217.276 286.187C217.816 286.353 218.343 286.518 218.883 286.696Z" fill="#F0F1F3"/>
<path d="M218.761 287.405C191.365 292.923 166.381 307.056 147.356 327.797C143.307 332.265 139.583 337.156 137.088 342.705C134.697 348.132 133.783 354.11 134.44 360.017C134.944 365.538 136.09 371.125 135.262 376.674C134.389 382.522 130.965 387.307 126.168 390.559C120.298 394.539 113.369 396.141 106.539 397.47C98.9562 398.945 91.0565 400.356 84.7275 405.16C83.9607 405.742 83.1149 404.501 83.8806 403.92C94.892 395.562 109.648 397.316 121.694 391.415C127.315 388.662 132.152 384.173 133.544 377.794C134.762 372.215 133.585 366.453 133.027 360.867C132.442 355.003 132.841 349.366 134.994 343.841C137.197 338.191 140.741 333.142 144.66 328.588C153.622 318.329 164.119 309.562 175.766 302.61C189.016 294.601 203.518 288.949 218.647 285.9C219.583 285.712 219.691 287.217 218.761 287.405V287.405Z" fill="white"/>
<path d="M153.094 320.753C150.096 317.043 148.497 312.373 148.58 307.577C148.664 302.782 150.426 298.172 153.551 294.572C154.186 293.846 155.328 294.813 154.692 295.54C151.776 298.887 150.136 303.18 150.067 307.646C149.998 312.112 151.505 316.456 154.317 319.894C154.927 320.642 153.701 321.496 153.094 320.753L153.094 320.753Z" fill="white"/>
<path d="M133.82 357.252C143.432 358.308 153.082 355.65 160.847 349.809C161.615 349.23 162.461 350.47 161.693 351.049C153.602 357.112 143.554 359.857 133.555 358.737C132.602 358.629 132.873 357.146 133.82 357.252V357.252Z" fill="white"/>
<path d="M189.268 296.585C190.133 298.265 191.396 299.701 192.944 300.765C194.491 301.828 196.275 302.484 198.134 302.676C199.088 302.771 198.816 304.254 197.869 304.16C195.815 303.939 193.846 303.211 192.134 302.04C190.421 300.87 189.018 299.291 188.046 297.443C187.94 297.277 187.9 297.076 187.935 296.881C187.97 296.686 188.077 296.512 188.233 296.394C188.396 296.281 188.596 296.238 188.789 296.273C188.983 296.309 189.155 296.421 189.268 296.585V296.585Z" fill="white"/>
<path d="M0.549786 406.811H667.183C667.4 406.811 667.608 406.724 667.761 406.569C667.914 406.413 668 406.203 668 405.983C668 405.763 667.914 405.553 667.761 405.397C667.608 405.242 667.4 405.155 667.183 405.155H0.816645C0.600063 405.155 0.392363 405.242 0.239215 405.397C0.0860684 405.553 1.94311e-05 405.763 1.94311e-05 405.983C1.94311e-05 406.44 0.0988212 406.811 0.549786 406.811Z" fill="#F0F1F3"/>
<path d="M434.178 479.698H581.437C581.654 479.698 581.862 479.611 582.015 479.455C582.168 479.3 582.254 479.089 582.254 478.87C582.254 478.65 582.168 478.439 582.015 478.284C581.862 478.129 581.654 478.041 581.437 478.041H434.445C434.228 478.041 434.02 478.129 433.867 478.284C433.714 478.439 433.628 478.65 433.628 478.87C433.628 479.327 433.727 479.698 434.178 479.698Z" fill="#F0F1F3"/>
<path d="M203.072 512H350.332C350.548 512 350.756 511.913 350.909 511.757C351.062 511.602 351.148 511.391 351.148 511.172C351.148 510.952 351.062 510.741 350.909 510.586C350.756 510.431 350.548 510.344 350.332 510.344H203.339C203.123 510.344 202.915 510.431 202.762 510.586C202.609 510.741 202.522 510.952 202.522 511.172C202.522 511.629 202.621 512 203.072 512Z" fill="#F0F1F3"/>
<path d="M64.2461 478.87H211.506C211.722 478.87 211.93 478.782 212.083 478.627C212.236 478.472 212.322 478.261 212.322 478.041C212.322 477.822 212.236 477.611 212.083 477.456C211.93 477.3 211.722 477.213 211.506 477.213H64.5129C64.2964 477.213 64.0887 477.3 63.9355 477.456C63.7824 477.611 63.6963 477.822 63.6963 478.041C63.6963 478.499 63.7951 478.87 64.2461 478.87Z" fill="#F0F1F3"/>
<path d="M395.852 447.396C405 447.396 413.374 446.507 420.028 444.406C427.937 441.908 432.903 437.868 434.79 432.391C435.677 430.065 435.941 427.543 435.557 425.08C435.173 422.617 434.154 420.301 432.604 418.366C420.904 402.904 380.302 398.542 374.854 398.027L363.802 376.801C363.095 371.737 366.44 367.903 360.66 367.807L292.28 366.865C286.603 366.744 288.214 370.309 287.242 375.247L276.824 394.11L321.662 413.303L314.883 430.058L315.325 430.318C328.448 438.039 366.187 447.395 395.852 447.396Z" fill="#2F2E41"/>
<path d="M283.031 394.916C283.031 394.916 220.412 387.647 224.496 416.72C228.58 445.792 276.225 466.385 348.373 416.72L340.205 402.184C340.205 402.184 313.32 400.827 296.984 393.559L283.031 394.916Z" fill="#2F2E41"/>
<path d="M394.796 342.649L394.785 342.61L394.781 342.57L395.277 342.512C394.781 342.57 394.781 342.57 394.781 342.57L394.781 342.568L394.78 342.562L394.777 342.538L394.766 342.443L394.722 342.07C394.683 341.742 394.625 341.258 394.551 340.636C394.403 339.391 394.187 337.593 393.918 335.376C393.38 330.942 392.629 324.837 391.776 318.148C390.07 304.767 387.96 289.067 386.339 279.752C384.736 270.537 381.019 266.577 377.808 264.883C376.19 264.03 374.671 263.735 373.558 263.653C373.002 263.613 372.549 263.625 372.238 263.647C372.082 263.658 371.963 263.672 371.884 263.682C371.869 263.684 371.855 263.686 371.843 263.687C371.306 263.975 370.853 264.404 370.532 264.93C370.198 265.479 370.021 266.111 370.021 266.757V293.917L374.131 345.702L395.71 405.885L395.766 406.041L395.718 406.2C395.109 408.199 395.074 410.333 395.617 412.352C396.159 414.372 397.257 416.191 398.78 417.6C400.303 419.009 402.189 419.948 404.218 420.309C406.246 420.67 408.334 420.439 410.238 419.641C412.142 418.844 413.784 417.513 414.972 415.803C416.159 414.093 416.843 412.074 416.942 409.984C417.042 407.893 416.553 405.817 415.533 403.999C414.513 402.181 413.004 400.696 411.184 399.716L410.998 399.615L410.94 399.412L394.796 342.649Z" fill="white" stroke="#A1A5A6"/>
<path d="M264.816 342.57L264.811 342.61L264.8 342.649L248.657 399.412L248.599 399.615L248.413 399.716C246.593 400.696 245.084 402.181 244.064 403.999C243.044 405.817 242.555 407.893 242.654 409.984C242.754 412.074 243.438 414.093 244.625 415.803C245.813 417.513 247.455 418.844 249.359 419.641C251.263 420.439 253.351 420.67 255.379 420.309C257.408 419.948 259.294 419.009 260.817 417.6C262.34 416.191 263.438 414.372 263.98 412.352C264.523 410.333 264.488 408.199 263.879 406.2L263.831 406.041L263.887 405.885L285.466 345.702L289.576 293.917V266.757C289.576 266.111 289.399 265.479 289.065 264.93C288.744 264.404 288.291 263.975 287.754 263.687C287.742 263.686 287.728 263.684 287.713 263.682C287.634 263.672 287.515 263.658 287.359 263.647C287.048 263.625 286.595 263.613 286.039 263.653C284.926 263.735 283.407 264.03 281.789 264.883C278.577 266.577 274.861 270.537 273.257 279.752C271.637 289.067 269.527 304.767 267.821 318.148C266.968 324.837 266.217 330.942 265.679 335.376C265.41 337.593 265.194 339.391 265.046 340.636C264.972 341.258 264.914 341.742 264.875 342.07L264.831 342.443L264.82 342.538L264.817 342.562L264.816 342.568L264.816 342.57C264.816 342.57 264.816 342.57 264.32 342.512L264.816 342.57ZM287.823 263.698C287.823 263.698 287.823 263.698 287.822 263.698L287.823 263.698Z" fill="white" stroke="#A1A5A6"/>
<path d="M288.819 247.786L311.331 239.246L354.966 238.675L373.748 247.786L368.473 278.536C368.473 278.536 379.124 296.828 367.397 315.122L364.765 380.307C364.765 380.307 322.696 405.05 287.186 375.338L295.212 314.731C295.212 314.731 281.787 286.611 292.192 276.165L288.819 247.786Z" fill="#A1A5A6"/>
<path d="M297.988 257.342L288.819 247.786C288.819 247.786 268.808 258.462 269.22 294.168L294.463 286.278L297.988 257.342Z" fill="#A1A5A6"/>
<path d="M363.562 257.342L373.303 247.461C373.303 247.461 390.493 260.946 390.081 296.653L367.087 286.278L363.562 257.342Z" fill="#A1A5A6"/>
<path d="M300.229 435.868C300.486 435.881 300.842 435.9 301.284 435.923C302.273 435.975 303.697 436.053 305.441 436.153C308.929 436.352 313.694 436.642 318.803 437.001C329.006 437.72 340.632 438.722 346.173 439.853C348.892 440.409 350.512 440.271 351.442 439.852C352.314 439.458 352.634 438.79 352.683 438.006C352.734 437.188 352.479 436.272 352.188 435.529C352.045 435.164 351.898 434.854 351.787 434.636C351.741 434.545 351.701 434.471 351.671 434.415L351.551 434.348C351.39 434.259 351.152 434.128 350.846 433.958C350.234 433.618 349.346 433.124 348.244 432.509C346.041 431.28 342.981 429.566 339.554 427.628C332.704 423.752 324.383 418.976 318.519 415.385C315.684 413.648 313.171 413.271 310.999 413.642C308.815 414.016 306.923 415.155 305.359 416.538C303.795 417.921 302.581 419.528 301.756 420.796C301.344 421.428 301.031 421.973 300.822 422.359C300.717 422.551 300.638 422.704 300.586 422.807C300.575 422.831 300.564 422.852 300.555 422.87L300.229 435.868Z" fill="white" stroke="#A1A5A6"/>
<path d="M319.54 155.256C319.441 155.159 319.337 155.073 319.239 154.974C312.973 148.618 311.703 139.602 316.403 134.835C320.844 130.331 329.024 131.24 335.199 136.717C340.494 131.604 347.593 130.179 352.188 133.708C357.486 137.778 357.445 146.886 352.095 154.051C351.729 154.542 351.344 155.006 350.949 155.452C358.069 158.095 364.216 162.893 368.559 169.195C372.902 175.498 375.231 183.002 375.23 190.691V226.406C375.23 227.453 375.027 228.49 374.632 229.458C374.237 230.425 373.658 231.304 372.927 232.045C372.197 232.785 371.33 233.373 370.377 233.774C369.423 234.174 368.4 234.381 367.368 234.381H302.286C300.271 234.381 298.338 233.569 296.913 232.123C295.488 230.678 294.687 228.717 294.687 226.673V190.691C294.688 182.898 297.082 175.299 301.535 168.949C305.989 162.599 312.282 157.813 319.54 155.256Z" fill="#F1360B"/>
<path d="M312.444 177.702C300.577 189.738 300.577 209.251 312.444 221.287C324.31 233.323 343.55 233.323 355.417 221.287C367.284 209.251 367.284 189.738 355.417 177.702C343.55 165.666 324.31 165.666 312.444 177.702Z" fill="white" stroke="#A1A5A6"/>
<path d="M316.622 156.276C325.169 155.578 333.719 157.548 341.124 161.919C339.538 158.509 337.24 155.488 334.39 153.065C345.483 156.69 355.716 162.598 364.448 170.419C366.443 172.062 368.144 174.042 369.475 176.272C370.134 177.392 370.552 178.639 370.704 179.934C370.855 181.229 370.736 182.542 370.354 183.788C368.841 187.981 363.943 189.73 359.573 190.283C352.913 191.076 346.164 190.359 339.815 188.183C333.465 186.007 327.673 182.428 322.859 177.703C319.731 174.589 316.976 170.806 316.295 166.414C315.613 162.023 317.537 156.993 321.57 155.24L316.622 156.276Z" fill="#F1360B"/>
<path d="M531.566 117.287L530.593 115.956L504.666 135.461C506.075 131.106 511.062 117.299 519.238 111.79C529.005 105.208 535.877 107.255 539.62 112.971C543.364 118.686 542.562 125.904 532.795 132.486C524.516 138.065 509.768 137.289 505.465 136.923L531.566 117.287Z" fill="#F0F1F3"/>
<path d="M141.467 10.4957L140.263 11.6159L162.087 35.7409C157.669 34.7726 143.611 31.1779 137.359 23.5039C129.889 14.336 131.182 7.19136 136.397 2.82043C141.612 -1.5505 148.773 -1.49261 156.243 7.67527C162.575 15.4465 163.349 30.4048 163.438 34.7834L141.467 10.4957Z" fill="#F0F1F3"/>
<path d="M493.432 268.084L492.228 269.204L514.052 293.329C509.634 292.361 495.576 288.766 489.323 281.092C481.854 271.924 483.147 264.779 488.362 260.408C493.576 256.038 500.738 256.095 508.208 265.263C514.54 273.034 515.313 287.993 515.402 292.371L493.432 268.084Z" fill="#F0F1F3"/>
<path d="M308.894 38.1413L307.48 38.9712L323.647 67.3099C319.54 65.3961 306.58 58.8047 302.111 49.9415C296.771 39.3529 299.556 32.6605 305.579 29.536C311.602 26.4115 318.582 28.0379 323.922 38.6265C328.449 47.6021 326.016 62.3764 325.17 66.671L308.894 38.1413Z" fill="#F0F1F3"/>
<path d="M157.818 215.388L156.404 216.218L172.571 244.557C168.464 242.643 155.504 236.052 151.035 227.188C145.695 216.6 148.48 209.908 154.503 206.783C160.526 203.658 167.506 205.285 172.846 215.874C177.372 224.849 174.94 239.623 174.094 243.918L157.818 215.388Z" fill="#F0F1F3"/>
</svg>
